<?xml version="1.0" encoding="UTF-8"?><svg id="Layer_2" xmlns="http://www.w3.org/2000/svg" viewBox="0 0 339.81 87.24"><defs><style>.cls-1{fill:#fff;}</style></defs><g id="Layer_1-2"><path class="cls-1" d="m248.55,52.99c0-14.51,8.76-26.88,21.57-31.72h-28.64v6.78c-2.53-3.91-8.39-8.97-18.85-8.97-9.41,0-18.22,4.02-24.22,11.15-6.48-7.78-16.05-11.15-23.97-11.15-2.64,0-11.72,0-18.51,7.24V0h-19.08v85.06h18.28v-6.78c2.64,4.6,9.54,8.97,18.51,8.97s18.39-3.73,24.56-11.19c5.5,6.81,13.81,11.19,24.44,11.19,7.47,0,15.4-2.87,18.85-9.08v6.9h29.26c-13.15-4.77-22.19-17.26-22.19-32.07Zm-61.81.12c0,8.39-6.21,16.32-15.98,16.32s-15.52-7.59-15.52-16.44c0-7.93,5.75-16.09,15.86-16.09,9.43,0,15.63,7.93,15.63,16.09v.12Zm54.74,1.03c-.23,2.87-1.03,5.63-2.64,8.16-2.41,3.91-6.55,7.13-13.33,7.13-11.49,0-15.86-10.12-15.86-15.98v-.12c0-7.24,4.83-16.44,15.75-16.44,8.05,0,12.41,4.48,14.48,8.85,1.26,2.64,1.84,5.52,1.61,8.39Z"/><path class="cls-1" d="m323.6,28.39v-7.13h-28.87c10.85,3.98,18.91,13.07,21.29,24.6h-19.31c-2.07-4.37-5.86-8.97-13.79-8.97-4.48-.23-8.28,1.49-11.03,4.48-2.64,2.99-4.14,7.13-4.14,11.72,0,9.31,6.09,16.21,15.17,16.21,7.93,0,11.72-4.6,13.79-8.51h19.43c-2.59,10.87-10.42,20.25-21.45,24.25h30.07v-34.25c0-8.97,4.6-12.53,14.37-12.53h.69v-19.2c-11.03,0-14.37,5.86-16.21,9.31Z"/><path class="cls-1" d="m18.2,21.76h-4.01v11.4h-2.93v-11.4h-4.01v-2.89h10.95v2.89Z"/><path class="cls-1" d="m31.2,33.17h-2.93v-5.96h-5.1v5.96h-2.93v-14.29h2.93v5.57h5.1v-5.57h2.93v14.29Z"/><path class="cls-1" d="m43.87,33.17h-9.8v-14.29h9.8v2.89h-6.88v2.68h6v2.76h-6v3.07h6.88v2.89Z"/><path class="cls-1" d="m63.13,28.81c0,1.68-.63,2.89-1.88,3.64-.79.48-1.86.72-3.21.72h-5.57v-14.29h5.24c1.47,0,2.64.33,3.5.98.96.72,1.43,1.8,1.43,3.23,0,1.04-.34,1.89-1.02,2.56,1.01.67,1.51,1.72,1.51,3.15Zm-3.36-5.69c0-.59-.2-.99-.61-1.21-.29-.16-.76-.25-1.41-.25h-2.35v2.99h2.35c.64,0,1.11-.09,1.41-.27.41-.23.61-.65.61-1.27Zm.43,5.71c0-.66-.22-1.11-.65-1.35-.33-.16-.83-.25-1.52-.25h-2.64v3.17h2.64c.7,0,1.2-.09,1.52-.27.44-.23.65-.67.65-1.31Z"/><path class="cls-1" d="m76.78,33.17h-3.4l-2.87-4.79c-.23-.4-.44-.65-.61-.78-.18-.12-.47-.18-.88-.18h-.72v5.75h-2.93v-14.29h5.24c1.47,0,2.65.35,3.52,1.04.96.76,1.43,1.86,1.43,3.3,0,.89-.24,1.68-.72,2.36s-1.13,1.19-1.96,1.5l3.89,6.08Zm-4.13-9.93c0-1.02-.67-1.54-2.01-1.54h-2.37v3.13h2.37c1.34,0,2.01-.53,2.01-1.6Z"/><path class="cls-1" d="m81.18,33.17h-2.93v-14.29h2.93v14.29Z"/><path class="cls-1" d="m94.18,21.76h-4.01v11.4h-2.93v-11.4h-4.01v-2.89h10.95v2.89Z"/><path class="cls-1" d="m99.15,33.17h-2.93v-14.29h2.93v14.29Z"/><path class="cls-1" d="m112.5,28.79c0,1.41-.55,2.54-1.66,3.4-1.02.79-2.26,1.19-3.71,1.19-3.1,0-5.02-1.45-5.77-4.34l2.76-.55c.4,1.41,1.4,2.11,3.01,2.11.61,0,1.15-.14,1.62-.43.55-.34.82-.8.82-1.37,0-.67-.67-1.18-2.01-1.54-2.12-.57-3.36-.96-3.75-1.17-1.34-.7-2.01-1.78-2.01-3.25,0-1.31.51-2.34,1.54-3.09.93-.68,2.06-1.02,3.4-1.02s2.39.26,3.23.78c.85.52,1.55,1.35,2.11,2.5l-2.52,1.17c-.34-.61-.72-1.05-1.15-1.32s-.98-.4-1.68-.4c-.48,0-.91.1-1.29.31-.48.26-.72.62-.72,1.08,0,.55.67,1,2.01,1.35,1.95.5,3.2.91,3.75,1.23,1.34.75,2.01,1.88,2.01,3.38Z"/><path class="cls-1" d="m125.6,33.17h-2.93v-5.96h-5.1v5.96h-2.93v-14.29h2.93v5.57h5.1v-5.57h2.93v14.29Z"/><path class="cls-1" d="m13.55,50.35h-3.17l-1.29-3.58h-4.65l-1.29,3.58H0l5.49-14.29h2.54l5.53,14.29Zm-5.4-6.14l-1.39-3.83-1.37,3.83h2.76Z"/><path class="cls-1" d="m25.46,45.97c0,1.41-.55,2.54-1.66,3.4-1.02.79-2.26,1.19-3.71,1.19-3.1,0-5.02-1.45-5.77-4.34l2.76-.55c.4,1.41,1.4,2.11,3.01,2.11.61,0,1.15-.14,1.62-.43.55-.34.82-.8.82-1.37,0-.67-.67-1.18-2.01-1.54-2.12-.57-3.36-.96-3.75-1.17-1.34-.7-2.01-1.78-2.01-3.25,0-1.31.51-2.34,1.54-3.09.93-.68,2.06-1.02,3.4-1.02s2.39.26,3.23.78c.85.52,1.55,1.35,2.11,2.5l-2.52,1.17c-.34-.61-.72-1.05-1.15-1.32s-.98-.4-1.68-.4c-.48,0-.91.1-1.29.31-.48.26-.72.62-.72,1.08,0,.55.67,1,2.01,1.35,1.95.5,3.2.91,3.75,1.23,1.34.75,2.01,1.88,2.01,3.38Z"/><path class="cls-1" d="m37.89,45.97c0,1.41-.55,2.54-1.66,3.4-1.02.79-2.26,1.19-3.71,1.19-3.1,0-5.02-1.45-5.77-4.34l2.76-.55c.4,1.41,1.4,2.11,3.01,2.11.61,0,1.15-.14,1.62-.43.55-.34.82-.8.82-1.37,0-.67-.67-1.18-2.01-1.54-2.12-.57-3.36-.96-3.75-1.17-1.34-.7-2.01-1.78-2.01-3.25,0-1.31.51-2.34,1.54-3.09.93-.68,2.06-1.02,3.4-1.02s2.39.26,3.23.78c.85.52,1.55,1.35,2.11,2.5l-2.52,1.17c-.34-.61-.72-1.05-1.15-1.32s-.98-.4-1.68-.4c-.48,0-.91.1-1.29.31-.48.26-.72.62-.72,1.08,0,.55.67,1,2.01,1.35,1.95.5,3.2.91,3.75,1.23,1.34.75,2.01,1.88,2.01,3.38Z"/><path class="cls-1" d="m51.38,43.21c0,2.1-.46,3.79-1.37,5.08-1.05,1.49-2.59,2.23-4.61,2.23s-3.56-.74-4.61-2.23c-.91-1.28-1.37-2.98-1.37-5.08s.46-3.79,1.37-5.08c1.05-1.49,2.59-2.23,4.61-2.23s3.55.74,4.61,2.23c.91,1.28,1.37,2.98,1.37,5.08Zm-2.95,0c0-2.95-1.01-4.42-3.03-4.42s-3.03,1.47-3.03,4.42,1.01,4.42,3.03,4.42,3.03-1.47,3.03-4.42Z"/><path class="cls-1" d="m64.36,47.88c-.85,1-1.58,1.67-2.21,2.03-.75.42-1.72.63-2.91.63-2.01,0-3.58-.74-4.71-2.21-1.01-1.34-1.51-3.04-1.51-5.12s.5-3.78,1.51-5.12c1.11-1.47,2.67-2.21,4.69-2.21,1.11,0,2.04.19,2.8.58.76.39,1.51,1.02,2.23,1.89l-2.07,2.03c-.96-1.08-1.94-1.62-2.97-1.62-1.12,0-1.96.48-2.52,1.45-.46.79-.7,1.79-.7,2.99s.23,2.2.7,2.99c.56.97,1.4,1.45,2.52,1.45s2.12-.59,3.07-1.78l2.07,2.01Z"/><path class="cls-1" d="m69.17,50.35h-2.93v-14.29h2.93v14.29Z"/><path class="cls-1" d="m84.15,50.35h-3.17l-1.29-3.58h-4.65l-1.29,3.58h-3.15l5.49-14.29h2.54l5.53,14.29Zm-5.4-6.14l-1.39-3.83-1.37,3.83h2.76Z"/><path class="cls-1" d="m94.08,38.95h-4.01v11.4h-2.93v-11.4h-4.01v-2.89h10.95v2.89Z"/><path class="cls-1" d="m99.05,50.35h-2.93v-14.29h2.93v14.29Z"/><path class="cls-1" d="m113.26,43.21c0,2.1-.46,3.79-1.37,5.08-1.05,1.49-2.59,2.23-4.61,2.23s-3.56-.74-4.61-2.23c-.91-1.28-1.37-2.98-1.37-5.08s.46-3.79,1.37-5.08c1.05-1.49,2.59-2.23,4.61-2.23s3.55.74,4.61,2.23c.91,1.28,1.37,2.98,1.37,5.08Zm-2.95,0c0-2.95-1.01-4.42-3.03-4.42s-3.03,1.47-3.03,4.42,1.01,4.42,3.03,4.42,3.03-1.47,3.03-4.42Z"/><path class="cls-1" d="m125.6,50.35h-2.35l-5.22-8.15v8.15h-2.93v-14.29h2.37l5.2,8.15v-8.15h2.93v14.29Z"/><path class="cls-1" d="m16.74,56.14h-6.71v2.68h5.98v2.76h-5.98v5.96h-2.91v-14.29h9.62v2.89Z"/><path class="cls-1" d="m30.33,60.4c0,2.1-.46,3.79-1.37,5.08-1.05,1.49-2.59,2.23-4.61,2.23s-3.56-.74-4.61-2.23c-.91-1.28-1.37-2.98-1.37-5.08s.46-3.79,1.37-5.08c1.05-1.49,2.59-2.23,4.61-2.23s3.55.74,4.61,2.23c.91,1.28,1.37,2.98,1.37,5.08Zm-2.95,0c0-2.95-1.01-4.42-3.03-4.42s-3.03,1.47-3.03,4.42,1.01,4.42,3.03,4.42,3.03-1.47,3.03-4.42Z"/><path class="cls-1" d="m43.58,67.54h-3.4l-2.87-4.79c-.23-.4-.44-.66-.61-.78-.18-.12-.47-.18-.88-.18h-.72v5.75h-2.93v-14.29h5.24c1.47,0,2.65.35,3.52,1.04.96.76,1.43,1.86,1.43,3.3,0,.89-.24,1.67-.72,2.36-.48.69-1.13,1.19-1.96,1.5l3.89,6.08Zm-4.13-9.93c0-1.02-.67-1.54-2.01-1.54h-2.37v3.13h2.37c1.34,0,2.01-.53,2.01-1.6Z"/><path class="cls-1" d="m61.92,65.06c-.85,1-1.58,1.67-2.21,2.03-.75.42-1.72.63-2.91.63-2.01,0-3.58-.74-4.71-2.21-1.01-1.34-1.51-3.04-1.51-5.12s.5-3.78,1.51-5.12c1.11-1.47,2.67-2.21,4.69-2.21,1.11,0,2.04.19,2.8.58.76.39,1.51,1.02,2.23,1.89l-2.07,2.03c-.96-1.08-1.94-1.62-2.97-1.62-1.12,0-1.96.48-2.52,1.45-.46.79-.7,1.79-.7,2.99s.23,2.2.7,2.99c.56.97,1.4,1.45,2.52,1.45s2.12-.59,3.07-1.78l2.07,2.01Z"/><path class="cls-1" d="m75.92,67.54h-3.17l-1.29-3.58h-4.65l-1.29,3.58h-3.15l5.49-14.29h2.54l5.53,14.29Zm-5.4-6.14l-1.39-3.83-1.37,3.83h2.76Z"/><path class="cls-1" d="m87.85,67.54h-2.35l-5.22-8.15v8.15h-2.93v-14.29h2.37l5.2,8.15v-8.15h2.93v14.29Z"/><path class="cls-1" d="m101.45,65.06c-.85,1-1.58,1.67-2.21,2.03-.75.42-1.72.63-2.91.63-2.01,0-3.58-.74-4.71-2.21-1.01-1.34-1.51-3.04-1.51-5.12s.5-3.78,1.51-5.12c1.11-1.47,2.67-2.21,4.69-2.21,1.11,0,2.04.19,2.8.58.76.39,1.51,1.02,2.23,1.89l-2.07,2.03c-.96-1.08-1.94-1.62-2.97-1.62-1.12,0-1.96.48-2.52,1.45-.46.79-.7,1.79-.7,2.99s.23,2.2.7,2.99c.56.97,1.4,1.45,2.52,1.45s2.12-.59,3.07-1.78l2.07,2.01Z"/><path class="cls-1" d="m113.13,67.54h-9.8v-14.29h9.8v2.89h-6.88v2.68h6v2.76h-6v3.07h6.88v2.89Z"/><path class="cls-1" d="m126.99,67.54h-3.4l-2.87-4.79c-.23-.4-.44-.66-.61-.78-.18-.12-.47-.18-.88-.18h-.72v5.75h-2.93v-14.29h5.24c1.47,0,2.65.35,3.52,1.04.96.76,1.43,1.86,1.43,3.3,0,.89-.24,1.67-.72,2.36-.48.69-1.13,1.19-1.96,1.5l3.89,6.08Zm-4.13-9.93c0-1.02-.67-1.54-2.01-1.54h-2.37v3.13h2.37c1.34,0,2.01-.53,2.01-1.6Z"/><path class="cls-1" d="m37.81,84.73h-3.4l-2.87-4.79c-.23-.4-.44-.65-.61-.78s-.47-.18-.88-.18h-.72v5.75h-2.93v-14.29h5.24c1.47,0,2.65.35,3.52,1.04.96.76,1.43,1.86,1.43,3.3,0,.89-.24,1.68-.72,2.36-.48.69-1.13,1.19-1.96,1.5l3.89,6.08Zm-4.13-9.93c0-1.02-.67-1.54-2.01-1.54h-2.37v3.13h2.37c1.34,0,2.01-.53,2.01-1.6Z"/><path class="cls-1" d="m49.09,84.73h-9.8v-14.29h9.8v2.89h-6.88v2.68h6v2.76h-6v3.07h6.88v2.89Z"/><path class="cls-1" d="m61.61,80.35c0,1.41-.55,2.54-1.66,3.4-1.02.79-2.26,1.19-3.71,1.19-3.1,0-5.02-1.45-5.77-4.34l2.76-.55c.4,1.41,1.4,2.11,3.01,2.11.61,0,1.15-.14,1.62-.43.55-.34.82-.8.82-1.37,0-.67-.67-1.18-2.01-1.54-2.12-.57-3.36-.96-3.75-1.17-1.34-.7-2.01-1.78-2.01-3.25,0-1.31.51-2.34,1.54-3.09.93-.68,2.06-1.02,3.4-1.02s2.39.26,3.23.78c.85.52,1.55,1.35,2.11,2.5l-2.52,1.17c-.34-.61-.72-1.05-1.15-1.32-.42-.27-.98-.4-1.68-.4-.48,0-.91.1-1.29.31-.48.26-.72.62-.72,1.08,0,.55.67,1,2.01,1.35,1.95.5,3.2.92,3.75,1.23,1.34.75,2.01,1.88,2.01,3.38Z"/><path class="cls-1" d="m73.57,84.73h-9.8v-14.29h9.8v2.89h-6.88v2.68h6v2.76h-6v3.07h6.88v2.89Z"/><path class="cls-1" d="m88.14,84.73h-3.17l-1.29-3.58h-4.65l-1.29,3.58h-3.15l5.49-14.29h2.54l5.53,14.29Zm-5.4-6.14l-1.39-3.83-1.37,3.83h2.76Z"/><path class="cls-1" d="m100.98,84.73h-3.4l-2.87-4.79c-.23-.4-.44-.65-.61-.78s-.47-.18-.88-.18h-.72v5.75h-2.93v-14.29h5.24c1.47,0,2.65.35,3.52,1.04.96.76,1.43,1.86,1.43,3.3,0,.89-.24,1.68-.72,2.36-.48.69-1.13,1.19-1.96,1.5l3.89,6.08Zm-4.13-9.93c0-1.02-.67-1.54-2.01-1.54h-2.37v3.13h2.37c1.34,0,2.01-.53,2.01-1.6Z"/><path class="cls-1" d="m112.77,82.25c-.85,1-1.58,1.67-2.21,2.03-.75.42-1.72.63-2.91.63-2.01,0-3.58-.74-4.71-2.21-1.01-1.34-1.51-3.04-1.51-5.12s.5-3.78,1.51-5.12c1.11-1.47,2.67-2.21,4.69-2.21,1.11,0,2.04.19,2.8.58.76.39,1.51,1.02,2.23,1.89l-2.07,2.03c-.96-1.08-1.94-1.62-2.97-1.62-1.12,0-1.96.48-2.52,1.45-.46.79-.7,1.79-.7,2.99s.23,2.2.7,2.99c.56.97,1.4,1.45,2.52,1.45s2.12-.59,3.07-1.78l2.07,2.01Z"/><path class="cls-1" d="m125.6,84.73h-2.93v-5.96h-5.1v5.96h-2.93v-14.29h2.93v5.57h5.1v-5.57h2.93v14.29Z"/></g></svg>