<?xml version="1.0" encoding="UTF-8" standalone="no"?>
<!-- Created with Inkscape (http://www.inkscape.org/) -->

<svg
   width="39.6875mm"
   height="39.6875mm"
   viewBox="0 0 39.6875 39.6875"
   version="1.1"
   id="svg5"
   xmlns="http://www.w3.org/2000/svg"
   xmlns:svg="http://www.w3.org/2000/svg"
   xmlns:rdf="http://www.w3.org/1999/02/22-rdf-syntax-ns#"
   xmlns:cc="http://creativecommons.org/ns#"
   xmlns:dc="http://purl.org/dc/elements/1.1/">
  <title
     id="title1020">Directorate General of Health Services</title>
  <defs
     id="defs2"><clipPath
   id="clip0">
  <rect
     x="274"
     y="88"
     width="481"
     height="481"
     id="rect2" />
</clipPath>

	
	
	

		
		
	</defs>
  <g
     id="layer1"
     transform="translate(-57.21587,-15.642443)">
    <g
       id="g75682"
       transform="matrix(0.36008889,0,0,0.36008889,36.613071,10.009773)">
      <g
         id="g75646">
        <path
           d="m 57.56587,70.75036 c 0,-30.241884 24.51603,-54.757917 54.75792,-54.757917 30.24189,0 54.75792,24.516033 54.75792,54.757917 0,30.24189 -24.51603,54.75792 -54.75792,54.75792 -30.24189,0 -54.75792,-24.51603 -54.75792,-54.75792 z"
           fill="#4472c4"
           fill-rule="evenodd"
           id="path1016"
           style="fill:#ffffff;fill-opacity:1;stroke:#047f3e;stroke-width:0.7;stroke-miterlimit:4;stroke-dasharray:none;stroke-opacity:1" />
        <g
           id="g74578"
           transform="translate(0.89528,-15.016318)">
          <g
             id="g74500">
            <path
               style="fill:#047f3e;fill-opacity:1;stroke:none;stroke-width:0.264583px;stroke-linecap:butt;stroke-linejoin:miter;stroke-opacity:1"
               d="m 74.999169,121.23345 c 3.7063,0.10228 7.167368,1.5942 10.500352,3.81194 -1.831301,-2.11933 -3.909388,-5.73153 -3.040192,-10.99146 2.607834,2.39531 4.899136,6.272 4.396584,12.30108 -4.635464,1.08261 -8.715692,-0.10199 -11.856744,-5.12156 z"
               id="path69895" />
            <path
               style="fill:#047f3e;fill-opacity:1;stroke:none;stroke-width:0.264583px;stroke-linecap:butt;stroke-linejoin:miter;stroke-opacity:1"
               d="m 67.597865,111.89317 c 3.573372,0.989 6.575092,3.26815 9.278237,6.22114 -1.268996,-2.49697 -2.41919,-6.50241 -0.312735,-11.39988 1.956571,2.9513 3.250254,7.26467 1.315083,12.99681 -4.759805,-0.0618 -8.436354,-2.19125 -10.280585,-7.81807 z"
               id="path70595" />
            <path
               style="fill:#047f3e;fill-opacity:1;stroke:none;stroke-width:0.264583px;stroke-linecap:butt;stroke-linejoin:miter;stroke-opacity:1"
               d="m 62.706652,100.71748 c 3.287606,1.71428 5.746443,4.57067 7.772415,8.02358 -0.718869,-2.70711 -1.006161,-6.86451 2.077725,-11.213308 1.296251,3.295168 1.659479,7.783688 -1.431426,12.984518 -4.641679,-1.05564 -7.79173,-3.90674 -8.418714,-9.79479 z"
               id="path70597" />
            <path
               style="fill:#047f3e;fill-opacity:1;stroke:none;stroke-width:0.264583px;stroke-linecap:butt;stroke-linejoin:miter;stroke-opacity:1"
               d="m 60.485984,88.766771 c 2.741922,2.495791 4.391288,5.88466 5.470012,9.739986 -0.005,-2.800931 0.777157,-6.894196 4.86784,-10.313071 0.413332,3.516753 -0.379766,7.949556 -4.694458,12.190524 -4.219168,-2.204134 -6.538255,-5.764109 -5.643394,-11.617439 z"
               id="path70599" />
            <path
               style="fill:#047f3e;fill-opacity:1;stroke:none;stroke-width:0.264583px;stroke-linecap:butt;stroke-linejoin:miter;stroke-opacity:1"
               d="m 61.040734,76.751709 c 2.073893,3.073446 2.875013,6.756251 3.011363,10.757325 0.657554,-2.722657 2.385567,-6.514828 7.168761,-8.869283 -0.430095,3.514742 -2.249039,7.634232 -7.444308,10.734481 -3.578209,-3.139428 -4.989586,-7.14687 -2.735816,-12.622523 z"
               id="path70601" />
            <path
               style="fill:#047f3e;fill-opacity:1;stroke:none;stroke-width:0.264583px;stroke-linecap:butt;stroke-linejoin:miter;stroke-opacity:1"
               d="m 64.733282,64.729254 c 1.128215,3.531888 1.050896,7.946344 0.129281,10.936277 1.543908,-2.114591 4.323482,-5.416047 9.112136,-6.267676 -1.399006,3.252872 -3.926576,6.883594 -9.783032,8.401581 -2.553588,-4.017309 -3.158012,-8.446869 0.541615,-13.070182 z"
               id="path70603" />
            <path
               style="fill:#047f3e;fill-opacity:1;stroke:none;stroke-width:0.264583px;stroke-linecap:butt;stroke-linejoin:miter;stroke-opacity:1"
               d="M 68.047525,69.684635 C 67.29976,63.526406 70.243764,58.79761 74.7944,57.61302 74.342339,63.185464 70.813202,67.948496 68.047525,69.684635 Z"
               id="path70948" />
            <path
               style="fill:#047f3e;fill-opacity:1;stroke:none;stroke-width:0.264583px;stroke-linecap:butt;stroke-linejoin:miter;stroke-opacity:1"
               d="m 84.447146,127.50093 c 2.426465,0.87326 9.604901,3.86601 20.440074,2.22685 1.05588,-0.15973 2.73899,-0.0915 3.73923,0.28264 4.82386,1.80419 10.61843,5.30538 11.9574,6.4319 h 1.63711 c -3.79557,-2.9233 -10.40281,-6.23935 -14.93242,-8.03672 -6.4406,-2.55566 -20.129399,-1.43195 -22.841394,-0.90467 z"
               id="path71537" />
          </g>
          <g
             id="g74558"
             transform="matrix(-1,0,0,1,222.85702,0)">
            <path
               style="fill:#047f3e;fill-opacity:1;stroke:none;stroke-width:0.264583px;stroke-linecap:butt;stroke-linejoin:miter;stroke-opacity:1"
               d="m 74.999169,121.23345 c 3.7063,0.10228 7.167368,1.5942 10.500352,3.81194 -1.831301,-2.11933 -3.909388,-5.73153 -3.040192,-10.99146 2.607834,2.39531 4.899136,6.272 4.396584,12.30108 -4.635464,1.08261 -8.715692,-0.10199 -11.856744,-5.12156 z"
               id="path74542" />
            <path
               style="fill:#047f3e;fill-opacity:1;stroke:none;stroke-width:0.264583px;stroke-linecap:butt;stroke-linejoin:miter;stroke-opacity:1"
               d="m 67.597865,111.89317 c 3.573372,0.989 6.575092,3.26815 9.278237,6.22114 -1.268996,-2.49697 -2.41919,-6.50241 -0.312735,-11.39988 1.956571,2.9513 3.250254,7.26467 1.315083,12.99681 -4.759805,-0.0618 -8.436354,-2.19125 -10.280585,-7.81807 z"
               id="path74544" />
            <path
               style="fill:#047f3e;fill-opacity:1;stroke:none;stroke-width:0.264583px;stroke-linecap:butt;stroke-linejoin:miter;stroke-opacity:1"
               d="m 62.706652,100.71748 c 3.287606,1.71428 5.746443,4.57067 7.772415,8.02358 -0.718869,-2.70711 -1.006161,-6.86451 2.077725,-11.213308 1.296251,3.295168 1.659479,7.783688 -1.431426,12.984518 -4.641679,-1.05564 -7.79173,-3.90674 -8.418714,-9.79479 z"
               id="path74546" />
            <path
               style="fill:#047f3e;fill-opacity:1;stroke:none;stroke-width:0.264583px;stroke-linecap:butt;stroke-linejoin:miter;stroke-opacity:1"
               d="m 60.485984,88.766771 c 2.741922,2.495791 4.391288,5.88466 5.470012,9.739986 -0.005,-2.800931 0.777157,-6.894196 4.86784,-10.313071 0.413332,3.516753 -0.379766,7.949556 -4.694458,12.190524 -4.219168,-2.204134 -6.538255,-5.764109 -5.643394,-11.617439 z"
               id="path74548" />
            <path
               style="fill:#047f3e;fill-opacity:1;stroke:none;stroke-width:0.264583px;stroke-linecap:butt;stroke-linejoin:miter;stroke-opacity:1"
               d="m 61.040734,76.751709 c 2.073893,3.073446 2.875013,6.756251 3.011363,10.757325 0.657554,-2.722657 2.385567,-6.514828 7.168761,-8.869283 -0.430095,3.514742 -2.249039,7.634232 -7.444308,10.734481 -3.578209,-3.139428 -4.989586,-7.14687 -2.735816,-12.622523 z"
               id="path74550" />
            <path
               style="fill:#047f3e;fill-opacity:1;stroke:none;stroke-width:0.264583px;stroke-linecap:butt;stroke-linejoin:miter;stroke-opacity:1"
               d="m 64.733282,64.729254 c 1.128215,3.531888 1.050896,7.946344 0.129281,10.936277 1.543908,-2.114591 4.323482,-5.416047 9.112136,-6.267676 -1.399006,3.252872 -3.926576,6.883594 -9.783032,8.401581 -2.553588,-4.017309 -3.158012,-8.446869 0.541615,-13.070182 z"
               id="path74552" />
            <path
               style="fill:#047f3e;fill-opacity:1;stroke:none;stroke-width:0.264583px;stroke-linecap:butt;stroke-linejoin:miter;stroke-opacity:1"
               d="M 68.047525,69.684635 C 67.29976,63.526406 70.243764,58.79761 74.7944,57.61302 74.342339,63.185464 70.813202,67.948496 68.047525,69.684635 Z"
               id="path74554" />
            <path
               style="fill:#047f3e;fill-opacity:1;stroke:none;stroke-width:0.264583px;stroke-linecap:butt;stroke-linejoin:miter;stroke-opacity:1"
               d="m 84.447146,127.50093 c 2.426465,0.87326 9.604901,3.86601 20.440074,2.22685 1.05588,-0.15973 2.73899,-0.0915 3.73923,0.28264 4.82386,1.80419 10.61843,5.30538 11.9574,6.4319 h 1.63711 c -3.79557,-2.9233 -10.40281,-6.23935 -14.93242,-8.03672 -6.4406,-2.55566 -20.129399,-1.43195 -22.841394,-0.90467 z"
               id="path74556" />
          </g>
        </g>
      </g>
      <g
         id="g21828"
         transform="translate(-160.30289,-20.995369)">
        <path
           d="m 245.79422,91.74573 c 0,-14.819119 12.01334,-26.832459 26.83246,-26.832459 14.81912,0 26.83246,12.01334 26.83246,26.832459 0,14.81912 -12.01334,26.83246 -26.83246,26.83246 -14.81912,0 -26.83246,-12.01334 -26.83246,-26.83246 z"
           fill="#4472c4"
           fill-rule="evenodd"
           id="path850"
           style="fill:#ed1b24;fill-opacity:1;stroke-width:0.111801" />
        <g
           id="g21817">
          <g
             id="g263"
             transform="matrix(0.17784186,0,0,0.17784186,228.61825,46.112303)"
             style="fill:#ffffff;fill-opacity:1">
			<path
   id="path257"
   d="m 225.5,324.8 c -0.1,-0.9 -0.6,0.3 -0.7,0.6 -0.1,0.3 -0.2,1.3 -0.7,1.5 -0.7,0.3 -0.4,-0.6 -0.4,-1 0.1,-0.6 0.3,-0.9 -0.5,-1.1 -0.3,0.3 -0.2,0.7 -0.5,1.1 -0.4,0.6 -0.6,0.4 -0.3,1 0.2,0.3 0.7,0.7 0.9,1 0.4,0.6 0.5,1.2 0.8,1.8 0.5,1.2 0.7,2 0.7,3.4 0,0.8 -0.1,1.7 0,2.5 -0.4,0 -0.8,-1 -1,-1.1 -0.5,0 -0.3,0.9 -0.5,1.3 -0.3,0.3 -0.3,0.6 -0.7,0.8 -0.8,0.6 -0.4,0.5 -1.8,0 -0.4,-0.2 -0.3,-0.5 -0.2,-0.9 0.1,-0.6 -0.1,-0.6 -0.4,-1 -0.2,-0.3 -0.6,-0.9 -0.6,-1.2 0,-0.5 0.6,-0.9 0.3,-1.5 -0.3,-1.3 -1.4,0.4 -1.6,1 0,0.2 -0.2,0.8 -0.1,1 0.2,0.6 0.7,0.4 1,0.8 0.3,0.3 0.4,0.7 0.3,1.1 -0.3,0.9 -2,1.1 -2.5,0.5 -0.3,-0.3 -0.3,-0.7 -0.2,-1 0.1,-0.2 0.3,-0.4 0.5,-0.5 0.1,-0.4 0,-1 0.1,-1.4 0.1,-0.7 0.5,-1.8 0.4,-2.7 -0.1,-0.6 -0.2,-0.3 -0.4,0.1 -0.4,0.5 -0.3,1.5 -1,1.4 -0.4,-0.1 -0.6,-0.6 -1,-0.7 -0.4,-0.2 -0.8,-0.1 -1.2,-0.1 -0.6,0 -2,0.3 -2,-0.5 0,-0.4 0.4,-0.5 0.5,-0.9 0,-0.2 0,-0.4 0,-0.7 0.2,-0.7 0.4,-0.4 0.8,-0.8 1,-0.8 0.3,-3.7 -0.6,-2.4 -0.5,0.7 -0.7,3.4 -2,3.2 -0.3,0 0.6,-2 0.6,-2.2 0.1,-0.8 0.1,-1.8 -0.3,-2.5 -0.5,-0.9 0,-1.7 -0.5,-2.6 -0.4,-0.8 -1.3,-1 -1.7,-0.2 -0.2,0.4 0.1,0.8 -0.2,1.2 -0.3,0.4 -0.6,0.5 -0.5,1.2 0.2,0.7 1.1,1.1 1.2,1.9 0.3,1.1 -0.8,1.1 -0.4,2.3 0.3,0.8 0.8,1.4 0.9,2.1 0.2,0.6 0.2,2.2 -0.4,2.5 -1,0.6 -0.9,-1.3 -1.4,-1.6 -1.2,-0.8 -1,1.1 -0.8,1.7 0.4,0.8 0.8,1.4 0.8,2.3 0,0.8 -0.2,1.4 -0.1,2.1 0.2,0.7 0.5,1.4 -0.3,1.8 -0.4,0.3 -0.7,0.4 -1,0.7 -0.3,0.4 -0.5,0.5 -0.9,0.6 -1.6,0.4 -1.3,-0.3 -1.6,-1.3 -0.1,-0.5 -0.9,-0.8 -0.6,-1.6 -0.3,-0.2 -0.9,-0.4 -0.9,-1 0,-0.6 0.3,-0.3 0.6,-0.6 0.7,-0.4 1.5,-1 1.7,-1.9 0.1,-0.3 0,-1 -0.1,-1.4 -0.1,-0.7 -0.3,-0.7 -0.6,-1.2 -0.4,-0.5 -0.4,-1.1 -0.6,-1.6 0,-0.3 -0.1,-1.6 -0.5,-1.7 -1.2,-0.6 -1,1.7 -0.7,2.4 0.3,0.6 1.3,1.2 1,1.9 -0.2,0.4 -0.7,0.6 -0.9,0.9 -0.3,0.5 -0.3,1.1 -0.7,1.5 -1.1,1.6 -0.6,-2.2 -0.7,-2.6 -0.2,-1.1 -1.1,-0.9 -1.9,-1.7 -0.5,-0.6 -0.5,-0.9 0,-1.5 0.2,-0.2 1.2,0 1.3,-0.4 0,-0.2 -1.2,-0.2 -1.2,-0.3 -0.1,-0.2 -0.1,-0.3 -0.1,-0.6 -0.1,-0.8 0.6,-1.8 0.4,-2.6 -0.1,-0.5 -1.7,-1.6 -2.2,-1 -0.4,0.4 1.2,1.5 0.9,2.4 -0.3,0.9 -1,0.7 -1.6,0.3 -1.4,-0.6 -0.6,-1.7 -1.6,-2.3 -0.6,0.6 -0.2,1.8 -0.3,2.5 0,0.8 -0.2,1.4 -0.4,2 -0.3,0.9 -0.3,1.4 0.5,1.8 0.7,0.5 1.2,0.8 1.3,1.8 0.1,0.8 -0.2,1.5 -0.7,2.2 -0.5,0.6 -0.7,1.3 -1.1,1.9 -0.2,0.2 -0.6,0.5 -0.9,0.4 -0.5,-0.2 -0.1,-0.6 -0.1,-0.8 0.1,-1 0.3,-1.4 -0.2,-2.3 -0.7,-1.4 -0.1,-2.9 -0.6,-4.2 -0.3,-1 -0.8,-1.3 -1.3,-2.2 -0.8,-1.4 0.5,-1.3 1.1,-2 0.3,-0.4 0.8,-1 0.7,-1.4 -0.1,-0.6 -1.5,-1.1 -1.5,-1.7 0,-0.6 0.7,-1 1,-1.5 0.4,-0.9 0.9,-0.8 -0.2,-1.8 -0.5,-0.7 0.2,-1.3 0,-1.9 -0.2,-1 -1.6,-1.4 -2.1,-2.3 -0.2,-0.5 -0.8,-1.3 -0.6,-1.9 0.3,-0.8 1.1,-0.8 1.1,-1.7 -0.1,-0.8 -1.1,-1.2 -1.2,-2.1 -0.1,-0.8 0.6,-1.6 0.8,-2.4 0.2,-1 0.1,-1.9 -0.5,-2.9 -0.3,-0.4 -1.4,-1.1 -1.4,-1.6 0.1,-0.5 0.7,-0.5 0.8,-0.9 0.4,-0.4 0.2,-0.5 0,-1 -0.2,-0.5 -0.2,-0.9 -0.5,-1.4 -0.5,-0.9 0.1,-1.1 0.3,-2.2 0.1,-0.4 0.4,-0.8 -0.2,-1.3 -0.3,-0.3 -1.1,-0.5 -1.3,-0.9 -0.3,-0.7 0.8,-1.1 1.2,-1.4 0.5,-0.4 1.4,-1 1.6,-1.7 0.1,-0.7 -0.9,-1.5 -1.4,-2 -0.2,-0.3 -0.9,-0.5 -1.1,-0.8 -0.2,-0.4 0,-0.6 0,-1 0,-0.7 -0.7,-1.3 -1.1,-2.1 -0.2,-0.7 -0.9,-2 -0.7,-2.7 0.1,-0.4 0.3,-0.3 0.5,-0.6 0.2,-0.3 0.2,-0.5 0.2,-0.9 0.1,-0.8 0,-1.5 0.5,-2.3 0.4,-0.8 0.8,-1.5 1.7,-1.7 0.7,-0.1 1.9,0.1 1.9,-1.4 0,-0.6 -0.4,-0.2 -0.9,-0.5 -0.6,-0.4 -0.8,-1.4 -1.4,-1.8 -0.7,-0.4 -0.6,0.2 -1.2,0.5 -0.9,0.4 -1.1,-0.6 -1.6,-1.1 -1.1,-0.9 -1.1,-0.2 -1.1,0.8 0,1.2 -0.5,1 -1.1,0.2 -0.4,-0.6 -0.9,-1.1 -1.6,-1.3 -0.9,-0.4 -1.6,-0.6 -2.3,-1.3 -0.2,-0.3 -0.4,-1.6 -0.1,-1.9 0.7,-0.7 1.6,0.9 2.3,0.8 1.7,-0.2 -0.6,-1.6 -0.8,-2 -0.4,-1 0.8,-0.9 1.3,-1.4 0.4,-0.4 0.2,-0.4 0.2,-0.8 0.3,-0.6 0.3,-0.5 0.9,-0.8 0.6,-0.5 1.4,-1.4 1.5,-2.2 0.1,-0.6 -0.2,-1.9 -1,-1.2 -0.4,0.4 -0.3,1 -1,1.2 -0.5,0.2 -1.2,0.1 -1.7,0 -2,-0.5 0,-0.9 -0.4,-1.9 -0.2,-0.5 -1.4,-0.6 -1.7,-1 -0.3,-0.3 -0.3,-0.8 -0.3,-1.3 -0.3,-0.4 -1,-1 -1.7,-0.9 -0.5,0.1 -0.7,0.8 -1,0.5 -0.1,-0.3 0.1,-0.8 0.3,-1.1 0.4,-0.6 0,-1.2 -0.5,-1.6 -1,-0.5 0,2.7 -1.1,2.6 -1.3,-0.2 -0.6,-2.4 -0.3,-3 0.2,-0.5 0.4,-1 0.7,-1.4 0.4,-0.4 1,-0.6 1.5,-1 0.3,-0.4 0.5,-1 0.3,-1.4 -0.4,-0.7 -1.8,-0.3 -1.8,-1.2 0.8,-0.8 2.1,0.3 2.5,-0.9 0.2,-0.9 -0.6,-1.4 -1.1,-2 -1.3,-1.5 0.3,-1 1.4,-0.6 0.8,0.2 2.3,0.1 3.1,-0.1 1.1,-0.3 1.3,-1.2 1.7,-2.1 0.2,-0.6 1.2,-1.6 1.1,-2.1 -0.4,-0.2 -0.7,-0.7 -0.7,-1 0,-0.4 0.3,-0.5 0.4,-0.8 0.2,-0.7 -0.2,-1.4 -0.3,-1.9 -0.2,-0.5 -0.1,-0.5 -0.5,-0.9 -0.3,-0.3 -1.6,-0.7 -1.7,-1 -0.3,-0.8 1,-0.4 1.5,-0.5 2.4,-0.2 1.6,-3.6 1.5,-4.9 -0.1,-1.3 -0.9,-2.7 -2.2,-2.9 -0.5,-0.1 -1,-0.1 -1.5,0 -0.8,0.1 -1.6,-0.1 -2.5,-0.1 -1.1,-0.1 -1.1,-0.3 -1.8,-0.8 -1.6,-1 -3.6,-0.3 -5.5,-0.9 -1.4,-0.5 -2.9,-1 -3.9,-2.1 -1.6,-1.6 -4.1,-2.5 -5.6,-4.6 -0.4,-0.5 -0.9,-0.9 -1.3,-1.3 -0.4,-0.4 -0.3,-0.8 -0.7,-1.3 -0.5,-0.5 -0.9,-1.2 -1,-1.8 0,-0.9 -0.5,-1.3 -1.2,-1.8 -0.4,-0.3 -1.1,-0.8 -1.1,-1.4 0,-0.8 0.8,-0.8 1.3,-1.2 0.7,-0.4 1,-0.9 1.4,-1.6 0.6,-0.9 0.9,-1.8 1.6,-2.6 0.5,-0.6 1,-1 1.6,-1.4 0.8,-0.4 2,0 2,-1.2 -0.1,-0.9 -1,-1.2 -1.6,-1.8 -1.4,-1.1 0.8,-1.9 1.9,-1.8 1.1,0 1.5,1.1 2.3,1.7 1,0.8 1.8,1.6 3,2 0.7,0.1 1.2,-0.1 0.9,-0.9 -0.3,-0.7 -1.6,-1 -2,-1.6 0.4,-0.4 1.2,0.3 1.7,0 0.7,-0.4 -0.1,-1.2 0.1,-1.5 0.6,-0.7 1.8,0.6 2.1,0.7 1,0.1 0.7,-1 0.6,-1.5 -0.1,-1 0.5,-1.4 1,-2.2 0.4,-0.7 0.7,-1.9 0.6,-2.8 -0.2,-1.3 -1.7,-3.2 0,-4.1 0.6,-0.3 1.3,-0.2 1.9,-0.1 1.4,0.1 1.4,0.4 2,1.4 1,1.9 2.3,-0.4 3,-1.1 0.9,-0.1 0.8,0.7 1.4,1 0.2,0.2 0.5,0.3 0.7,0.3 0.5,-0.1 0.6,-0.8 0.9,-1 0.9,-0.3 1.9,0.8 2.6,1.1 0.9,0.5 1,0.4 1.8,-0.2 1.1,-1 1.3,-0.8 1.4,-0.1 0,0.6 0.4,0.6 1.2,0.7 0.3,0.1 0.8,0.2 1.2,0 0.7,-0.1 1.3,-1 1.3,-1.6 0,-0.9 0.2,-0.9 0.8,-1.5 0.6,-0.6 1,-1.7 0.4,-2.4 -0.3,-0.3 -0.8,-0.6 -1.2,-0.7 -0.8,-0.1 -1.5,0.4 -2.2,0.1 -0.5,-0.2 -0.7,-1 -1,-1.4 -0.4,-0.4 -0.9,-0.6 -1.2,-1 -1.4,-1.8 1.8,-2.1 0.7,-3.5 -0.5,-0.6 -0.7,-1.3 -1.1,-1.9 -0.3,-0.4 -1.1,-1.6 -1.6,-1 -0.4,0.4 0.9,1.6 -0.3,1.4 -0.5,0 -0.7,-0.5 -1,-0.8 -0.5,-0.4 -0.4,-0.4 -0.9,-0.1 -0.8,0.5 -1.4,1.5 -2.6,1.1 -0.8,-0.3 -1.3,-1.3 -2.1,-1.7 -0.9,-0.5 -2,-0.1 -2.8,-0.5 -0.9,-0.5 -0.5,-1.2 -0.8,-1.7 -0.4,-0.9 -1.4,-0.6 -2.1,-1 -0.5,-0.3 -0.5,-1.4 0.3,-1.2 0.2,-0.7 -0.6,-1.7 -1,-2.3 -0.6,-0.9 -1.9,-0.4 -2.8,-1.2 -1,-0.6 -1.5,-1.7 -2,-2.7 -0.5,-0.7 -0.8,-1.9 -1.5,-2.3 -0.9,-0.4 -0.8,0.6 -1.4,0.9 -0.5,0.2 -0.7,-0.1 -1,-0.1 -0.4,0.1 -0.7,0.3 -0.9,0.4 -0.7,0 -1.7,-0.9 -2.2,-1.4 -0.6,-0.6 -0.7,-1 -0.8,-1.8 -0.1,-0.6 -0.2,-1.2 -0.3,-2 -0.2,-0.7 1.3,-0.8 1.2,-1.4 0,-0.7 -1.2,-0.5 -1,-1.5 0.1,-0.4 0.5,-0.4 0.7,-0.7 0.1,-0.3 0.2,-0.5 0.3,-0.8 0.3,-0.3 1.2,-0.6 1.5,-0.8 0.4,-0.3 1,-0.5 1.4,-0.9 0.5,-0.5 0.9,-0.9 0.2,-1.2 l -0.5,-0.1 c -0.6,-0.2 -2,-0.6 -1.6,-1.6 0.3,-0.5 1.2,-0.3 1.8,-0.6 0.6,-0.3 0.3,-0.6 0.4,-1 0.3,-0.5 0.6,-0.5 1.2,-0.8 0.7,-0.3 1.4,-1.1 2.2,-1.1 0.4,0 1.6,0.6 1.9,0 0.2,-0.2 -0.1,-0.6 -0.1,-0.8 0.1,-0.5 0.1,-0.5 0.4,-0.9 0.2,-0.3 0.2,-0.5 0.3,-0.8 0.3,-0.6 0.9,-1 1.4,-1.5 0.4,-0.4 0.9,-1.3 1.4,-1.5 1.5,-0.5 5.7,1.8 4.9,-1.2 -0.1,-0.6 -1.6,-1 -1.8,-1.6 -0.2,-0.8 0.9,-0.5 1.4,-0.6 0.2,-1.3 -1.9,-1.8 -2.8,-2.1 -1.1,-0.2 -3,0.8 -4,-0.2 -1,-0.9 0.1,-3.4 0.8,-4.5 0.5,-0.9 2.1,-3.9 3.2,-2.4 0.5,0.7 0.1,1.7 0.1,2.4 0,1.1 0.6,1.5 1.6,2.1 1.1,0.5 1.3,0.7 1.8,1.7 0.3,0.5 0.5,1.4 1.2,1.4 4.7,-0.2 4.2,1.9 3.8,2 -0.8,0.3 3.2,2.8 3.4,4.8 0,0.3 0.3,0.7 0.6,0.9 0.4,0.4 0.4,0.2 0.8,0.4 1,0.5 1.5,1.3 2,2.3 0.9,0.4 1.8,-1.1 2,-1.5 0.8,-1 0.8,0.9 1.3,1.3 0.5,0.3 1.8,0.6 2.2,-0.1 0.4,-0.9 -1.4,-1.2 -1.1,-2.2 0.9,-0.8 3,2.2 4.4,1.1 1.1,-0.9 -1.9,-2.5 -2.8,-3 -1.7,-1.1 -3.2,-2 -1.4,-3.9 0.8,-1 0.7,-0.5 1.4,0.3 0.6,0.9 1.4,1.3 2.3,1.3 1.8,-0.1 2.6,-0.6 1.9,1.4 -0.3,0.8 0,1.2 0.6,1.8 0.5,0.7 -0.2,0.8 -0.6,1.3 -0.5,0.6 0.4,1.4 1,1.6 0.3,0.2 0.7,0.2 0.8,0.6 0.2,0.3 0.1,0.8 0.1,1.1 0,0.8 -0.7,1.9 -0.1,2.6 0.5,0.4 0.5,0.9 1.1,1.1 0.5,0.2 1.2,0.2 1.8,0.3 0.4,0.1 0.6,0.4 0.9,0.6 0.4,0.4 0.6,0.9 1,1.4 0.2,0.2 0.5,0.3 0.7,0.6 0.3,0.4 0.5,0.8 0.9,1 0.6,0.3 1,0.6 1.7,0.7 0.6,0.2 1.5,0.1 2.3,0.1 0.5,0 1.1,-0.1 1.5,0.3 0.5,0.4 0.2,1.4 1,1.5 0.8,0 0.6,-0.2 1.1,-0.7 0.3,-0.3 1.3,-0.1 1.7,0.2 0.4,0.3 0.8,1.4 1.2,0.4 0.2,-0.3 0.4,-0.7 0.3,-1.1 0,-0.4 -0.3,-0.6 -0.4,-0.9 -0.2,-1.3 1.5,-1 2.2,-0.9 1,0.1 1.5,-0.9 1,-1.7 -0.5,-0.7 -3.8,-1.3 -2.4,-2.7 0.3,-0.2 0.6,-0.4 1,-0.6 0.4,-0.1 1,0 1,-0.4 0.2,-0.6 -0.3,-1.5 0.5,-1.7 0.2,0 0.5,0 0.8,-0.1 0.2,-0.1 0.3,-0.2 0.5,0 0.4,0.2 0.5,0.6 0.9,0.9 0.2,0.4 0.5,0.7 0.8,1.1 0.3,0.4 0.6,0.6 1,0.9 0.3,0.2 0.5,0.7 0.6,1 0.1,0.7 0.5,1.4 0.5,2.1 0.2,1 -0.5,1.6 -0.8,2.5 -0.1,0.1 0,0.7 0.1,0.9 0.1,0.2 0.3,0 0.5,0 0.7,0 1.2,-0.7 1.8,0 0.4,0.3 1,0.7 1,1.2 0,0.7 -0.3,1 -0.8,1.4 -0.7,0.6 0,1.1 -0.2,1.8 -0.2,0.6 -0.5,1.2 -0.8,1.8 -0.2,0.5 -0.5,1.1 -0.3,1.6 0.1,0.6 0.6,1.2 0.7,1.8 0.2,0.7 0.2,1.1 -0.1,1.7 -0.3,0.6 -0.7,1.2 -0.7,1.8 -0.1,0.6 0.4,1 0.8,1.3 0.4,0.1 0.5,0.4 0.6,0.7 0.3,0.5 0.3,1.1 0.4,1.7 0.1,1.5 0.2,3 0,4.5 -0.1,0.9 -0.3,1.7 -0.6,2.6 -0.1,0.4 -0.3,0.8 -0.6,1 -0.2,0.3 -0.5,0.5 -0.8,0.8 -0.2,0.2 -0.1,0.5 -0.2,0.8 0,0.8 0.6,1.8 0.3,2.5 -0.1,0.3 -0.8,1.6 -0.3,1.7 0.2,0 0.6,-0.3 0.7,-0.5 0.3,-0.2 0.6,-0.3 0.9,-0.4 0.6,-0.2 0.9,-0.5 1.5,-0.2 0.6,0.2 1.2,0.6 1.9,0.8 0.9,0.3 1.8,0.6 2.8,1.1 0.4,0.2 1,0.3 1.3,0.6 0.2,0.2 0.3,0.5 0.5,0.8 0.3,0.2 0.7,0.4 0.9,0.7 0.6,0.4 1.4,0.4 2.1,0.5 0.6,0.1 1.4,0.2 2,0.4 0.8,0.2 1.7,0.3 2.5,0.5 0.8,0.2 1.4,0.7 2.2,1 0.6,0.2 0.9,0.6 1.4,0.9 0.6,0.3 1.6,0.3 2.2,0.1 1,-0.1 1.6,0.2 2.5,0.1 0.7,-0.1 1,-0.2 1.5,-0.3 0.6,-0.1 1.3,-0.1 1.8,0 0.8,0 1.4,0.1 2.1,0 0.6,-0.1 1,-0.2 1.5,-0.3 0.5,0 1,0.1 1.4,0.4 0.5,0.6 1.5,1.1 2.1,0.4 0.4,-0.4 0.3,-1 1,-1.1 0.6,-0.2 1.2,0.2 1.4,0.6 1.5,2 5.7,1.8 7.4,0.3 1.6,-1.5 4.4,-1.5 6.2,-0.5 0.7,0.3 1.4,0.1 1.9,-0.3 0.6,-0.3 1,-0.7 1.6,-0.5 0.2,0 0.3,0.1 0.5,0.1 0.3,0.1 0.6,0.2 0.9,0.4 0.3,0.3 0.5,0.6 0.7,0.8 0.5,0.6 0.9,1 1.7,1.1 1.2,0.1 2.6,-0.3 3.8,0.3 1,0.6 2.1,0.6 3.2,0.6 0.6,0.1 1.3,0.2 1.9,-0.1 0.4,-0.3 0.8,-0.4 1,-0.7 0.3,-0.3 0.5,-0.6 0.7,-0.6 0.5,-0.1 0.8,0.3 0.8,0.7 -0.1,0.5 -0.1,0.5 -0.1,0.9 -0.1,0.9 1.9,0.5 2.5,0.2 0.5,-0.2 1.2,-0.1 1.9,-0.2 0.6,-0.2 1.1,-0.6 1.6,-0.9 0.9,-0.5 2.5,-0.2 3.5,-0.1 1.1,0.1 2.2,0.2 3.3,0 0.5,-0.1 1,0 1.5,-0.1 0.3,0 0.8,0 1.1,-0.1 0.2,-0.1 0.4,-0.2 0.6,-0.3 1,-0.4 2,0.3 2.8,1.1 0.2,0.3 0.5,0.5 0.7,0.6 0.6,0.3 1.3,0 1.9,0.2 0.3,0.1 0.7,0.4 1,0.8 0.1,0.1 0.1,0.3 0.2,0.5 0.2,0.3 0.5,0.6 0.7,0.8 0.6,0.4 1,1.2 1.7,1.3 0.5,0.1 0.8,0.2 1.2,0 0.5,-0.2 0.8,-0.5 1.4,-0.5 1,0 1.9,0.4 2.6,1.1 0.3,0.4 0.7,0.9 1,1.5 0.1,0.3 0.1,0.7 0.3,1.1 0.3,0.4 0.3,1.1 0.6,1.4 0.5,0.5 1.3,-0.5 1.8,-0.2 0.1,0.2 0.5,0.7 0.6,1 0.2,0.4 0,1 0.2,1.4 0.1,1 -0.2,1.7 -0.9,2.4 -0.6,0.5 -1.5,0.6 -2.1,0.3 -0.4,-0.3 -0.9,-0.3 -1.2,-0.5 -0.1,-0.1 -0.3,-0.2 -0.6,-0.4 -0.2,-0.2 -0.6,-0.3 -0.9,-0.6 -0.2,-0.3 -0.5,-0.6 -0.9,-0.8 -0.4,-0.3 -0.8,-1 -1.3,-1.1 -0.5,-0.1 -0.9,0.5 -1,0.9 0,0.6 -0.1,1.3 -0.3,1.8 -0.1,0.3 -0.5,0.3 -0.6,0.5 -0.4,0.7 0.6,1.8 0.7,2.4 0.1,0.8 -0.1,1.6 -0.2,2.4 -0.3,0.7 -0.9,1.3 -1.4,1.9 -0.5,0.7 -0.8,1.5 -1,2.3 -0.1,0.5 -0.1,1 -0.1,1.5 0,0.9 0.1,2 0.4,2.9 0.2,0.4 0.4,0.9 0.3,1.2 0,0.4 -0.4,0.3 -0.7,0 -0.3,-0.3 -0.6,-0.9 -0.9,-1.3 -0.2,-0.4 -0.8,-0.9 -1.2,-0.9 -1.3,0.1 -0.3,2.1 -0.1,2.8 0.4,1 0.8,2.7 -0.6,3.3 -1,0.4 -2.4,0.3 -3.5,0 -0.3,-0.1 -1.4,-0.5 -1.6,-0.6 -0.3,-0.1 -1.2,-0.5 -1.6,-0.2 -0.6,0.7 0.7,2 1,2.3 0.3,0.6 -0.3,0.5 -0.8,0.3 -0.4,0 -0.9,-0.1 -1.4,-0.2 -1,0 -1,0.6 -1,1.3 0,1.4 0.6,2.7 0.1,4 -0.3,0.6 -0.7,2.4 -1.5,2.3 -0.3,0 -0.6,-0.7 -0.6,-0.9 0,-0.2 0.1,-0.3 0.3,-0.4 0.1,-0.4 0.1,-0.9 0,-1.3 -0.3,-0.8 -0.6,-1.1 -1.4,-1 -0.7,0 -0.7,0.3 -1.1,0.7 -0.2,0.3 -0.5,0.4 -0.8,0.5 -0.9,0.1 -0.8,-0.7 -1.1,-1.1 -0.4,-0.5 -1.1,-0.7 -1.6,0.1 -0.6,1 0.5,2.3 0.2,3.4 -0.2,0.5 -0.8,0.6 -1.3,0.4 -0.6,-0.3 -0.8,-1.1 -1,-1.6 -0.1,-0.6 -0.5,-1.5 -1.3,-1.2 -0.5,0.2 -0.4,0.8 -0.5,1.3 -0.2,1.4 -0.3,3 -1.5,3.9 -0.2,0.1 -0.5,0.2 -0.7,0.3 -0.9,0 -1.4,-0.3 -2.2,-0.4 -0.4,-0.1 -1.1,0.1 -1.6,0 -0.4,-0.1 -0.8,-0.4 -1.1,-0.5 -0.4,-0.3 -0.9,-0.3 -1.4,-0.4 -0.5,-0.2 -1.6,-0.5 -2,0.1 -0.3,0.6 0,1.4 0.1,1.5 0.2,0.5 0.6,0.7 0.8,1.1 0.1,0.5 -0.6,0.7 -0.8,1 -0.3,0.3 -0.6,0.9 -0.9,1.1 -0.4,0.2 -0.8,-0.4 -1.2,-0.4 -0.7,-0.1 -1,0.1 -1.4,0.6 -0.3,0.4 -0.7,0.9 -0.4,1.3 0.5,0.5 0.6,0.8 0.3,1.3 -0.2,0.6 -0.7,0.3 -1.3,0.4 -0.7,0 -1.2,0.3 -1.3,1 -0.3,0.5 0,0.8 0.3,1.2 0.3,0.5 0.7,1 0.6,1.7 0,0.5 -0.5,0.8 -0.6,1.3 -0.1,0.5 0.3,1.3 -0.3,1.6 -0.8,0.3 -1.5,-0.2 -1.8,0.8 -0.1,0.4 0.1,0.9 0.2,1.2 0.3,0.4 0.6,0.7 0.8,1.2 0.2,0.9 -0.3,1.5 -1.2,1.8 -0.7,0.1 -1.4,0.5 -1.3,1.3 0.1,0.5 0.4,0.9 0.9,1.2 0.4,0.2 0.7,0.3 1.2,0.5 0.5,0.2 0.5,0.3 0.5,0.9 0,0.5 -0.1,1 -0.1,1.5 -0.1,0.8 0.4,1.2 0.9,1.8 0.5,0.5 0.9,1 1.2,1.7 0.1,0.3 0.4,0.4 0.6,0.7 0.2,0.3 0,0.8 0.1,1.2 0,0.4 0.1,0.4 0.4,0.6 0.2,0.2 0.5,0.4 0.4,0.7 -0.2,0.6 -0.7,0.4 -0.5,1.2 0,0.3 0,0.4 0.1,0.6 0.2,0.3 0.2,0.9 0.6,1.2 1.3,1.3 0.7,2.7 0.9,4.4 0.2,0.8 0.2,1.3 0.2,2 0.1,0.9 0.1,2 0.6,2.7 0.3,0.5 0.7,0.5 1.1,0.7 0.9,0.3 1.5,-0.4 1.6,-1.3 0.1,-0.3 0,-0.6 -0.1,-0.9 -0.1,-0.2 -0.3,-0.4 -0.4,-0.6 -0.4,-0.3 -0.8,-0.4 -1,-0.8 -0.2,-0.4 -0.4,-1.2 -0.3,-1.5 0.1,-0.8 0.1,-1.5 0.1,-2.2 0,-0.6 0,-2.3 0.9,-2.5 0.6,0 0.8,1.3 1,1.6 0.4,0.6 0.9,1.1 1.4,1.6 0.3,0.4 0.6,1 1.1,1.4 0.4,0.3 1.1,0.3 1,0.7 -0.1,0.3 -0.6,0.7 -0.8,1 -0.6,1.1 1,2.2 1.4,3.1 0.2,0.4 -0.3,0.7 -0.1,1 0.2,0.2 0.3,0.3 0.4,0.5 0.2,0.6 0.1,1.3 0.1,2 0,0.4 -0.1,0.8 -0.1,1.2 0,0.5 -0.3,1.6 0.5,1.6 0.5,0.1 0.9,-0.7 1.3,-1 0.1,-0.2 0.7,-0.8 1,-0.9 0.5,-0.1 0.6,0.7 1,0.9 0.4,0.3 0.3,0.2 0.4,-0.2 0.1,-0.1 0.2,-0.2 0.2,-0.4 0.1,-0.2 -0.1,-0.4 0.1,-0.6 0.2,-0.3 1,-0.1 1.4,-0.1 0.6,0 1.4,-0.3 1.9,-0.4 1.2,-0.6 2.2,-1.5 3.1,-2.7 0.3,-0.3 0.5,-0.6 0.6,-1 0.1,-0.5 0.4,-0.6 0.6,-1 0.3,-0.4 0.3,-0.8 0.3,-1.3 -0.1,-1 -0.8,-1.6 -1.5,-2.2 -0.3,-0.3 -0.6,-0.6 -0.9,-0.9 -0.3,-0.6 -0.3,-1.4 -0.3,-2 0,-0.6 0.5,-1.7 0.1,-2.2 -0.1,-0.2 -0.3,-0.4 -0.5,-0.5 -0.3,-0.2 -0.7,-0.2 -0.9,-0.6 -0.5,-0.5 0.2,-0.4 0.6,-0.5 0.4,-0.1 0.8,-0.3 1.2,-0.6 0.4,-0.3 0.2,-0.9 0.2,-1.4 0,-0.3 -0.1,-0.7 0.3,-0.6 0.5,0 0.7,0.6 1.1,0.7 0.5,0.2 1.4,0.2 1.8,0.1 1,-0.2 1.7,-1.4 2.5,-1.9 0.6,-0.4 1.4,-0.2 1.8,-1 l 0.3,-0.4 c 0.4,-0.6 0,-1.5 0,-2.3 -0.1,-0.5 0.3,-1.1 0.2,-1.6 -0.1,-0.4 -0.5,-0.6 -0.6,-1 -0.1,-0.6 -0.1,-0.7 -0.3,-1.2 -0.6,-0.9 -0.6,-2 -0.5,-2.9 0.1,-0.7 0.5,-1.9 1.4,-1.6 0.4,0.1 0.7,0.6 0.7,1 0.1,0.6 -0.2,1.3 0.2,1.8 0.5,0.5 1.3,0.7 2,0.6 0.8,-0.1 1.1,-0.7 1.5,-1.3 0.4,-0.3 0.7,-0.9 1.3,-1.1 0.7,-0.3 1.7,-0.4 2.5,-0.3 1.2,0.3 1.2,1.3 1.7,2 0.3,0.4 0.6,0.5 0.7,0.1 0.1,-0.4 0.1,-0.8 0,-1.1 -0.1,-0.6 0,-0.6 0.4,-1.1 0.2,-0.3 0.4,-0.7 0.8,-0.4 0.4,0.3 0.1,0.8 0.2,1.3 0.2,0.4 0.5,0.8 0.5,1.2 0.1,0.8 -1.5,2.4 -0.2,3 0.4,0.1 0.9,0.1 1.1,0.6 0.4,0.6 -0.4,1.1 -0.4,1.8 0.1,0.5 0.4,0.7 0.7,1.1 0.4,0.5 0.6,1 0.8,1.6 0.2,0.6 0.2,1.2 0.4,1.9 0.1,0.4 0.4,0.6 0.5,1.1 0.2,0.7 0.3,1.2 0.3,1.8 -0.1,0.4 0.1,0.6 0.1,0.9 0.1,0.5 -0.1,1 0,1.5 0,0.6 0.3,1.1 0.4,1.8 0,0.4 -0.2,0.7 -0.5,0.9 -0.4,0.5 -0.8,1 -1,1.5 -0.1,0.7 0.1,1.4 0.1,2.1 0,0.5 -0.2,0.9 -0.2,1.4 0.1,0.9 1.3,1.3 1.4,2.1 0,0.4 -0.6,0.8 -0.7,1.1 -0.1,0.3 0.4,0.7 0.6,1 0.3,0.6 0.3,1.2 -0.1,1.7 -0.2,0.3 -0.6,0.8 -0.6,1.1 -0.1,0.5 0,0.7 0.5,0.9 0.6,0.1 0.9,0.6 1,1.2 0.1,0.3 0,0.7 0.2,1.1 0.5,0.8 1.4,-0.2 2.1,-0.1 0.4,0.2 0.3,0.6 0,0.9 -0.1,0.2 -0.3,0.3 -0.4,0.6 -0.2,0.8 -0.2,1.9 -0.2,2.8 0,0.9 0.3,1.8 1.3,2.1 0.2,0.2 0.5,0.3 0.8,0.3 0.5,0.1 0.7,0.1 1,0.6 0.2,0.2 0.4,0.5 0.4,0.8 0.1,0.6 0,1.3 0,1.8 -0.1,0.7 -0.3,1.4 -0.5,2.1 -0.4,0.8 -0.5,1.7 -0.4,2.6 0.1,0.8 0.6,1.6 0.8,2.3 0.1,0.9 0.1,1.5 0.1,2.3 -0.1,0.9 -0.1,1.7 0.1,2.7 0,0.8 0.1,1.8 0.4,2.7 0.1,0.4 0.3,0.8 0.4,1.2 0.4,1.5 0.9,2.9 1,4.5 0.1,0.8 -0.4,1.5 -0.8,2.3 -0.4,1 -0.7,1.9 -0.2,2.8 0.4,0.6 0.6,1.3 0.9,1.9 0.3,0.6 0.9,0.9 1.2,1.4 0.5,1 0.3,2.6 -0.3,3.7 -0.2,0.4 -0.4,0.7 -0.5,1.1 -0.1,0.8 0.2,1.8 0.3,2.5 0,1.3 -0.1,2.6 -0.4,3.8 -0.3,1 0.2,2 0.2,3.1 -0.2,1.6 -0.6,3.2 -0.2,4.8 0.4,1.3 0.8,2.8 0.7,4.2 0,1.1 0.7,2.5 0.6,2.4 -0.5,-0.6 1.2,2.1 1,2.9 -0.1,0.4 -0.3,0.6 -0.8,0.6 -0.4,0.2 -0.6,0.1 -0.8,0.6 -0.2,0.4 -0.3,0.7 -0.7,0.7 -0.6,0.2 -1.2,-0.3 -1.5,-0.7 -0.7,-1 -0.1,-2.4 -0.5,-3.6 -0.1,-0.3 -0.4,-0.8 -0.7,-1.1 -0.3,-0.4 -1,-0.4 -1.4,-0.4 -1,-0.1 -1.9,0.9 -2.8,0.1 -0.8,-0.7 -1.2,-1.6 -1.6,-2.4 -0.2,-0.7 -0.1,-1.9 -1.3,-2.1 -1.2,-0.1 -1.5,0.4 -1.5,1.3 0,0.3 0.1,1.1 -0.3,1.3 -0.3,0.1 -0.8,-0.2 -1.2,-0.2 -0.7,0 -1.1,0.4 -1.4,0.9 -0.4,0.5 -0.1,1.1 -0.5,1.7 -0.5,0.5 -1.3,0.2 -1.7,1 -0.5,0.8 -0.8,1.8 0,2.5 0.4,0.5 1.2,1.2 0.7,1.9 -0.5,0.6 -1.4,1 -1.8,1.7 -0.5,1 0,2 0.4,2.8 0.3,0.6 0.8,1.1 1.1,1.7 0.2,0.2 0.5,0.6 0.5,0.8 0.3,0.8 0.2,1.7 0.6,2.5 0.1,0.2 0.4,0.5 0.4,0.8 0.1,0.5 0.2,1 0.2,1.4 0.2,0.8 0.6,1 0.9,1.5 0.4,0.6 0.7,1.2 1.1,1.8 0.4,0.7 0.3,1.5 0.5,2.2 0.1,0.4 0.1,0.7 0.2,1 0.2,0.3 0.3,0.5 0.3,0.7 -0.3,0.7 -0.9,0 -1.1,-0.2 -0.4,-0.3 -1.2,-0.8 -1.4,-1.3 -0.1,-0.4 -0.1,-0.8 -0.3,-1.2 -0.3,-0.6 -1.3,-0.3 -1.6,-0.9 -0.3,-0.9 0,-1.9 -0.6,-2.7 -0.5,-0.7 -1,-1.4 -1.3,-2.2 -0.4,-0.6 -0.8,-1.1 -1.3,-1.7 -0.3,-0.4 -0.7,-0.7 -1.1,-1.1 -0.4,-0.4 -0.7,-0.7 -1.1,-1.1 -0.3,-0.3 -0.5,-0.6 -0.8,-0.8 -0.3,-0.2 -0.6,-0.6 -0.8,-0.8 -1,-1.3 -0.8,-3 -0.8,-4.6 0.1,-1.2 0.2,-2.3 -0.2,-3.5 -0.4,-1.1 -0.8,-2.2 -1.6,-3.1 -0.2,-0.1 -0.4,-0.3 -0.6,-0.4 -0.3,-0.3 -0.7,-0.4 -1,-0.6 -0.3,-0.2 -0.4,-0.6 -0.3,-1 -0.1,-0.6 0.6,-1.1 0.9,-1.5 0.4,-0.5 0.7,-1.1 1,-1.7 0.1,-0.4 0.2,-0.8 0.3,-1 0.2,-0.9 0.3,-1.9 0,-2.7 -0.2,-0.6 -0.2,-1.2 -0.5,-1.7 -0.6,-0.8 -1.2,-1.4 -1.7,-2.2 l -1.3,-2.7 c -0.2,-0.5 -0.1,-1.2 -0.1,-1.7 0.1,-0.2 0,-0.6 0.1,-0.7 0.1,-0.2 0.3,-0.2 0.3,-0.5 0.4,-0.9 0,-1.7 -0.2,-2.5 0,-0.4 0.1,-0.6 0.1,-1 0.1,-0.6 -0.1,-0.8 -0.3,-1.4 -0.3,-0.4 -0.2,-0.7 -0.2,-1 0.1,-0.5 -0.2,-0.9 -0.1,-1.4 0.1,-0.5 0.4,-0.9 0.1,-1.5 -0.2,-0.7 -0.2,-1.7 -0.6,-2.3 -0.1,-0.2 -0.3,-0.4 -0.5,-0.7 -1.3,-1.6 -2.1,-2.7 -0.9,-4.4 1.4,-2.1 -0.7,-3 0,-4.2 1.7,0.1 2.4,-2.5 3.5,-3.4 1,-0.8 4.5,-0.6 4.5,-2 l -2.9,0.6 c -1.4,0 -1.7,0.3 -2.7,0.9 -0.6,0.5 -0.9,1.2 -1.5,1.8 -0.8,0.8 -1.9,1 -2.2,2.2 -0.1,0.6 0.9,1.9 0.4,2.4 -1.2,1 -1.3,-1.4 -1.4,-1.8 0,-1.4 -0.3,-3.1 -0.4,-4.6 -0.3,-2.7 -2.1,-4.3 -3.7,-6.1 -1,-1 -2.1,-2.1 -3,-3.3 -0.5,-0.7 -0.7,-1.6 -1.6,-2.3 -0.6,-0.5 -1,-1 -1.7,-1.5 -0.4,-0.5 -1.1,-1 -1.3,-1.7 -0.6,-1.6 -0.3,-3 0.5,-4.5 0.2,-0.5 -0.2,-1.3 0,-1.7 0.3,-0.3 0.7,-1.4 1.3,-1.8 -0.9,0.9 -2.2,1.2 -2.6,2.3 -0.3,0.8 0.8,1.5 -0.5,2.3 -0.4,0.3 -0.8,0.5 -0.9,1 -0.2,0.4 0.6,0.6 0.4,1 -0.4,1.4 -1.2,0 -2.1,0.7 -0.6,0.5 -0.3,1.4 -1.5,1.2 -0.9,-0.2 -1.2,-2.2 -2,-1.1 -0.5,0.6 0.5,1.4 -0.7,2.1 -0.9,-0.2 -3.1,-2 -3.4,-0.5 -0.3,1.2 1.5,1.2 2.1,2.2 0.5,1.2 -0.4,1.6 -1.2,2.3 -0.6,0.7 -0.9,1.7 -2,1.9 -0.6,0 -2.5,-0.6 -3.1,-1.1 -0.4,-0.3 -1,-0.6 -1.3,-1 -1.1,-1.4 -1.7,0 -2.7,0.5 -1.1,0.5 -2.8,-0.5 -3.5,-1.5 -0.9,-1.2 -0.8,-2 -2.1,-2.9 -1.4,-1 -3.1,-1.8 -3.9,-3.3 -0.7,-1.4 -0.6,-2.9 -1.2,-4.2 -0.3,-0.7 -0.8,-1.3 -1.6,-1.6 -1.1,-0.3 -1.6,0.5 -2.3,1.4 -0.8,1 -4.5,3.2 -1.6,3.6 1,0.1 2.2,-0.7 3.1,0.3 1.3,1.5 1,3.8 0.8,5.5 0,0.6 -0.4,1.7 0.4,1.9 0.7,0.2 1.2,-1.1 1.9,-0.9 0.9,0.2 0.9,1.8 0.9,2.4 0.1,0.9 0.2,1.9 0.8,2.6 0.6,0.7 1.7,0.9 2.2,1.7 0.8,0.8 0.4,1.6 0,2.7 -0.4,1 -0.5,2.1 -0.6,3.2 0,0.4 -0.2,0.9 -0.2,1.3 0,0.5 0.3,0.7 0.4,1.1 0.3,1.4 -0.6,1.2 -1.3,2.1 -0.5,0.7 0.1,1.3 0.2,2 0.1,1.2 -0.8,1.4 -1.4,2 -0.6,0.6 -0.6,1.4 -1.4,2 -0.7,0.5 -1.4,0.6 -2,1.3 -0.6,0.6 -0.7,1.2 -1.5,1.6 -0.1,0.1 -0.4,0 -0.6,0.1 -0.2,0.2 -0.2,0.5 -0.2,0.6 -0.5,0.4 -0.3,0.5 -0.7,0 -0.2,-0.2 -0.2,-0.6 -0.4,-0.9 -0.2,-0.7 -0.8,-0.7 -1.1,-1 -0.5,-0.6 -0.3,-1 0.1,-1.5 l 0.5,-1.4 c 0.1,-0.1 0.1,-0.5 0.3,-0.7 0,-0.3 0.2,-0.7 0.4,-1 0.1,-0.3 0.2,-0.6 0.2,-0.9 0,-0.2 0.1,-0.7 0.2,-0.8 0.1,-0.2 0.5,-0.2 0.6,-0.4 0.2,-0.4 -0.1,-0.9 -0.1,-1.3 0.2,-1.5 1.6,-1.8 1.9,-2.5 0.6,-1.3 -1,-0.9 -1.4,-1.9 -0.4,-1.3 0.9,-2.3 0.8,-3.7 0,-1.4 -0.1,-2.8 -0.5,-4.2 -0.4,-1.1 -1,-2.8 -2.3,-3.1 -0.5,-0.1 -1.7,0.6 -1.9,-0.2 -0.2,-0.8 1.3,-1.4 1.3,-2.2 0,-1.1 -1.1,-1.7 -1.8,-2.4 0.1,0.4 1.2,2.2 0.3,2.7 -0.5,1 -0.2,1.2 -1.3,1.5 -1.2,0.4 -1.2,1.1 0.2,1.7 1.5,0.6 2.3,0.7 1.8,2.4 -0.2,1.1 0.1,2.2 0.6,3.2 0.5,1 1.6,1.7 1.8,2.7 0.3,1.2 -0.9,1.3 -1.4,2.3 -0.6,0.8 -0.7,1.8 -1.4,2.7 -0.6,0.9 -1.9,1.5 -2.2,2.4 -0.5,1 -0.9,1 -1.3,1.9 -0.5,1.1 -0.4,1.7 -1.7,2.5 -1.3,0.7 -2.7,-0.2 -1.9,-1.7 0.1,-0.2 1.4,-0.8 1.1,-1.3 -0.3,-0.4 -1.1,0.3 -1.4,0.4 -0.8,0.4 -1.1,0.5 -1.9,0.1 0.1,0.7 0.5,1.8 0.2,2.6 -0.5,1.1 -2,0.9 -2.7,0.3 -0.5,-0.4 -0.5,-0.5 -1.1,-0.7 -0.6,-0.2 -1.6,-0.2 -1.5,-0.7 0.3,-0.7 -0.2,-1.8 -1.3,-1 -0.7,0.5 1,1.5 1,2.5 0,0.6 -1.1,1.6 -1.5,2.1 -0.3,0.3 -0.7,0.6 -1.1,0.9 -0.5,0.5 -0.8,0.9 -1.3,1.5 -0.6,0.8 -1,1.3 -1.4,2.4 -0.4,1.1 -2.3,2.5 -3,0.8 -0.4,-0.8 0.1,-2.3 0.7,-3 0.7,-0.7 1.4,-0.4 1.6,-1.5 0.2,-0.7 1.7,-3.5 0.3,-3 -1,1 -1.2,1.9 -1.5,3.3 -0.5,0 -1.2,-0.6 -1.6,-1 -0.7,-0.7 -0.9,-1.1 -0.2,-1.6 0.3,-0.1 0.4,-0.2 0.8,-0.4 0.5,-0.1 0.6,-0.4 0.5,-1 -0.1,-0.4 1.4,-1.9 0.3,-1.8 -0.3,0.1 -1.4,1.2 -1.8,1.4 -0.7,0.5 -1.2,1.4 -1.6,2.4 -0.5,1.2 0.1,0.9 0.7,1.7 0.2,0.4 0.4,1.8 0.2,2.3 -0.3,-0.2 -0.5,-0.6 -0.8,-0.8 -0.3,-0.2 -0.7,0 -1.1,-0.4 -0.2,-0.3 -0.4,-1.2 -0.5,-1.6 -0.5,-2.1 -0.1,-3.9 0,-6 -1.6,-0.2 -1.2,0.8 -1.8,1.9 -0.3,-0.5 -0.2,-1.3 -0.4,-1.8"
   class="st5"
   style="fill:#ffffff;fill-opacity:1" />

			<path
   id="path259"
   d="m 273.1,315.2 c -0.1,0.6 0.2,1.2 0.2,1.8 0.1,0.4 0,1 0.1,1.5 0,0.7 0.6,1.3 1,1.9 0.8,1.2 0.4,2.7 0.3,4.1 -0.3,1.4 -0.8,2.8 -1.8,3.8 -0.3,0.4 -0.7,0.7 -0.9,1 -0.4,0.3 -0.7,0.3 -1.1,0.4 -0.6,0.2 -1.3,1 -1.8,1.4 -0.4,0.3 -0.6,0.4 -1.1,0.3 -0.1,-0.3 -0.1,-0.6 0,-0.9 0,-0.6 -0.1,-1.6 0.2,-2.1 0.3,-0.7 1,-1.2 1.3,-1.9 0.4,-0.6 0.7,-1.2 0.9,-2 0.1,-0.6 0.1,-1.3 0.2,-1.9 0,-0.2 0,-0.5 0,-0.7 0.1,-1.4 -0.1,-2.7 0.1,-4.1 0.1,-1.1 0.9,-3.3 2.4,-2.6 z"
   class="st5"
   style="fill:#ffffff;fill-opacity:1" />

			<path
   id="path261"
   d="m 286,312 c -0.4,0.5 -0.5,0.7 -0.4,1.3 0.1,0.7 0,0.7 -0.4,1.3 -0.2,0.5 -0.1,1 0.4,1.5 0.6,0.4 1.6,0.2 1.6,1.2 0,0.3 0,0.5 0,0.8 0.2,0.3 0.4,0.5 0.5,0.9 0.1,0.3 0,1.9 0.5,1.8 0.3,0 0.3,-0.4 0.3,-0.7 0.3,-0.5 0.8,-0.4 1.4,-0.3 0.5,0.1 0.6,0.2 0.8,-0.2 0.2,-0.4 0.2,-1 0.1,-1.4 -0.1,-0.3 -0.3,-0.6 -0.3,-1 0,-0.2 0.2,-0.5 0.2,-0.9 0,-0.9 -0.5,-1.6 -1.3,-2 -1.1,-0.4 -1,-1.6 -1.4,-2.5 -0.1,-0.6 -0.4,-1.4 -0.9,-1.7 -0.1,0.4 0.1,0.9 -0.1,1.2 -0.1,0.3 -0.6,0.5 -0.7,0.8 z"
   class="st5"
   style="fill:#ffffff;fill-opacity:1" />

		</g>
          <g
             id="g21624"
             transform="matrix(0.9059086,0,0,0.9059086,25.480065,9.5741984)">
            <path
               id="path14648"
               style="opacity:1;fill:#ed1b24;fill-opacity:1;stroke:none;stroke-width:0.284997px;stroke-linecap:butt;stroke-linejoin:miter;stroke-opacity:1"
               d="m 271.519,75.755768 c 0.11092,11.39317 -0.20252,23.708035 0.83342,28.003442 1.03594,-4.295407 0.72251,-16.610272 0.83343,-28.003442 h -0.83343 z" />
            <path
               id="path3645"
               style="opacity:1;fill:#ed1b24;fill-opacity:1;stroke:none;stroke-width:0.1;stroke-linecap:butt;stroke-linejoin:miter;stroke-miterlimit:4;stroke-dasharray:none;stroke-opacity:1"
               d="m 271.15802,80.417997 c -0.0731,-7.94e-4 -0.14699,-5.29e-4 -0.22169,5.29e-4 -1.76626,0.08746 -3.7425,0.513865 -5.02345,1.729936 -0.0317,0.03008 -0.0231,0.06552 0.0188,0.07719 0.95775,0.266142 3.62188,0.492427 5.04543,-0.420644 1.737,-0.459433 2.73783,0.358614 2.87889,1.52394 0.11747,0.970388 -0.45154,1.750041 -3.13985,2.856155 -1.68461,0.69314 -3.49925,1.48169 -3.48713,3.15795 0.0307,4.253875 7.78617,2.668095 6.37054,5.628955 -0.64251,1.34383 -5.09156,2.06765 -4.91533,3.37773 l 0.7276,5.409492 0.15141,-4.283972 c 0.0374,-1.05708 0.26108,-1.51155 1.01596,-1.72961 5.15243,-1.48839 6.28179,-5.21475 0.45282,-6.57685 -1.16305,-0.27178 -3.25307,-1.382745 -1.01609,-2.828265 1.26025,-0.81437 2.57831,-1.41135 3.56981,-1.967845 3.5243,-1.97806 2.17584,-5.89702 -2.42776,-5.954676 z m -1.75287,0.835091 c 0.14978,-0.0013 0.30449,0.02692 0.46096,0.06666 0.0831,0.02109 0.0915,0.07984 0.0171,0.122989 -0.31021,0.179832 -0.64706,0.284509 -1.04594,0.214458 -0.0846,-0.01487 -0.10983,-0.09056 -0.0486,-0.150897 0.18884,-0.185994 0.3976,-0.251333 0.6165,-0.253214 z" />
          </g>
        </g>
      </g>
      <g
         id="g74835"
         transform="translate(-160.30289,-14.710299)">
        <path
           d="m 234.57399,85.46066 c 0,-21.015865 17.03682,-38.052689 38.05269,-38.052689 21.01587,0 38.05269,17.036824 38.05269,38.052689 0,21.01587 -17.03682,38.05269 -38.05269,38.05269 -21.01587,0 -38.05269,-17.03682 -38.05269,-38.05269 z"
           fill="#4472c4"
           fill-rule="evenodd"
           id="path870"
           style="fill:none;fill-opacity:1;stroke:#047f3e;stroke-width:0.7;stroke-miterlimit:4;stroke-dasharray:none;stroke-opacity:1" />
        <path
           id="path69204"
           style="fill:#047f3e;fill-opacity:1;stroke:none;stroke-width:0.427141;stroke-miterlimit:4;stroke-dasharray:none;stroke-opacity:1"
           d="m 266.49121,112.28344 c -0.4091,-0.1 -0.86903,-0.0556 -1.40262,0.12467 -0.55191,0.19894 -0.89834,0.47332 -1.01909,0.84826 -0.0408,0.12671 -0.0134,0.27313 0.0861,0.43813 0.09,0.1406 0.18153,0.2808 0.2746,0.42058 -2.64089,-0.79462 -5.18487,-1.95768 -7.54137,-3.42696 0.0726,0.23692 0.14851,0.47396 0.22769,0.71102 1.60407,0.96157 3.28945,1.78433 5.02972,2.45012 l -1.19068,3.11954 c -0.18655,-0.27584 -0.36773,-0.55314 -0.54356,-0.8317 0.18033,-0.20816 0.31508,-0.42607 0.40633,-0.65173 0.12822,-0.31709 0.15717,-0.63678 0.0936,-0.9579 -0.0602,-0.23831 -0.16004,-0.45666 -0.29879,-0.65593 -0.13248,-0.19658 -0.28424,-0.36843 -0.45646,-0.51736 -0.12597,-0.10228 -0.25639,-0.18569 -0.3919,-0.25003 -0.28339,-0.13456 -0.61185,-0.1895 -0.99318,-0.16941 -0.14725,0.0159 -0.28707,0.0609 -0.42013,0.13534 -0.13035,0.0693 -0.22878,0.16517 -0.29382,0.2884 -0.0596,0.11292 -0.0841,0.23477 -0.0723,0.36548 0.0514,0.22346 0.187,0.41443 0.40625,0.56967 0.23463,0.15645 0.47201,0.22011 0.70743,0.19032 0.14598,-0.008 0.27176,-0.042 0.37753,-0.10169 0.1122,-0.0566 0.18964,-0.13303 0.23322,-0.22789 0.0509,-0.1108 0.0482,-0.25556 -0.006,-0.43462 0.12412,0.013 0.23273,0.0502 0.3265,0.112 0.0939,0.0617 0.18266,0.1588 0.26865,0.29191 0.0467,0.0841 0.0887,0.19753 0.12659,0.3402 0.0443,0.14538 0.0615,0.29426 0.0508,0.44714 -0.0165,0.0937 -0.0403,0.17841 -0.0718,0.25321 -0.0902,0.21372 -0.2542,0.39932 -0.49589,0.55422 -0.35318,0.2129 -0.86984,0.17527 -1.52593,-0.13981 -0.26747,-0.12845 -0.49881,-0.31415 -0.69026,-0.55553 -0.18891,-0.24651 -0.33109,-0.52858 -0.4254,-0.84332 -0.0916,-0.31997 -0.13158,-0.66364 -0.12041,-1.03051 0.0112,-0.36697 0.0768,-0.74753 0.19424,-1.14257 -0.0805,-0.0936 -0.16037,-0.18755 -0.23953,-0.2818 -0.16618,0.3877 -0.29056,0.76927 -0.37059,1.14615 -0.08,0.37683 -0.10078,0.72977 -0.0607,1.05912 0.0403,0.26935 0.10174,0.52931 0.1849,0.77931 0.0832,0.25 0.18876,0.4804 0.31588,0.69069 0.13376,0.21375 0.28387,0.40133 0.44905,0.56142 0.16522,0.16001 0.34454,0.28563 0.53626,0.37683 0.34923,0.16612 0.68139,0.25334 0.99053,0.26295 0.31618,0.0127 0.59075,-0.0474 0.82239,-0.17677 0.53214,0.62997 0.80232,1.38409 0.78965,2.28036 l 0.003,-0.008 c 0.0579,0.0581 0.11604,0.11615 0.17449,0.17401 l 1.74156,-4.82365 c 0.5045,0.18259 1.01333,0.35199 1.52587,0.50778 l -1.33379,4.39796 c 0.16419,0.2191 0.33194,0.4371 0.50326,0.65389 l 1.38285,-4.88966 c 0.31742,0.09 0.63615,0.17468 0.95605,0.25407 -0.14701,-0.20353 -0.29062,-0.40813 -0.43083,-0.61372 -0.19517,-0.0525 -0.38988,-0.10693 -0.58407,-0.1634 -0.0272,-0.16765 -0.0532,-0.33527 -0.0781,-0.50283 0.12257,-0.31999 0.44974,-0.54289 0.96712,-0.6905 0.46879,-0.13683 0.88605,-0.16487 1.26815,-0.079 0.26076,0.0586 0.50633,0.13902 0.73968,0.24339 0.2394,0.10563 0.46515,0.24044 0.67959,0.40516 0.23838,0.17462 0.45235,0.34376 0.64128,0.51039 0.18964,0.16082 0.36324,0.32002 0.52003,0.4784 -0.025,-0.0905 -0.0496,-0.18101 -0.0739,-0.27155 -0.91158,-1.09196 -1.81393,-1.74606 -2.86961,-2.00407 -2e-5,8e-5 -4e-5,1.6e-4 -6e-5,2.4e-4 z m -17.92145,-10.60337 c -0.0803,0.0567 -0.17793,0.12947 -0.29226,0.21834 -0.10956,0.0853 -0.2394,0.18875 -0.38759,0.30969 -0.14937,0.12994 -0.28054,0.23939 -0.39486,0.32871 -0.1142,0.0893 -0.21108,0.1625 -0.29139,0.21951 0.17843,-0.26853 0.26683,-0.51503 0.26609,-0.74059 0.004,-0.22909 -0.0873,-0.48193 -0.27082,-0.76476 -0.0107,-0.0165 -0.0214,-0.033 -0.0321,-0.0496 0,0 7e-5,-5.4e-4 7e-5,-5.4e-4 -1.05262,-1.629784 -1.93759,-3.36093 -2.6231,-5.171598 -0.0904,0.229087 -0.1777,0.460533 -0.26188,0.694255 0.5125,1.270351 0.83953,1.881553 0.84012,1.896253 0.009,0.01804 0.0109,0.03556 0.007,0.05272 -9.5e-4,0.02295 -0.0384,0.05329 -0.11095,0.08952 -0.0414,0.0207 -0.0989,0.04185 -0.17236,0.06328 -0.0682,0.01882 -0.14226,0.03278 -0.22188,0.04173 -0.0766,0.01509 -0.15373,0.02249 -0.23134,0.02227 -0.0742,0.0059 -0.19888,-0.01017 -0.37232,-0.04998 -0.16538,-0.0361 -0.3008,-0.150583 -0.40283,-0.343426 -0.0447,-0.1109 -0.0606,-0.215755 -0.0475,-0.313853 0.0185,-0.100577 0.0535,-0.200027 0.10514,-0.29883 -0.12506,-0.0246 -0.2502,-0.05002 -0.37543,-0.07628 -0.0498,0.07513 -0.0949,0.160116 -0.13546,0.255336 -0.0376,0.101563 -0.0788,0.197448 -0.0959,0.299042 -0.023,0.136155 -0.0226,0.267067 -0.0155,0.384778 0.007,0.120828 0.0387,0.227313 0.082,0.318119 0.12051,0.253044 0.39325,0.425452 0.81124,0.505666 0.34179,0.07137 0.64597,0.07621 0.91145,0.02135 -0.23942,0.142064 -0.40706,0.409978 -0.49101,0.810618 -0.0284,0.2009 -0.0322,0.37808 -0.012,0.53053 0.0227,0.15266 0.0554,0.28175 0.0959,0.387 -0.30556,-0.19499 -0.62333,-0.40085 -0.94911,-0.61679 -0.36623,-0.23866 -0.76022,-0.50351 -1.17518,-0.795649 -0.0954,0.258389 -0.18772,0.519179 -0.2768,0.782279 0.11289,0.2317 0.20297,0.44954 0.26877,0.65564 0.0659,0.20599 0.0999,0.39147 0.10056,0.5575 -7e-4,0.17589 -0.0612,0.42461 -0.17725,0.75329 -0.0849,0.30122 -0.10466,0.57822 -0.0604,0.82731 l 2.61968,-1.60823 c 0.0485,0.0438 0.10888,0.0862 0.18084,0.1272 0.19623,0.0961 0.38203,0.12869 0.55639,0.10054 0.18307,-0.0253 0.35221,-0.0888 0.50786,-0.18924 0.0583,-0.0376 0.12026,-0.0859 0.18583,-0.14445 0.0693,-0.0529 0.13044,-0.1129 0.18396,-0.17957 0.0572,-0.0609 0.10343,-0.12287 0.13894,-0.18556 0.0356,-0.0627 0.055,-0.11876 0.0579,-0.16828 0.0449,0.071 0.0901,0.14176 0.13565,0.21235 0.0874,0.13555 0.15209,0.28207 0.19481,0.43996 0.0438,0.14902 0.0626,0.29501 0.0564,0.43927 0.002,0.14658 -0.0257,0.28276 -0.0859,0.40867 -0.0602,0.12587 -0.15142,0.23288 -0.27439,0.31967 l -2.9444,2.07805 c -0.0118,0.26458 -0.0204,0.53045 -0.0259,0.79753 l 4.09772,-3.00414 c 0.59133,0.80577 1.22356,1.5833 1.89258,2.32974 -0.18606,0.14838 -0.40879,0.24797 -0.66966,0.29407 -0.32735,0.0496 -0.57288,-0.0167 -0.73105,-0.19408 -0.0368,-0.0604 -0.0615,-0.14476 -0.0751,-0.25135 -0.009,-0.11031 -0.0112,-0.22624 -0.006,-0.34717 -0.13344,0.0156 -0.26716,0.0304 -0.40117,0.0445 -0.0833,0.26531 -0.10541,0.50328 -0.067,0.71188 0.0429,0.214 0.12618,0.39246 0.24762,0.53275 0.17283,0.19965 0.47756,0.28993 0.90614,0.26145 0.16487,-0.0169 0.32195,-0.0476 0.47129,-0.0909 0.15403,-0.0383 0.28713,-0.0866 0.39952,-0.14451 0.005,0.005 0.009,0.01 0.0141,0.0151 -0.28954,0.2984 -0.33522,0.79842 -0.0907,1.49741 -0.37698,-0.3464 -0.7329,-0.58939 -1.08057,-0.72705 -0.426,-0.18071 -0.7689,-0.1645 -1.02963,0.0665 -0.10252,0.12019 -0.13471,0.27171 -0.0945,0.45505 0.0401,0.18328 0.1306,0.34293 0.27066,0.47675 0.24055,0.23349 0.51492,0.37289 0.8176,0.41727 0.30707,0.0404 0.55011,-0.0332 0.73066,-0.2133 0.0665,0.0257 0.12909,0.0551 0.18742,0.0885 0.0635,0.0385 0.12851,0.0905 0.19558,0.15603 0.25188,0.24599 0.26665,0.48895 0.0348,0.73386 -0.25079,0.26493 -0.60697,0.3263 -1.06962,0.16461 -0.3797,-0.13771 -0.75469,-0.3963 -1.11222,-0.77571 -0.52843,-0.56077 -0.84355,-1.11208 -0.95305,-1.62677 -0.1584,0.41353 -0.31072,0.83133 -0.45685,1.25323 0.55079,1.02328 1.03512,1.96126 1.44388,2.85628 0.40914,0.90182 0.72173,1.72687 0.91744,2.49642 0.0633,-0.12517 0.12684,-0.25014 0.1907,-0.37493 -0.12059,-0.44966 -0.27329,-0.95971 -0.45296,-1.55314 -0.17357,-0.5873 -0.35929,-1.19382 -0.55698,-1.83912 1.19873,0.58068 1.98658,0.61413 2.34495,0.21834 0.41371,-0.45692 0.45769,-0.9981 0.17238,-1.62386 0.25244,0.1695 0.50908,0.23356 0.76584,0.19382 0.26204,-0.035 0.47589,-0.16313 0.64387,-0.37903 0.0638,-0.0909 0.11362,-0.18669 0.14983,-0.28716 0.0401,-0.10482 0.0661,-0.2187 0.0782,-0.34166 0.555,0.51118 1.1284,1.00324 1.71845,1.47496 -0.80794,-0.008 -1.40828,0.21856 -1.77976,0.7352 -0.1531,0.18099 -0.30841,0.48589 -0.45565,0.91393 -0.0757,0.21683 -0.1516,0.40188 -0.23013,0.55561 -0.069,0.15395 -0.1403,0.27548 -0.21411,0.36524 -0.23246,0.28264 -0.47392,0.43358 -0.7281,0.44854 -0.17876,0.009 -0.37369,-0.0183 -0.58382,-0.0841 -0.20635,-0.0702 -0.4111,-0.15629 -0.61334,-0.25852 0.0474,0.13531 0.0958,0.27062 0.14507,0.40591 0.20633,0.11049 0.42343,0.20082 0.65083,0.2706 0.23332,0.0748 0.45621,0.12305 0.66782,0.14541 0.25658,-0.008 0.48288,-0.0511 0.67847,-0.12566 0.19925,-0.0792 0.35383,-0.19049 0.46492,-0.33205 0.0933,-0.1189 0.19278,-0.27678 0.30024,-0.47323 0.10762,-0.19676 0.22646,-0.43048 0.35975,-0.70344 0.19443,-0.43131 0.43596,-0.81533 0.71742,-1.15506 0.43661,-0.43271 0.86216,-0.48977 1.28613,-0.19014 0.0972,0.0737 0.19478,0.14677 0.29278,0.21934 -0.0557,-0.24362 -0.10818,-0.48686 -0.15738,-0.72964 -2.33829,-1.79526 -4.42638,-3.90796 -6.15596,-6.26411 0.0235,-0.22286 0.15849,-0.46151 0.40358,-0.71622 0.002,-0.0811 0.005,-0.16215 0.008,-0.243 z m 31.27372,11.78563 0.56773,2.0866 c -0.007,0.002 -0.0134,0.004 -0.02,0.005 -0.21825,-0.27682 -0.51495,-0.49069 -0.88585,-0.6493 -0.41062,-0.17873 -0.79283,-0.23042 -1.16179,-0.15365 -0.14899,0.031 -0.31371,0.0995 -0.49633,0.20492 -0.1761,0.10392 -0.35018,0.22586 -0.52324,0.36654 -0.17585,0.16465 -0.31046,0.32604 -0.4028,0.48654 -0.0865,0.15366 -0.12136,0.29631 -0.10207,0.42808 0.0317,0.21694 0.22284,0.30252 0.57389,0.24486 0.0275,-0.005 0.0609,-0.0131 0.10105,-0.0259 0.0462,-0.019 0.089,-0.0386 0.12816,-0.0571 0.0772,-0.0426 0.14261,-0.0689 0.19728,-0.0787 0.10923,-0.0196 0.21638,0.007 0.32267,0.0814 0.0101,0.0158 0.0245,0.034 0.0425,0.0539 0.009,0.01 0.0143,0.0204 0.0165,0.0318 0.0478,0.24949 -0.0959,0.48573 -0.44311,0.69863 0.26008,0.0403 0.52163,0.0773 0.78456,0.11095 0.48842,-0.55078 0.94933,-1.1127 1.38312,-1.68371 0.21522,0.11842 0.37605,0.23694 0.48124,0.35877 0.0907,0.0954 0.17646,0.24921 0.25633,0.46139 -0.11586,0.008 -0.24259,0.0295 -0.38004,0.0652 -0.28856,0.0749 -0.52101,0.21185 -0.7014,0.41446 -0.17445,0.19509 -0.2354,0.42201 -0.17744,0.68198 0.039,0.1751 0.14664,0.30559 0.32536,0.38927 0.18577,0.0819 0.39176,0.0957 0.61543,0.04 0.48509,-0.12081 0.67941,-0.34912 0.59281,-0.66615 -0.0519,-0.18998 -0.18181,-0.33153 -0.38597,-0.42717 0.0933,-0.0278 0.18651,-0.056 0.27956,-0.0846 0.23857,-0.0834 0.44236,-0.0764 0.61542,0.0237 0.17992,0.0981 0.30215,0.24869 0.36387,0.4539 0.0966,0.32123 -6.6e-4,0.62751 -0.30477,0.91238 -0.25323,0.23996 -0.61089,0.42115 -1.06852,0.53378 -1.47191,0.38009 -2.87086,-0.45976 -3.92036,-2.4567 l 10e-4,0.009 c -0.1318,-0.0494 -0.26288,-0.0997 -0.39321,-0.15083 0.16984,0.42844 0.38884,0.85012 0.66301,1.26202 0.27325,0.40601 0.60965,0.80746 1.0147,1.19768 0.79913,0.76386 1.83285,1.03797 3.01742,0.76857 0.26323,-0.0665 0.50637,-0.16408 0.72787,-0.29134 0.21999,-0.13285 0.40876,-0.29905 0.5656,-0.49679 0.33778,-0.39698 0.43507,-0.79214 0.31211,-1.17782 -0.15519,-0.48676 -0.56237,-0.81158 -1.19822,-1.0061 l -0.51659,-1.77701 c 1.49673,-0.43604 2.96328,-0.98829 4.38404,-1.64603 l 0.14972,0.324 c -0.95106,0.8182 -1.8614,1.72636 -2.78899,2.75214 0.34645,0.20184 0.69887,0.3984 1.05703,0.58951 -0.004,10e-4 -0.007,0.003 -0.0106,0.004 0.84661,-0.23092 1.58032,-0.28872 2.22781,-0.15089 0.18144,0.0418 0.38558,0.10432 0.61374,0.18663 0.22606,0.0771 0.39645,0.14812 0.51262,0.21637 0.12064,0.0597 0.2852,0.16855 0.49697,0.32571 l -0.004,-0.008 c 0.1549,0.0459 0.31051,0.0907 0.46681,0.13461 l -2.22618,-4.60867 c 0.35016,-0.16943 0.69738,-0.34529 1.04143,-0.52742 -0.24339,-0.0551 -0.48499,-0.11295 -0.72472,-0.17358 -1.59922,0.81124 -3.26399,1.48562 -4.96983,2.00631 -0.12049,0.0368 -0.26062,0.0724 -0.40959,0.0499 -0.0856,-0.0132 -0.14964,-0.0897 -0.21436,-0.17356 -0.0664,-0.0896 -0.12257,-0.2059 -0.16961,-0.34912 -0.10057,-0.0463 -0.20061,-0.0931 -0.30014,-0.14047 z m 14.79268,-9.21075 c 0.0735,0.0653 0.1666,0.14418 0.27931,0.23533 0.10823,0.0875 0.23889,0.1898 0.39079,0.30667 0.16086,0.11593 0.29711,0.2191 0.41034,0.31013 0.11311,0.0909 0.2066,0.16863 0.2805,0.2339 -0.30267,-0.11255 -0.56353,-0.14226 -0.78381,-0.0896 -0.19932,0.0432 -0.39668,0.16729 -0.60618,0.36116 -0.0262,0.0232 -0.0534,0.0548 -0.0803,0.0797 -1.12349,1.17164 -2.34123,2.25839 -3.63496,3.24769 0.24191,0.0196 0.48507,0.0362 0.7294,0.05 0.22047,-0.17457 0.43864,-0.35197 0.65443,-0.53213 l 2.09986,2.51271 c 0.28066,0.2195 0.57541,0.32427 0.8857,0.31053 0.30972,-0.0137 0.62016,-0.15691 0.9221,-0.43085 0.46735,-0.42401 0.72043,-1.01267 0.74096,-1.73843 0.0357,-0.69979 -0.13716,-1.21108 -0.48457,-1.54419 -0.10466,-0.10034 -0.22439,-0.18037 -0.35926,-0.24094 -0.13411,-0.0697 -0.26611,-0.11284 -0.395,-0.13006 -0.34801,-0.0335 -0.63692,0.0653 -0.87621,0.29881 -0.15961,0.15577 -0.2467,0.32646 -0.26102,0.51562 -0.009,0.18419 0.0461,0.34302 0.16886,0.47452 0.0554,0.0594 0.12245,0.0998 0.20141,0.12124 0.0842,0.0166 0.17033,0.0191 0.25848,0.008 0.0882,-0.0115 0.17637,-0.0393 0.26413,-0.0835 0.0878,-0.0442 0.16778,-0.0972 0.23907,-0.15877 0.0451,-0.0522 0.09,-0.10443 0.13474,-0.15683 0.20573,0.26971 0.3012,0.64577 0.27153,1.13176 -0.0405,0.52857 -0.20826,0.92447 -0.48956,1.17653 -0.19711,0.17663 -0.42392,0.22805 -0.67565,0.15436 l -2.22733,-2.57507 c 0.74043,-0.63974 1.45128,-1.31252 2.12877,-2.01575 0.11252,-0.11679 0.24063,-0.21347 0.38518,-0.2916 0.13561,-0.0772 0.27434,-0.12944 0.41664,-0.15653 0.14261,-0.036 0.28162,-0.0395 0.41822,-0.01 0.13654,0.0298 0.26173,0.0943 0.3744,0.19437 l 2.69793,2.39542 c 0.26002,-0.0487 0.52053,-0.10074 0.78147,-0.15621 l -3.86096,-3.30896 c 0.95148,-1.10797 1.82268,-2.28101 2.60103,-3.51013 l 0.34457,0.21823 c -0.37514,1.2314 -0.63449,2.4269 -0.76108,3.63726 0.39815,-0.044 0.79793,-0.0961 1.19911,-0.15642 0.46659,-0.51208 1.02972,-0.87457 1.71324,-1.10411 0.29661,-0.0996 0.60496,-0.16979 0.92615,-0.20969 0.32043,-0.0495 0.64256,-0.0672 0.96635,-0.0515 0.0328,0.002 0.0716,-0.0113 0.11582,-0.0395 0.0396,-0.0311 0.0741,-0.0655 0.10367,-0.10284 l -3.46385,-2.10847 c 0.30175,-0.50736 0.64152,-0.83044 1.04344,-0.97215 0.38902,-0.15585 0.73195,-0.16319 1.0294,-0.006 0.0248,0.0335 0.0496,0.0671 0.0743,0.10077 -0.1091,0.0328 -0.20825,0.0826 -0.29725,0.1496 -0.0857,0.0606 -0.15794,0.14476 -0.21752,0.25207 -0.0981,0.17669 -0.13635,0.34933 -0.11495,0.52082 0.0214,0.17137 0.0986,0.29721 0.23356,0.3762 0.0749,0.0439 0.1559,0.0657 0.24332,0.0652 0.0861,-0.01 0.17034,-0.0338 0.2526,-0.0724 0.0861,-0.045 0.16795,-0.10106 0.24592,-0.16865 0.0729,-0.0704 0.1352,-0.1515 0.18586,-0.24326 0.0724,-0.13109 0.11807,-0.2642 0.13728,-0.39799 0.0139,-0.13661 0.005,-0.26337 -0.0251,-0.37987 -0.0358,-0.11924 -0.0914,-0.22686 -0.16574,-0.32297 -0.0744,-0.0961 -0.16606,-0.17126 -0.27444,-0.22654 -0.44432,-0.226651 -0.94438,-0.249491 -1.49846,-0.09694 -0.60594,0.14939 -1.06532,0.50213 -1.41088,1.07052 l -0.30429,-0.18508 c 0.39532,-0.65008 0.76477,-1.315192 1.10654,-1.994085 0.0707,-0.138574 0.16204,-0.26348 0.27244,-0.376321 0.10608,-0.113047 0.22226,-0.202947 0.34968,-0.270513 0.12503,-0.07614 0.25662,-0.120834 0.39577,-0.132679 0.13907,-0.01186 0.27779,0.01257 0.41524,0.07462 l 3.29119,1.485657 c 0.23532,-0.12517 0.47027,-0.254108 0.70477,-0.386859 l -4.68256,-2.005055 c 0.13781,-0.324177 0.26937,-0.651102 0.39449,-0.980648 -0.21746,0.114468 -0.43537,0.225212 -0.65365,0.33228 -0.0615,0.15294 -0.12453,0.305288 -0.18891,0.457031 -0.20349,0.09249 -0.47748,0.09637 -0.82167,0.01401 -0.0708,0.03882 -0.14176,0.07723 -0.21273,0.11522 0.0897,0.04055 0.20222,0.08782 0.33703,0.141381 0.12928,0.05125 0.28461,0.110874 0.46429,0.177326 0.18808,0.06299 0.34922,0.120615 0.48447,0.17387 0.13517,0.05323 0.24738,0.100039 0.33748,0.140399 -0.32222,-0.01782 -0.57919,0.03014 -0.7729,0.144619 -0.19726,0.111059 -0.36691,0.314423 -0.5162,0.610531 -1.04297,2.088446 -2.35446,4.046396 -3.87868,5.835516 -0.0259,0.0304 -0.0518,0.0607 -0.0778,0.0909 -0.22293,0.028 -0.48668,-0.0491 -0.79107,-0.22979 -0.0796,0.0162 -0.15922,0.0321 -0.23877,0.0476 z m -27.34311,10.50598 c -0.25882,-0.0503 -0.49324,-0.0227 -0.70734,0.0846 -0.20734,0.10853 -0.33879,0.27384 -0.39034,0.49966 -0.0309,0.13545 -0.0255,0.26452 0.0174,0.38695 0.0428,0.12242 0.1131,0.23592 0.2112,0.33993 0.19969,0.19089 0.4835,0.32351 0.84714,0.3905 -0.56531,0.21965 -1.14419,0.42338 -1.73549,0.61061 0.17377,0.31173 0.35394,0.62217 0.54058,0.93112 0.32574,0.0989 0.61991,0.20656 0.88441,0.32566 0.26436,0.11904 0.49409,0.252 0.68995,0.4006 0.30208,0.2418 0.59628,0.57358 0.89077,0.99689 0.092,0.12858 0.1738,0.25532 0.24496,0.38054 0.0711,0.12516 0.14328,0.24747 0.21692,0.36649 l 9.9e-4,-0.009 c 0.11032,0.14349 0.22221,0.28648 0.33567,0.42895 l 0.51777,-5.20692 c 0.48419,0.0475 0.96956,0.0823 1.45564,0.10417 l -0.13648,2.87794 c 0.27,0.24258 0.54661,0.48189 0.82989,0.71768 0.17531,-0.27457 0.38258,-0.52868 0.6201,-0.7642 0,0 0,0 0,0 0.1441,-0.14329 0.29928,-0.27964 0.46529,-0.40957 0.44694,-0.35008 0.92625,-0.62549 1.44601,-0.83348 -0.10631,0.44283 -0.15156,0.87504 -0.12692,1.29797 0.0131,0.22531 0.0596,0.51421 0.14186,0.86303 0.0898,0.34812 0.21558,0.7482 0.38142,1.19468 0.15753,0.0437 0.31567,0.0863 0.47442,0.12778 -0.22634,-0.61278 -0.34758,-1.10773 -0.37531,-1.46998 -0.0279,-0.36447 0.019,-0.74844 0.13177,-1.15363 0.11285,-0.40551 0.28387,-0.83281 0.50455,-1.28719 -0.34203,-0.16822 -0.67813,-0.34249 -1.00802,-0.52267 -0.18768,0.0772 -0.39455,0.174 -0.62517,0.28977 -0.2307,0.10983 -0.46992,0.23726 -0.71947,0.38246 -0.23006,0.12842 -0.45987,0.26896 -0.69043,0.42175 0,0 0,0 0,0 0,0 0,0 0,0 -0.0196,0.013 -0.0392,0.0261 -0.0588,0.0393 -0.24308,0.16236 -0.47609,0.33643 -0.69872,0.52237 l 0.0576,-2.2733 c 0.23322,0.005 0.46655,0.007 0.69994,0.007 1.21385,0.004 2.42602,-0.0739 3.62908,-0.22918 -0.20731,-0.13676 -0.41168,-0.27583 -0.61307,-0.41716 -1.00169,0.10838 -2.0085,0.16209 -3.01601,0.15778 -1.09362,0.005 -2.18602,-0.0583 -3.27144,-0.18636 l -0.0793,0.66434 c -1.02476,0.38031 -1.60733,0.52143 -1.68239,0.50835 -0.25942,-0.0452 -0.46197,-0.13376 -0.60533,-0.26218 -0.14356,-0.12849 -0.19777,-0.27041 -0.16642,-0.42343 0.0221,-0.10782 0.074,-0.19145 0.15501,-0.25192 0.0679,0.0729 0.13294,0.12697 0.19503,0.16252 0.0688,0.0369 0.13656,0.0615 0.20322,0.0739 0.14003,0.026 0.26068,0.009 0.36007,-0.0503 0.0994,-0.0591 0.15605,-0.15522 0.17175,-0.28762 0.0315,-0.26599 -0.17508,-0.43227 -0.61379,-0.51756 z M 245.57099,99.452903 c 0.23481,0.437578 0.48118,0.869107 0.73861,1.294227 0.025,0.14194 0.0131,0.244 -0.0368,0.30654 -0.0463,0.0683 -0.0951,0.12689 -0.14693,0.17509 -0.0433,0.0509 -0.0926,0.0977 -0.14794,0.14029 -0.0468,0.0453 -0.0874,0.0788 -0.12188,0.10024 -0.25879,0.16133 -0.53492,0.0183 -0.8087,-0.44802 -0.15947,-0.27166 -0.20389,-0.55724 -0.13346,-0.8492 0.0189,-0.0737 0.0512,-0.14672 0.0976,-0.219066 0.0464,-0.07234 0.10144,-0.141311 0.16489,-0.206676 0.0668,-0.05937 0.13503,-0.115284 0.2051,-0.168411 0.07,-0.0531 0.13341,-0.09483 0.1895,-0.124999 0,-5e-6 -1e-5,-1e-5 -1e-5,-1.5e-5 z m 4.71967,6.488047 c 0.34695,0.36477 0.70284,0.7215 1.06715,1.06982 0.0908,0.24704 0.0582,0.46219 -0.10341,0.64495 -0.24404,0.23071 -0.55644,0.17831 -0.92578,-0.17601 -0.22449,-0.22033 -0.33783,-0.48783 -0.33786,-0.79588 0.004,-0.31234 0.10662,-0.55932 0.2999,-0.74288 z m 28.3089,9.30109 c 0.28293,-0.0604 0.5317,-0.0113 0.75219,0.15052 -0.2621,0.32436 -0.53343,0.64532 -0.81408,0.96246 -0.14689,-0.33676 -0.407,-0.4957 -0.77933,-0.48727 0.17525,-0.33766 0.45319,-0.54289 0.84122,-0.62571 z m -9.42967,1.45558 -0.32853,2.75215 c -0.46959,-0.7572 -1.15954,-1.39406 -2.05776,-1.95697 0.43611,-0.19858 0.84789,-0.36476 1.24059,-0.49689 0.39962,-0.131 0.77995,-0.23091 1.1457,-0.29829 z m 30.35944,-14.85106 2.22107,1.40991 c -0.004,0.006 -0.008,0.0128 -0.0122,0.0192 -0.90196,0.0364 -1.76789,0.37242 -2.63954,0.97845 0.0574,-0.46815 0.11825,-0.89313 0.18798,-1.28252 0.0648,-0.392 0.14518,-0.76616 0.24266,-1.12501 0,0 0,0 1e-5,0 z m -13.95173,12.20593 1.12784,2.44083 c -0.83132,-0.44207 -1.80997,-0.61388 -2.95757,-0.57138 0.32859,-0.37809 0.63733,-0.71676 0.93449,-1.01807 0.30343,-0.3038 0.60024,-0.58704 0.89524,-0.85138 z m -41.62743,-12.31067 -1.31654,0.77681 c 0.1434,-0.59977 0.1248,-1.15509 -0.0577,-1.68431 0.53478,0.33748 0.98845,0.63208 1.37426,0.9075 z m 40.82403,15.39672 c -0.16838,0.0663 -0.29448,0.16724 -0.37995,0.305 -0.0875,0.13217 -0.10678,0.26613 -0.0562,0.40194 0.0465,0.12484 0.14892,0.21344 0.30883,0.26457 0.15774,0.0456 0.32402,0.0352 0.49734,-0.033 0.17331,-0.0681 0.30264,-0.17378 0.38682,-0.31471 0.082,-0.14631 0.0964,-0.28089 0.0452,-0.40396 -0.0557,-0.13389 -0.16126,-0.21876 -0.31549,-0.25588 -0.15654,-0.0425 -0.31822,-0.0303 -0.48661,0.036 z m 4.81566,-1.64316 c -0.1644,0.0932 -0.28214,0.21205 -0.35444,0.35763 -0.0692,0.14374 -0.0738,0.27262 -0.0118,0.38676 0.0645,0.11875 0.16038,0.18746 0.28838,0.20502 0.12784,0.0175 0.26901,-0.0165 0.4222,-0.10269 0.0626,-0.0352 0.11563,-0.0796 0.16006,-0.13171 0.089,-0.11191 0.14981,-0.17759 0.18396,-0.19736 0.0216,-0.0125 0.0496,-0.0143 0.083,-0.007 0.0452,0.0136 0.0804,0.0419 0.10584,0.0855 0.10688,0.18295 0.11969,0.40798 0.0328,0.67463 -0.0796,0.25803 -0.25557,0.51597 -0.53021,0.76807 -0.0158,0.0143 -0.0224,0.0367 -0.0148,0.0508 l 0.0564,0.10384 c 0.008,0.0139 0.0263,0.0134 0.0421,-10e-4 0.30845,-0.28298 0.61255,-0.64354 0.78449,-1.07095 0.13406,-0.33318 0.089,-0.61819 -0.0515,-0.85232 -0.12958,-0.21594 -0.31248,-0.34076 -0.54706,-0.37787 -0.23292,-0.0412 -0.44831,-0.005 -0.64921,0.10865 -3e-5,-4e-5 -6e-5,-7e-5 -8e-5,-1.1e-4 z" />
      </g>
    </g>
  </g>
  <metadata
     id="metadata1018">
    <rdf:RDF>
      <cc:Work
         rdf:about="">
        <dc:title>Directorate General of Health Services</dc:title>
      </cc:Work>
    </rdf:RDF>
  </metadata>
  <style
     id="style143"
     type="text/css">
	.st0{fill:#04984A;}
	.st1{fill:#F5F6F6;}
	.st2{fill:none;stroke:#04984A;stroke-width:0.13;}
	.st3{fill:#EC2227;}
	.st4{fill:none;stroke:#EC2227;stroke-width:0.13;}
	.st5{fill:#FCEE23;}
</style>
</svg>
