<?xml version="1.0" standalone="no"?>
<!DOCTYPE svg PUBLIC "-//W3C//DTD SVG 20010904//EN"
 "http://www.w3.org/TR/2001/REC-SVG-20010904/DTD/svg10.dtd">
<svg version="1.0" xmlns="http://www.w3.org/2000/svg"
 width="297.000000pt" height="297.000000pt" viewBox="0 0 297.000000 297.000000"
 preserveAspectRatio="xMidYMid meet">
<metadata>
Created by potrace 1.10, written by Peter Selinger 2001-2011
</metadata>
<g transform="translate(0.000000,297.000000) scale(0.100000,-0.100000)"
fill="#d50b0b" stroke="none">
<path d="M1336 2760 c-506 -64 -922 -392 -1090 -858 -90 -252 -94 -561 -10
-818 83 -255 261 -496 482 -654 333 -238 779 -308 1173 -184 399 124 725 445
853 838 84 257 80 566 -10 818 -153 426 -527 747 -975 838 -114 24 -319 33
-423 20z m479 -195 c193 -62 253 -87 262 -111 13 -34 -85 -98 -252 -164 -60
-24 -104 -34 -177 -40 -133 -11 -134 -11 -271 -227 -26 -40 -51 -73 -57 -73
-16 0 -12 58 11 166 11 55 21 124 22 155 2 69 -13 90 -85 116 -66 23 -76 37
-52 69 19 26 164 120 239 156 65 31 150 20 360 -47z m-625 9 c0 -8 -36 -59
-81 -112 -141 -168 -154 -209 -111 -337 33 -99 35 -119 15 -144 -24 -29 -80
-40 -214 -41 -133 0 -175 -13 -318 -95 -131 -75 -161 -86 -161 -59 0 46 199
343 295 440 42 43 122 105 201 157 301 197 374 234 374 191z m1092 -234 c71
-59 252 -318 331 -475 50 -100 67 -166 67 -259 -1 -109 -25 -166 -70 -166 -27
0 -53 21 -181 146 -190 185 -192 186 -404 195 -171 7 -243 22 -327 66 -83 45
-130 143 -94 198 25 39 63 52 222 81 191 34 225 51 295 151 75 105 98 115 161
63z m-1295 -614 c180 -41 447 -98 593 -126 373 -73 519 -120 490 -155 -18 -21
-85 -40 -316 -90 -223 -48 -305 -72 -359 -105 -42 -26 -86 -92 -121 -181 -50
-127 -73 -117 -74 31 -1 128 -15 232 -39 277 -42 81 -138 156 -369 285 -78 44
-147 89 -153 99 -10 20 -5 39 11 39 5 0 157 -33 337 -74z m-576 -157 c33 -67
72 -139 86 -160 32 -49 100 -82 213 -104 101 -20 130 -36 130 -71 0 -32 -11
-53 -71 -135 -77 -104 -82 -124 -81 -275 2 -106 -1 -134 -13 -144 -21 -18 -29
-9 -135 146 -167 245 -193 333 -216 721 -11 184 3 188 87 22z m2259 -256 c0
-63 -52 -192 -128 -316 -139 -230 -280 -391 -403 -465 -102 -60 -327 -141
-351 -126 -5 3 31 47 79 98 120 125 144 173 183 371 34 171 58 240 94 274 13
12 62 32 113 46 49 13 152 53 229 89 76 35 149 65 162 65 19 1 22 -4 22 -36z
m-907 -259 c40 -21 107 -93 124 -133 14 -32 13 -37 -15 -90 -71 -134 -109
-212 -140 -282 -39 -91 -80 -143 -133 -170 -118 -60 -419 -40 -572 37 -72 37
-188 117 -237 163 -75 72 -51 101 116 137 401 88 433 101 586 236 59 53 122
103 140 112 36 18 83 14 131 -10z"/>
<path d="M1489 2484 c-70 -29 -73 -85 -6 -121 45 -25 169 -24 220 1 40 20 57
57 40 85 -29 48 -174 68 -254 35z"/>
<path d="M745 2231 c-54 -25 -92 -62 -114 -112 -43 -95 28 -130 129 -63 75 50
117 159 71 184 -27 14 -40 13 -86 -9z"/>
<path d="M2082 2080 c-80 -49 -59 -142 43 -193 74 -37 174 -29 221 18 29 29
32 83 7 122 -43 65 -200 96 -271 53z"/>
<path d="M1240 1559 c-69 -29 -78 -71 -25 -118 66 -58 201 -78 282 -42 76 35
63 93 -31 140 -55 27 -182 39 -226 20z"/>
<path d="M485 1245 c-51 -50 -23 -169 48 -203 63 -31 122 48 98 130 -16 52
-61 98 -96 98 -14 0 -37 -11 -50 -25z"/>
<path d="M2217 1015 c-66 -45 -97 -142 -62 -192 54 -77 210 6 222 119 10 91
-75 130 -160 73z"/>
<path d="M1350 739 c-70 -21 -120 -76 -120 -132 0 -33 36 -76 76 -93 124 -52
282 59 232 162 -25 54 -116 84 -188 63z"/>
</g>
</svg>
