<?xml version="1.0" encoding="UTF-8"?>
<svg version="1.1" xmlns="http://www.w3.org/2000/svg" width="3168" height="1095">
<path d="M0 0 C15.8841085 6.43950345 25.9899797 25.97086215 32.37109375 40.73608398 C46.6077356 75.53101606 51.14389732 115.22429797 51.26953125 152.53125 C51.27659705 153.94587232 51.28372972 155.3604943 51.29092407 156.77511597 C51.31051258 161.29148872 51.3156183 165.80780753 51.31640625 170.32421875 C51.31684811 171.48273031 51.31684811 171.48273031 51.31729889 172.66464615 C51.31884253 197.73530817 50.74552134 222.56631091 48.06640625 247.51171875 C47.86569809 249.43049873 47.66501559 251.3492814 47.46435547 253.26806641 C37.83156736 344.2153637 18.17697492 434.13497062 -57.93359375 685.51171875 C-60.13584829 685.60871935 -62.34128039 685.63358584 -64.54566956 685.63197327 C-65.24481143 685.63282769 -65.94395331 685.63368212 -66.66428131 685.63456243 C-69.02434126 685.63621926 -71.38433128 685.63069259 -73.74438477 685.62524414 C-75.42923989 685.62496229 -77.11409514 685.62511997 -78.7989502 685.62568665 C-83.38759828 685.62597469 -87.97622045 685.62007686 -92.56486249 685.61311269 C-97.35484007 685.60688028 -102.14481818 685.60627544 -106.93479919 685.60508728 C-116.01188407 685.60197363 -125.08895696 685.59375979 -134.16603655 685.58373779 C-144.49717956 685.5725777 -154.82832314 685.56706647 -165.15947068 685.56204236 C-186.4175184 685.5515772 -207.67555532 685.53397711 -228.93359375 685.51171875 C-230.02350505 675.08096003 -230.02350505 675.08096003 -230.24316406 669.87524414 C-230.30925369 668.37309105 -230.30925369 668.37309105 -230.37667847 666.84059143 C-230.42124176 665.77429001 -230.46580505 664.70798859 -230.51171875 663.609375 C-230.61846934 661.20635756 -230.72575526 658.80336387 -230.83349609 656.40039062 C-230.889953 655.12993896 -230.94640991 653.8594873 -231.00457764 652.55053711 C-234.4514436 527.40365593 -234.4514436 527.40365593 -255.93359375 404.76171875 C-256.15845459 403.93389893 -256.38331543 403.1060791 -256.61499023 402.25317383 C-258.24271256 396.7363353 -260.65955797 392.23189484 -263.93359375 387.51171875 C-266.27507606 387.38957981 -266.27507606 387.38957981 -268.93359375 388.51171875 C-276.75043958 397.07417141 -279.59106349 410.94596557 -282.24609375 421.88671875 C-282.54112793 423.08039063 -282.83616211 424.2740625 -283.14013672 425.50390625 C-285.35639535 434.66211516 -287.24766601 443.86923578 -289.08111572 453.11047363 C-303.77721313 527.01739736 -326.24467874 599.71624754 -347.99609375 671.82421875 C-348.20064178 672.50488403 -348.40518982 673.18554932 -348.61593628 673.88684082 C-349.16725409 675.71737198 -349.72404185 677.54625323 -350.28125 679.375 C-350.58039307 680.35766846 -350.87953613 681.34033691 -351.18774414 682.3527832 C-351.93359375 684.51171875 -351.93359375 684.51171875 -352.93359375 685.51171875 C-354.28365572 685.60808242 -355.63872245 685.63543829 -356.99221897 685.63476658 C-358.31192907 685.63775315 -358.31192907 685.63775315 -359.65829998 685.64080006 C-360.63590611 685.63788722 -361.61351224 685.63497438 -362.6207428 685.63197327 C-364.16560723 685.6332549 -364.16560723 685.6332549 -365.74168104 685.63456243 C-369.22111515 685.63622032 -372.70050191 685.63069083 -376.17993164 685.62524414 C-378.66280618 685.62496231 -381.14568081 685.62511992 -383.6285553 685.62568665 C-388.98860861 685.62591497 -394.34864695 685.62306353 -399.70869637 685.61744881 C-407.45851171 685.60933603 -415.20832117 685.60671882 -422.95814031 685.60546082 C-435.53044648 685.60326994 -448.10274617 685.59660891 -460.67504883 685.5871582 C-472.89086881 685.57798499 -485.10668704 685.57090371 -497.32250977 685.56665039 C-498.07496993 685.56638767 -498.82743009 685.56612494 -499.60269208 685.56585426 C-503.37740739 685.56454926 -507.15212271 685.56328554 -510.92683804 685.56204236 C-542.26242798 685.55166865 -573.59800989 685.53397526 -604.93359375 685.51171875 C-603.98368382 683.76648327 -603.03331829 682.02149576 -602.08276367 680.27661133 C-601.55357834 679.30484451 -601.02439301 678.3330777 -600.47917175 677.3318634 C-599.18443882 674.96942415 -597.87479893 672.61731386 -596.546875 670.2734375 C-564.27651304 613.25969234 -540.05790161 546.27326106 -539.73046875 480.0703125 C-539.72345444 479.11271027 -539.71644012 478.15510803 -539.70921326 477.16848755 C-539.69181462 474.09534947 -539.68536096 471.02240427 -539.68359375 467.94921875 C-539.68291901 466.89781708 -539.68224426 465.84641541 -539.68154907 464.76315308 C-539.69780504 448.81848198 -540.14585711 433.25087184 -542.93359375 417.51171875 C-543.1052002 416.52381348 -543.27680664 415.5359082 -543.45361328 414.51806641 C-549.46713164 380.95736744 -561.47094619 350.66098412 -576.54785156 320.25634766 C-599.42685795 274.04796075 -599.42685795 274.04796075 -592.9921875 253.8203125 C-591.07902468 249.64806444 -588.00755275 247.54869825 -583.93359375 245.51171875 C-569.93797319 244.2443275 -558.68057036 247.4329037 -547.46484375 256.19921875 C-542.83511466 260.4288478 -539.39256893 265.31700332 -535.93359375 270.51171875 C-535.40282227 271.2996582 -534.87205078 272.08759766 -534.32519531 272.89941406 C-499.57015269 324.67497173 -472.05252556 380.37828455 -446.89950562 437.29660034 C-433.5042689 467.69644928 -433.5042689 467.69644928 -418.87109375 497.51171875 C-418.37134033 498.47746826 -417.87158691 499.44321777 -417.35668945 500.43823242 C-409.19039332 516.96265558 -409.19039332 516.96265558 -394.93359375 527.51171875 C-389.9695302 527.41041133 -387.61905635 525.68531154 -383.93359375 522.51171875 C-383.27359375 522.51171875 -382.61359375 522.51171875 -381.93359375 522.51171875 C-381.66804688 521.94839844 -381.4025 521.38507812 -381.12890625 520.8046875 C-379.84549631 518.34272137 -378.36191089 516.12529554 -376.80859375 513.82421875 C-368.86985344 501.38380901 -363.55638168 487.67539191 -358.99609375 473.69921875 C-358.6176532 472.55144958 -358.6176532 472.55144958 -358.23156738 471.38049316 C-329.6895106 384.46121292 -313.92585796 286.68259674 -353.08203125 172.546875 C-355.50121211 165.76748686 -357.84956048 158.96722479 -360.12109375 152.13671875 C-360.40025635 151.29971436 -360.67941895 150.46270996 -360.96704102 149.6003418 C-362.92817479 143.66272719 -364.10331134 138.84293689 -364.18359375 132.57421875 C-364.22226563 130.76630859 -364.22226563 130.76630859 -364.26171875 128.921875 C-363.79735412 124.09579976 -362.08988549 121.60550823 -358.62109375 118.32421875 C-350.79751372 113.04785082 -339.78035355 112.57274113 -330.68359375 114.19921875 C-307.12592772 120.07902773 -291.21415742 139.25933477 -279.03515625 159.1875 C-257.034752 196.18520953 -242.40575938 237.00744034 -227.81419373 277.3183136 C-217.30097287 306.36070594 -206.60427958 335.32930092 -193.93359375 363.51171875 C-193.53092285 364.41341797 -193.12825195 365.31511719 -192.71337891 366.24414062 C-185.45993858 382.38448754 -177.138931 397.74799476 -165.93359375 411.51171875 C-165.21558594 412.40632813 -164.49757813 413.3009375 -163.7578125 414.22265625 C-156.02909731 423.36532822 -146.23101036 430.48861926 -134.09375 431.82421875 C-121.86470954 432.32786006 -112.09992099 427.56913655 -102.9140625 419.8046875 C-46.29928905 366.76323308 -32.51673771 256.60991085 -23.68359375 182.88671875 C-23.45687988 181.00786987 -23.45687988 181.00786987 -23.22558594 179.09106445 C-20.57953594 155.81269346 -19.56308473 132.62108735 -19.62109375 109.19921875 C-19.62152323 107.84305833 -19.62168323 106.48689779 -19.62158203 105.1307373 C-19.62993115 85.54056586 -20.32675554 66.12019532 -22.27734375 46.62109375 C-23.65859685 32.69164569 -24.6875882 14.51840272 -15.65625 2.86328125 C-11.06303014 -1.74266221 -5.89518694 -1.48868357 0 0 Z " fill="#861418" transform="translate(2326.93359375,65.48828125)"/>
<path d="M0 0 C83.6859375 -0.061875 83.6859375 -0.061875 169.0625 -0.125 C186.65570557 -0.14320801 204.24891113 -0.16141602 222.37524414 -0.18017578 C243.91687012 -0.18920898 243.91687012 -0.18920898 254.01268005 -0.19088745 C261.03918307 -0.19274503 268.06565391 -0.20004947 275.09214783 -0.21115112 C283.21308519 -0.22396279 291.33399193 -0.22965313 299.45493945 -0.2268899 C303.60116142 -0.22569504 307.74731512 -0.22746893 311.89352429 -0.23843026 C360.38090471 -0.36013056 414.42436255 3.44606039 450.87109375 39.64453125 C467.64458687 57.13913731 472.9087529 78.0871386 473.546875 101.58984375 C473.56756798 102.31837996 473.58826096 103.04691616 473.60958099 103.79752922 C474.13801432 122.74718845 474.22215301 141.69999881 474.24023438 160.65600586 C474.24579236 165.62175426 474.27007045 170.58723864 474.29820633 175.55290318 C474.31695776 179.45754229 474.32204406 183.36211771 474.32357025 187.26679802 C474.32654894 189.09767094 474.33440958 190.9285441 474.34775543 192.7593708 C474.53915091 220.92642547 468.02317407 245.64320951 447.94140625 266.1875 C420.58196006 292.96756969 379.43089815 303.23277381 342.07870483 303.12025452 C341.02477118 303.12110894 339.97083753 303.12196337 338.88496649 303.12284368 C335.37820868 303.12448158 331.87149945 303.11900493 328.36474609 303.11352539 C325.84113567 303.11324313 323.31752517 303.11340202 320.79391479 303.1139679 C315.37345138 303.1141951 309.95300342 303.11137161 304.53254318 303.10573006 C296.69561547 303.09757881 288.85869358 303.09499613 281.02176209 303.09374207 C268.30470657 303.09155723 255.58765749 303.08491258 242.87060547 303.07543945 C230.5222985 303.06625062 218.17399329 303.05918846 205.82568359 303.05493164 C205.05588279 303.05466364 204.28608199 303.05439565 203.4929539 303.05411953 C197.47198013 303.05203992 191.45100632 303.05008306 185.43003249 303.04816496 C155.95334908 303.03874321 126.47668181 303.01862208 97 303 C97 362.73 97 422.46 97 484 C64.99 484 32.98 484 0 484 C0 324.28 0 164.56 0 0 Z M97 71 C97 123.47 97 175.94 97 230 C135.8642487 230.08744864 135.8642487 230.08744864 174.72851562 230.14648438 C190.58441939 230.16426334 206.44027895 230.18512849 222.29614258 230.22631836 C233.8454996 230.25630651 245.39481762 230.27559531 256.9442125 230.28226548 C263.05428751 230.28616182 269.16425097 230.29526009 275.27429008 230.31719017 C281.03705133 230.33770427 286.79965611 230.34380389 292.56245041 230.33932304 C294.66615591 230.34014161 296.76986719 230.3460176 298.87354088 230.35761642 C322.62012374 230.48201277 346.92122309 227.82778191 365.1875 210.9609375 C376.19871639 199.04794046 377.61668862 184.07830868 377.49609375 168.67578125 C377.49624919 167.03679846 377.49774561 165.39781531 377.50050354 163.75883484 C377.50187769 160.34743723 377.48949241 156.9364651 377.46655273 153.52514648 C377.43810283 149.17791885 377.44093706 144.83139287 377.45364285 140.48411274 C377.46063293 137.10808941 377.45277408 133.73222515 377.44038582 130.35622215 C377.43590838 128.75403645 377.43550163 127.15183346 377.43945122 125.54964638 C377.45767197 111.6658581 375.72540287 99.93193432 366.32421875 89.0625 C347.26745761 70.78106747 317.82360404 70.68122042 293.171875 70.77294922 C291.02175909 70.77351459 288.87164279 70.77319432 286.7215271 70.77206421 C280.93336843 70.77149461 275.14529407 70.7831848 269.35715485 70.79721212 C263.29002825 70.80978548 257.22289934 70.81089516 251.15576172 70.81326294 C239.68858588 70.8194584 228.22144857 70.83584286 216.75428963 70.85596192 C201.24330302 70.88258028 185.73230575 70.8933092 170.22130203 70.90496635 C145.81417255 70.92372498 121.40712432 70.96358353 97 71 Z " fill="#861417" transform="translate(783,270)"/>
<path d="M0 0 C1.59255407 -0.00043662 3.18510806 -0.00131319 4.77766168 -0.00258917 C9.1332818 -0.00481632 13.48887714 -0.00083729 17.8444941 0.0041889 C22.54920209 0.00851884 27.25390875 0.00704517 31.95861816 0.00628662 C40.10303705 0.005763 48.24744791 0.00889292 56.39186478 0.01452446 C68.16723576 0.02266135 79.94260288 0.02525693 91.71797638 0.02651245 C110.82406124 0.02869953 129.93014182 0.03535029 149.03622437 0.04481506 C167.59286478 0.05399808 186.14950402 0.06106309 204.70614624 0.06532288 C205.86218743 0.06559087 207.01822861 0.06585887 208.20930135 0.06613499 C217.25068631 0.06821449 226.29207129 0.07017138 235.33345628 0.07208955 C279.62875139 0.08151836 323.92403579 0.10163783 368.21932983 0.12025452 C368.21932983 119.58025452 368.21932983 239.04025452 368.21932983 362.12025452 C338.84932983 361.79025452 309.47932983 361.46025452 279.21932983 361.12025452 C279.21932983 270.37025452 279.21932983 179.62025452 279.21932983 86.12025452 C228.09135923 86.21082154 228.09135923 86.21082154 176.96347046 86.32923889 C170.05958106 86.34728717 163.15569121 86.36515085 156.25180054 86.38270569 C154.95398941 86.38601722 154.95398941 86.38601722 153.62995988 86.38939565 C139.68910227 86.42469879 125.7482447 86.44959483 111.80735905 86.47060154 C97.4843342 86.49241742 83.161367 86.52552242 68.83839124 86.56895608 C60.0109934 86.59537343 51.1836673 86.61314167 42.35623192 86.61960056 C36.29064642 86.62488496 30.22515094 86.64120327 24.1596138 86.66592018 C20.66792954 86.67983152 17.17640603 86.68914536 13.68469238 86.68526268 C-14.64511881 86.672844 -42.85581151 89.18263988 -64.12051392 110.22572327 C-68.05506409 114.50692985 -71.01299774 119.02386847 -73.78067017 124.12025452 C-74.23957642 124.93107483 -74.69848267 125.74189514 -75.17129517 126.57728577 C-85.14793519 145.17831039 -86.23310251 166.62065145 -86.21304321 187.29115295 C-86.22209036 189.21526709 -86.23242463 191.13937553 -86.243927 193.06347656 C-86.27117698 198.21710236 -86.28073729 203.37061789 -86.28678107 208.5243063 C-86.29624932 213.93615408 -86.32245856 219.34792214 -86.3467865 224.75971985 C-86.39022506 234.9765443 -86.41891039 245.19335308 -86.44210988 255.41024137 C-86.47437888 269.23835403 -86.52981427 283.0663734 -86.58385563 296.8944149 C-86.6682226 318.63633344 -86.72196261 340.37821645 -86.78067017 362.12025452 C-116.15067017 362.12025452 -145.52067017 362.12025452 -175.78067017 362.12025452 C-175.84861115 335.41491748 -175.90378173 308.70965134 -175.93610668 282.00424957 C-175.95152026 269.60213101 -175.97250336 257.2000703 -176.00698853 244.79798889 C-176.03706071 233.97773652 -176.05628511 223.15752608 -176.06293565 212.33723307 C-176.06681797 206.61761178 -176.07582454 200.89811037 -176.09786034 195.17852783 C-176.30740515 138.53084665 -169.49194968 89.33940796 -128.10098267 47.40541077 C-93.59864973 15.00188443 -46.73863937 -0.09567439 0 0 Z " fill="#861417" transform="translate(357.7806701660156,390.87974548339844)"/>
<path d="M0 0 C1.7709256 -0.00299959 3.54185054 -0.00640393 5.31277466 -0.01017761 C10.08386818 -0.01894167 14.85494372 -0.02135253 19.62604451 -0.0219934 C22.61901421 -0.02270837 25.61197946 -0.02485111 28.60494804 -0.02749062 C39.08119874 -0.0367198 49.55743678 -0.04082866 60.03369141 -0.04003906 C69.74248132 -0.03943933 79.45121549 -0.04997693 89.15999132 -0.06578273 C97.54185145 -0.0789337 105.92369353 -0.08421979 114.30556387 -0.08358365 C119.29099491 -0.08333082 124.27637635 -0.08606126 129.26179695 -0.0967617 C177.93030033 -0.19400261 177.93030033 -0.19400261 197.75756836 4.39526367 C198.71131348 4.61069824 199.66505859 4.82613281 200.64770508 5.0480957 C223.98587106 10.54012164 246.84328698 21.78573703 260.57006836 42.20776367 C267.34858352 53.49477962 271.92873195 65.11662844 273.94506836 78.14526367 C274.11852783 79.25514648 274.2919873 80.3650293 274.47070312 81.50854492 C275.21027764 87.52505567 275.06817418 93.56193244 275.04272461 99.61401367 C275.04060219 101.52809021 275.04060219 101.52809021 275.03843689 103.48083496 C275.03380847 106.84764524 275.02484807 110.21438574 275.01373291 113.58117676 C275.00344166 117.02701215 274.99892286 120.47285479 274.99389648 123.91870117 C274.98290162 130.6609077 274.96618916 137.40308167 274.94506836 144.14526367 C267.77995118 146.97680273 260.45474952 149.15689474 253.07006836 151.33666992 C251.66555838 151.75353591 250.26112119 152.17064723 248.85675049 152.58798218 C245.02685411 153.72527656 241.19588452 154.85891589 237.36470032 155.99186325 C234.09500013 156.95927473 230.82593387 157.92881852 227.55687332 158.89838886 C216.93416407 162.04897563 206.30945723 165.19279341 195.68429565 168.33509827 C192.05808987 169.40760017 188.43199089 170.48046292 184.80588818 171.55331326 C160.8792007 178.63229632 136.94932665 185.70046582 113.01773739 192.76285839 C106.89689219 194.56916959 100.77617039 196.37589834 94.65551758 198.18286133 C74.54907102 204.11856139 54.44090834 210.04840888 34.33038139 215.97027016 C29.22377787 217.47402743 24.11737048 218.97844892 19.0110693 220.4832325 C10.12058753 223.1031289 1.22950533 225.72097075 -7.66262913 228.33525276 C-11.88221239 229.57583364 -16.101544 230.81725333 -20.32022095 232.06091309 C-24.22239398 233.21120935 -28.12530668 234.35895886 -32.02882576 235.50467873 C-33.46180613 235.92574997 -34.89451365 236.34775101 -36.32693291 236.77072716 C-38.27752384 237.34655181 -40.22918634 237.91874293 -42.1809082 238.49072266 C-43.27356995 238.81217758 -44.36623169 239.13363251 -45.49200439 239.46482849 C-48.05493164 240.14526367 -48.05493164 240.14526367 -50.05493164 240.14526367 C-49.47465938 256.67301849 -48.51446352 273.01699391 -36.92993164 285.95776367 C-23.51343496 298.19994992 -3.9088045 299.28712313 13.35353088 299.30348206 C14.47194695 299.30842003 15.59036301 299.31335801 16.74267048 299.31844562 C20.47362785 299.33374935 24.20456811 299.34216188 27.93554688 299.35058594 C30.61664576 299.36017007 33.29774066 299.37013793 35.97883606 299.38058472 C41.74252681 299.4022805 47.50621991 299.42044998 53.26992989 299.43618965 C61.6031737 299.45895141 69.93639265 299.4870853 78.26961529 299.51650893 C91.79138616 299.56410779 105.31316724 299.60739272 118.83496094 299.64794922 C131.9661539 299.68734345 145.09733782 299.72877902 158.22851562 299.77294922 C159.03861391 299.77567349 159.8487122 299.77839776 160.68335892 299.78120459 C164.7475907 299.79488471 168.81182235 299.80860486 172.87605393 299.8223449 C206.56570761 299.93618854 240.25537946 300.04222697 273.94506836 300.14526367 C273.94506836 321.26526367 273.94506836 342.38526367 273.94506836 364.14526367 C241.07399753 364.16930278 241.07399753 364.16930278 228.3996582 364.16333008 C227.55804917 364.16293519 226.71644014 364.16254031 225.8493278 364.16213346 C188.05924353 364.14221055 150.26927438 364.04195905 112.47943306 363.90954399 C99.48890038 363.86430716 86.49839931 363.82479291 73.5078125 363.79882812 C61.96222868 363.77574662 50.41672877 363.74231545 38.87121171 363.69656211 C32.82564662 363.67292399 26.78016243 363.6540005 20.73455238 363.64764977 C-27.83652208 363.58987403 -27.83652208 363.58987403 -47.05493164 360.14526367 C-47.75692594 360.02111713 -48.45892023 359.8969706 -49.18218708 359.76906204 C-52.86517317 359.10272198 -56.49034305 358.31815304 -60.11743164 357.39526367 C-61.14779541 357.13922363 -62.17815918 356.88318359 -63.23974609 356.61938477 C-71.98916013 354.34764552 -80.03900339 351.29743085 -88.05493164 347.14526367 C-88.65837402 346.84394531 -89.26181641 346.54262695 -89.88354492 346.23217773 C-99.28373091 341.49574704 -106.70422153 335.57098103 -114.05493164 328.14526367 C-114.79485352 327.42725586 -115.53477539 326.70924805 -116.29711914 325.96948242 C-140.73062379 300.72786575 -137.36857021 262.31909567 -137.32358265 230.00163531 C-137.31845405 225.15392515 -137.3232328 220.30622188 -137.32635498 215.45851135 C-137.32997457 207.32486593 -137.32524828 199.19125704 -137.31567383 191.05761719 C-137.30478952 181.70424708 -137.30832287 172.35096421 -137.31932664 162.9975962 C-137.32845275 154.91118045 -137.32965906 146.82479068 -137.3244493 138.73837143 C-137.32135914 133.93306907 -137.32083771 129.12780747 -137.32752228 124.32250786 C-137.33337345 119.80213029 -137.32915959 115.28186333 -137.31773376 110.7614975 C-137.31512829 109.11981704 -137.31578002 107.47812699 -137.32025909 105.83645058 C-137.34165662 97.18463304 -137.04613642 88.64607074 -136.17156982 80.03431702 C-136.09514574 79.26747981 -136.01872166 78.50064259 -135.9399817 77.71056789 C-133.50160036 55.85299709 -122.49485058 38.13272617 -105.55493164 24.45776367 C-75.30237241 2.96559804 -35.95398436 -0.01229965 0 0 Z M-12.99243164 66.33276367 C-13.76546631 66.54416992 -14.53850098 66.75557617 -15.33496094 66.97338867 C-22.49735226 69.05439891 -28.76849034 72.09925333 -35.05493164 76.14526367 C-35.98499023 76.7253418 -35.98499023 76.7253418 -36.93383789 77.31713867 C-44.37019264 82.67597395 -49.10470868 92.54963001 -50.60154724 101.364151 C-51.06108022 105.19654132 -51.17505337 108.87405082 -51.16845703 112.73291016 C-51.16860306 113.45569656 -51.16874908 114.17848297 -51.16889954 114.923172 C-51.16820863 117.28759878 -51.16045516 119.65194458 -51.15258789 122.01635742 C-51.15072078 123.66545061 -51.14929826 125.31454436 -51.14830017 126.96363831 C-51.14449804 131.28560949 -51.13468761 135.60754659 -51.12359619 139.92950439 C-51.11333235 144.34712259 -51.10879193 148.76474634 -51.10375977 153.18237305 C-51.09306311 161.83668549 -51.0760146 170.49097033 -51.05493164 179.14526367 C-26.69924305 172.16425959 -2.40020712 165.00010041 21.88256836 157.77026367 C22.67119514 157.53546799 23.45982193 157.3006723 24.2723465 157.0587616 C25.87829005 156.58062197 27.48423181 156.10247634 29.09017181 155.6243248 C33.16027596 154.41249523 37.23039842 153.20072721 41.30053711 151.98901367 C42.11424019 151.74675301 42.92794327 151.50449234 43.76630402 151.25489044 C60.24983766 146.34773986 76.74033145 141.46427631 93.23336792 136.58917236 C96.92827458 135.49700576 100.62303942 134.40436041 104.31774616 133.31151772 C116.98303535 129.5653151 129.64863435 125.82019972 142.31829071 122.08878899 C148.1212975 120.37969669 153.9235051 118.66790845 159.72546387 116.95526123 C162.10328595 116.25407544 164.48145485 115.55406459 166.85998535 114.85528564 C170.08451049 113.9079307 173.30788273 112.95675059 176.53100586 112.00463867 C177.48133698 111.72657379 178.43166809 111.44850891 179.41079712 111.16201782 C180.2656369 110.90866669 181.12047668 110.65531555 182.0012207 110.39428711 C182.74415375 110.17560974 183.48708679 109.95693237 184.25253296 109.73162842 C185.95668558 109.27920404 185.95668558 109.27920404 186.94506836 108.14526367 C187.9653658 97.20633704 186.40626616 87.97176774 179.38256836 79.33276367 C165.97862138 65.4580681 144.49809652 62.66843223 126.12745667 62.05048561 C123.29084906 62.01021947 120.45578591 61.9986783 117.61889648 62 C116.55687012 61.99664139 115.49484375 61.99328278 114.40063477 61.98982239 C110.92585037 61.98040563 107.45111468 61.97837374 103.97631836 61.97729492 C101.53031394 61.97407506 99.0843097 61.97071046 96.63830566 61.96720886 C91.52115432 61.96124011 86.40401981 61.95936655 81.28686523 61.95996094 C74.78283484 61.96006223 68.2789144 61.94643336 61.77490997 61.92918873 C56.72318035 61.91797718 51.6714765 61.91604455 46.61973572 61.91657066 C44.22476321 61.91540339 41.82978975 61.91105356 39.43482971 61.9032383 C12.97050953 61.70155946 12.97050953 61.70155946 -12.99243164 66.33276367 Z " fill="#861417" transform="translate(2535.054931640625,390.854736328125)"/>
<path d="M0 0 C5.09100548 0.00512919 10.18200442 0.00034962 15.27301025 -0.00277233 C23.81599237 -0.0063921 32.35893969 -0.00166552 40.9019165 0.00790882 C50.72276091 0.01878949 60.54352222 0.01526249 70.36436462 0.00425601 C78.85677288 -0.00487399 87.3491564 -0.00607444 95.84156799 -0.00086665 C100.88725136 0.00222187 105.93289592 0.00274969 110.97857666 -0.00393963 C199.42966113 -0.10493213 199.42966113 -0.10493213 232.003479 29.26865101 C232.75886963 29.93122913 233.51426025 30.59380726 234.2925415 31.27646351 C249.11727282 45.08231294 257.36155015 64.71734418 258.28046799 84.86173153 C258.42751739 90.09687176 258.40976311 95.33103856 258.3916626 100.56772327 C258.39573685 102.5669022 258.40108348 104.56607887 258.40759277 106.56525135 C258.42116981 111.95155204 258.41600798 117.3376787 258.40645552 122.7239821 C258.39880981 128.38551822 258.40591798 134.04704039 258.41061401 139.70857716 C258.4160569 149.21129474 258.40891811 158.71394215 258.39459229 168.21664906 C258.37826395 179.17361082 258.38356161 190.1304051 258.4000715 201.08736283 C258.41372267 210.52816014 258.41558846 219.96890729 258.40775549 229.4097113 C258.4030995 235.03375041 258.40239678 240.65771101 258.41236496 246.28174496 C258.42108554 251.57032511 258.41492041 256.85869105 258.39768219 262.14724827 C258.3937446 264.07805814 258.39480408 266.00888631 258.40147018 267.93968868 C258.47873268 292.60880135 252.71003973 313.26500034 235.003479 331.26865101 C234.33832275 331.94669788 233.6731665 332.62474476 232.987854 333.32333851 C200.40012662 364.29411759 153.39660621 363.75009844 111.47981572 363.67162752 C106.0672432 363.66392889 100.65468447 363.67110449 95.24211121 363.67578602 C86.15871398 363.68121478 77.07539039 363.67412872 67.99200439 363.65976429 C57.55539387 363.64344836 47.11895934 363.6487304 36.68235308 363.66524351 C27.65312372 363.67894706 18.62394671 363.68073495 9.59471029 363.6729275 C4.23204164 363.66829867 -1.13054487 363.66749145 -6.49320793 363.67753696 C-58.0056779 363.76095792 -58.0056779 363.76095792 -81.496521 357.51865101 C-82.97620361 357.1356786 -82.97620361 357.1356786 -84.48577881 356.74496937 C-93.0987182 354.42043054 -101.05899263 351.31786312 -108.996521 347.26865101 C-110.0587085 346.7362682 -111.120896 346.20388538 -112.215271 345.65536976 C-130.13168835 335.98142791 -144.33910018 319.33781871 -151.17230225 300.22958851 C-151.44429443 299.25247913 -151.71628662 298.27536976 -151.996521 297.26865101 C-152.16408716 296.68309752 -152.33165333 296.09754402 -152.50429726 295.49424648 C-154.75278688 286.2440603 -154.29263604 276.74722364 -154.28704834 267.29355335 C-154.29303956 265.26880109 -154.29984647 263.24405111 -154.30740356 261.21930408 C-154.32501235 255.73964555 -154.32975684 250.26004956 -154.33103514 244.78036547 C-154.33246044 241.34991628 -154.33673725 237.91948279 -154.34202957 234.48903751 C-154.36051439 222.50133989 -154.36870231 210.51368663 -154.36712646 198.52597523 C-154.36592617 187.38452162 -154.38701057 176.24326208 -154.41861379 165.10185754 C-154.4448437 155.50996859 -154.45549092 145.91814275 -154.45421565 136.32621825 C-154.4537079 130.60921974 -154.45928689 124.89239376 -154.48057175 119.17543125 C-154.500067 113.79249341 -154.50000196 108.40989064 -154.48553848 103.02694035 C-154.48346308 101.06310246 -154.48807459 99.09924296 -154.5002594 97.13544178 C-154.64589587 72.01528221 -148.24792472 51.49727447 -130.684021 32.86240101 C-113.87258466 16.63741013 -93.07981387 8.3951064 -70.496521 3.95615101 C-69.38071655 3.73523792 -69.38071655 3.73523792 -68.24237061 3.50986195 C-65.50098923 3.02125928 -62.756096 2.64305259 -59.996521 2.26865101 C-58.77751099 2.10079594 -57.55850098 1.93294086 -56.30255127 1.75999928 C-37.62956485 -0.51332403 -18.77569906 -0.02489192 0 0 Z M-59.996521 83.26865101 C-69.6944536 94.10888817 -69.14738254 108.13039049 -69.14178467 121.86362171 C-69.14478091 123.3346207 -69.1481845 124.80561891 -69.15196228 126.2766161 C-69.16075906 130.25403106 -69.16313856 134.23142448 -69.16377807 138.20884824 C-69.16449101 140.69884382 -69.16662994 143.188834 -69.16927528 145.67882824 C-69.17851431 154.37991525 -69.18261197 163.08098699 -69.18182373 171.78207874 C-69.18122328 179.86976879 -69.19177233 187.95739207 -69.20756739 196.04506522 C-69.220678 203.00840132 -69.22600615 209.97171569 -69.22536832 216.93506402 C-69.22511437 221.08525265 -69.22790821 225.23538188 -69.23854637 229.38555813 C-69.24828687 233.29180769 -69.24826611 237.19794177 -69.24102974 241.10419559 C-69.23999127 242.52992199 -69.24230247 243.95565581 -69.2483902 245.38136959 C-69.30328173 259.13813873 -68.59784395 271.86795375 -58.95355225 282.52646351 C-43.3373228 297.06475853 -24.55551833 300.58401045 -3.83709717 300.54330921 C-2.46066515 300.54766868 -1.08423555 300.55285589 0.29219055 300.55879688 C3.99487624 300.57206645 7.6974591 300.57277907 11.40016389 300.57023358 C14.50850593 300.56915548 17.61682787 300.57406857 20.72516555 300.578839 C28.06803371 300.58989289 35.41085071 300.59039512 42.75372314 300.58432484 C50.28932994 300.57829029 57.82474976 300.59059233 65.36032468 300.61189491 C71.86606707 300.62959931 78.37175043 300.63549837 84.87751597 300.63225716 C88.7472259 300.63045795 92.61680249 300.63294229 96.48649025 300.6469717 C100.13021719 300.6596903 103.77365607 300.65747596 107.41737938 300.64456081 C109.36458487 300.64112647 111.31179976 300.65226902 113.25897217 300.6641283 C132.14254756 300.55357272 148.6908364 295.91948534 162.815979 282.95615101 C169.39883985 276.0776061 172.11741666 267.9202041 172.15065002 258.59761524 C172.15432671 257.92817263 172.1580034 257.25873001 172.1617915 256.56900126 C172.17280008 254.32686823 172.17666741 252.08478159 172.18048096 249.84262562 C172.18674789 248.23428673 172.1933949 246.62594928 172.20039368 245.01761341 C172.22141434 239.73541741 172.23179624 234.45322119 172.24176025 229.17099476 C172.24580897 227.3498079 172.24992593 225.5286212 172.25411034 223.70743465 C172.27315997 215.14790086 172.28738981 206.58837566 172.29572231 198.02882475 C172.30548526 188.16373503 172.3317811 178.29887026 172.3722232 168.43385977 C172.40244034 160.7996982 172.4171966 153.1656009 172.42050332 145.53138071 C172.42284799 140.9764015 172.43173185 136.42166265 172.45696449 131.86674786 C172.48034753 127.57634879 172.48443764 123.28634658 172.47420311 118.99590015 C172.47371007 117.42826036 172.47996162 115.86060035 172.49375916 114.2930212 C172.59927457 101.58557897 170.69953366 90.08227092 162.003479 80.26865101 C144.8181005 64.71511854 123.42435135 62.11371226 101.11651611 62.12338734 C99.98314819 62.12002872 98.84978027 62.11667011 97.68206787 62.11320972 C93.96497476 62.10377392 90.24792707 62.10176016 86.53082275 62.10068226 C83.92165611 62.09746395 81.31248964 62.09409945 78.70332336 62.0905962 C73.24225575 62.08422388 67.78120023 62.08271126 62.32012939 62.08334827 C56.05533924 62.08394723 49.79063569 62.0734235 43.5258674 62.05760461 C37.44810519 62.04281834 31.37038368 62.03936389 25.29260445 62.039958 C22.73130503 62.03878783 20.17000478 62.034421 17.60871696 62.02662563 C-24.77444772 61.83195662 -24.77444772 61.83195662 -59.996521 83.26865101 Z " fill="#861417" transform="translate(1440.9965209960938,390.73134899139404)"/>
<path d="M0 0 C2.40378703 0.00374628 4.80757562 0.00658557 7.21136475 0.00857544 C13.4318693 0.01608508 19.6522752 0.03561885 25.8727417 0.0579834 C33.39319318 0.08238907 40.91367829 0.09128334 48.43415833 0.10289001 C59.76346509 0.12205527 71.09255693 0.16046497 82.421875 0.1953125 C82.421875 21.3153125 82.421875 42.4353125 82.421875 64.1953125 C77.07871094 64.24429688 71.73554688 64.29328125 66.23046875 64.34375 C62.77146941 64.37928583 59.31248924 64.41532925 55.85351562 64.453125 C50.40669069 64.51259578 44.95989138 64.57055007 39.51293945 64.6171875 C21.71276265 64.77187585 3.92016546 64.97874654 -13.85546875 65.984375 C-15.06537979 66.04370209 -16.27529083 66.10302917 -17.52186584 66.16415405 C-30.86070147 67.03101994 -44.05685432 70.53398091 -53.67578125 80.33203125 C-62.47564062 91.03759265 -64.883015 102.66268929 -64.8565979 116.22413635 C-64.8623903 117.30171689 -64.8681827 118.37929744 -64.87415063 119.48953193 C-64.89108839 123.08232615 -64.89402181 126.67499142 -64.89697266 130.26782227 C-64.90627511 132.85040093 -64.91644426 135.43297659 -64.92741394 138.01554871 C-64.94962846 143.56643191 -64.96467655 149.11729685 -64.97478104 154.6682148 C-64.98940067 162.69378606 -65.0149466 170.7192937 -65.04311232 178.7448275 C-65.08852078 191.76744949 -65.1251601 204.79008067 -65.15625 217.81274414 C-65.18645994 230.4589194 -65.22082141 243.10507221 -65.26074219 255.7512207 C-65.26320374 256.53144903 -65.26566528 257.31167736 -65.26820143 258.11554898 C-65.2805765 262.02994015 -65.29303294 265.94433106 -65.30552983 269.85872185 C-65.40900856 302.30422544 -65.49661929 334.74974442 -65.578125 367.1953125 C-94.948125 366.8653125 -124.318125 366.5353125 -154.578125 366.1953125 C-154.64436298 330.9587476 -154.69971626 295.72224352 -154.73132099 260.48563502 C-154.73507274 256.3178972 -154.73895574 252.1501595 -154.74291992 247.98242188 C-154.74370685 247.15276194 -154.74449378 246.32310201 -154.74530456 245.46830086 C-154.75832937 232.06563126 -154.78196695 218.66300058 -154.80958339 205.260354 C-154.83771924 191.48993839 -154.85431848 177.71954306 -154.86039048 163.9490999 C-154.86449003 155.46407891 -154.87739921 146.97916798 -154.9018744 138.4941809 C-154.91783279 132.66176378 -154.92250272 126.82940287 -154.91862913 120.99696554 C-154.91672312 117.64077638 -154.92115711 114.28493123 -154.93574142 110.92875099 C-155.05849874 81.20338633 -151.6190179 55.02077468 -130.11328125 32.62890625 C-123.3400751 26.11429534 -115.94070533 21.36787346 -107.578125 17.1953125 C-106.64806641 16.72931641 -106.64806641 16.72931641 -105.69921875 16.25390625 C-73.14016422 0.27523267 -35.50687199 -0.16709311 0 0 Z " fill="#861417" transform="translate(3029.578125,385.8046875)"/>
<path d="M0 0 C1.55991982 1.16341846 3.10189044 2.35129001 4.625 3.5625 C5.44226562 4.20445313 6.25953125 4.84640625 7.1015625 5.5078125 C23.73197139 19.46088002 33.84726041 40.20535128 36.625 61.5625 C38.02506515 86.24207987 33.05809098 110.68422439 16.34106445 129.7121582 C-0.71050585 148.26163039 -21.81163184 159.30445293 -47.19140625 160.78515625 C-73.46105207 161.3757739 -96.2771563 151.86380394 -115.4375 133.875 C-133.14248257 115.56196753 -139.90122097 91.90618464 -139.5859375 66.9296875 C-138.90321788 42.98392902 -127.41248818 21.86336038 -110.375 5.5625 C-79.18218452 -21.5247558 -33.65829341 -22.57888638 0 0 Z " fill="#861418" transform="translate(2215.375,102.4375)"/>
<path d="M0 0 C29.04 0 58.08 0 88 0 C88 76.89 88 153.78 88 233 C58.96 233 29.92 233 0 233 C0 156.11 0 79.22 0 0 Z " fill="#871417" transform="translate(416,520)"/>
<path d="M0 0 C11.73003629 11.08286187 21.09170445 25.97233855 22.16113281 42.48852539 C22.50956848 64.1381299 19.71512382 82.8840896 4.13647461 99.04150391 C-9.67561983 112.75607882 -26.46059788 120.29465313 -46 120.5 C-64.3728005 120.28983656 -81.23616911 113.86174533 -94.3125 100.81640625 C-108.89633001 85.53306114 -114.52405507 69.33692343 -114.34936523 48.43237305 C-113.88433388 29.12017277 -105.79774414 13.17895551 -91.875 -0.125 C-65.19886369 -22.76763117 -26.8143082 -22.43226996 0 0 Z " fill="#861418" transform="translate(1955,280)"/>
<path d="M0 0 C0 10.89 0 21.78 0 33 C-7.78879686 35.22537053 -7.78879686 35.22537053 -11.50390625 36.0078125 C-38.12566465 41.82801822 -63.56860159 51.84982222 -85 69 C-85.58861816 69.47050781 -86.17723633 69.94101562 -86.78369141 70.42578125 C-118.24885433 95.88678312 -138.10255723 132.82857072 -143 173 C-143.81925263 180.99024173 -144.40490167 188.98906098 -145 197 C-155.23 197 -165.46 197 -176 197 C-176.06981312 190.85127401 -176.12924993 184.70398622 -176.16479492 178.55517578 C-176.17965077 176.47439859 -176.19994095 174.39365132 -176.22631836 172.31298828 C-176.69919029 133.98254555 -168.54022981 95.53036464 -144 65 C-143.30390625 64.1028125 -142.6078125 63.205625 -141.890625 62.28125 C-113.57031242 26.52936603 -71.57016993 7.25758729 -27 1.125 C-26.12972168 1.00455322 -25.25944336 0.88410645 -24.36279297 0.76000977 C-16.1201645 -0.23277178 -8.47455882 0 0 0 Z " fill="#861418" transform="translate(233,266)"/>
<path d="M0 0 C0 11.22 0 22.44 0 34 C-3.58875 34.70125 -7.1775 35.4025 -10.875 36.125 C-52.5155211 44.66274387 -92.07460922 66.41719423 -116.48046875 102.109375 C-135.90567561 131.66521514 -141.97033446 162.23857429 -145 197 C-155.23 197 -165.46 197 -176 197 C-176.04642226 191.06310873 -176.08608894 185.12687098 -176.10986328 179.18994141 C-176.11979538 177.17885175 -176.13334559 175.16777603 -176.15087891 173.15673828 C-176.29018271 156.74347253 -175.82943151 140.57047003 -171.8125 124.5625 C-171.59819336 123.69399414 -171.38388672 122.82548828 -171.16308594 121.93066406 C-160.75309956 81.33613444 -135.88813595 47.6978458 -100 26 C-76.98166311 12.38600165 -52.0028889 4.63633665 -25.5625 1.1875 C-24.61648926 1.06334717 -23.67047852 0.93919434 -22.69580078 0.8112793 C-14.99442857 -0.09315469 -7.89343429 0 0 0 Z " fill="#861418" transform="translate(289,322)"/>
<path d="M0 0 C0.65880661 0.00141495 1.31761322 0.0028299 1.99638367 0.00428772 C4.08487637 0.00985125 6.17325886 0.02239678 8.26171875 0.03515625 C9.68424324 0.04017597 11.10676941 0.04473805 12.52929688 0.04882812 C16.00268001 0.05895461 19.47582711 0.07853666 22.94921875 0.09765625 C22.94921875 5.04765625 22.94921875 9.99765625 22.94921875 15.09765625 C21.29792969 15.13503906 19.64664062 15.17242188 17.9453125 15.2109375 C15.75909266 15.27661792 13.57289574 15.34306454 11.38671875 15.41015625 C10.30068359 15.43271484 9.21464844 15.45527344 8.09570312 15.47851562 C-0.40452991 15.76092447 -0.40452991 15.76092447 -8.05078125 19.09765625 C-12.25442355 26.52014261 -12.25442355 26.52014261 -12.05078125 42.09765625 C5.43921875 42.09765625 22.92921875 42.09765625 40.94921875 42.09765625 C42.33753906 45.743125 43.72585938 49.38859375 45.15625 53.14453125 C56.83156888 83.84566356 56.83156888 83.84566356 68.69921875 114.47265625 C69.35047729 116.14086426 69.35047729 116.14086426 70.01489258 117.84277344 C70.40056396 118.82149414 70.78623535 119.80021484 71.18359375 120.80859375 C71.66650879 122.03521729 71.66650879 122.03521729 72.15917969 123.28662109 C72.81060648 125.08083979 72.81060648 125.08083979 73.94921875 126.09765625 C84.73440287 98.14174498 95.51171341 70.18557711 105.94921875 42.09765625 C111.88921875 42.09765625 117.82921875 42.09765625 123.94921875 42.09765625 C123.25776693 45.55491535 122.61715552 48.26612875 121.39306641 51.47753906 C121.0733638 52.32185989 120.75366119 53.16618073 120.42427063 54.03608704 C120.07414413 54.94843613 119.72401764 55.86078522 119.36328125 56.80078125 C118.99442307 57.77093674 118.62556488 58.74109222 118.24552917 59.74064636 C117.02590046 62.9445792 115.80029881 66.14618718 114.57421875 69.34765625 C113.72079684 71.5833573 112.8675275 73.81911659 112.0144043 76.05493164 C109.33409515 83.07228272 106.64327315 90.0855722 103.94921875 97.09765625 C103.51220642 98.2353949 103.07519409 99.37313354 102.62493896 100.54534912 C100.08049564 107.16684255 97.53020571 113.78604688 94.97259521 120.40246582 C94.17760038 122.45921793 93.38334617 124.5162565 92.58990479 126.5736084 C88.70239999 136.64648691 84.76041534 146.6904921 80.5859375 156.6484375 C80.26341507 157.41981552 79.94089264 158.19119354 79.6085968 158.98594666 C75.29407216 169.17409871 70.4823801 178.15171459 60.32421875 183.47265625 C52.91537291 185.42235252 45.41065628 185.96301563 37.94921875 184.09765625 C37.94921875 179.47765625 37.94921875 174.85765625 37.94921875 170.09765625 C39.64046875 169.99453125 41.33171875 169.89140625 43.07421875 169.78515625 C47.67659752 169.38237407 50.92596318 168.47034543 54.94921875 166.09765625 C55.60921875 166.09765625 56.26921875 166.09765625 56.94921875 166.09765625 C58.269779 163.4970127 59.51129547 160.88103564 60.67578125 158.20703125 C61.13984375 157.14355469 61.13984375 157.14355469 61.61328125 156.05859375 C62.08894531 154.96417969 62.08894531 154.96417969 62.57421875 153.84765625 C62.8990625 153.10257813 63.22390625 152.3575 63.55859375 151.58984375 C64.35642276 149.75953014 65.15294977 147.92864909 65.94921875 146.09765625 C65.02834473 145.99022095 65.02834473 145.99022095 64.08886719 145.88061523 C61.94921875 145.09765625 61.94921875 145.09765625 60.73925781 143.17211914 C60.40120117 142.31352295 60.06314453 141.45492676 59.71484375 140.5703125 C59.31394531 139.57201416 58.91304687 138.57371582 58.5 137.54516602 C58.07074219 136.42811279 57.64148437 135.31105957 57.19921875 134.16015625 C56.73386719 132.98445068 56.26851562 131.80874512 55.7890625 130.59741211 C54.14879823 126.44112702 52.54730272 122.27030799 50.94921875 118.09765625 C50.64185791 117.29634277 50.33449707 116.4950293 50.01782227 115.66943359 C46.96009143 107.69442602 43.91578341 99.71434666 40.88964844 91.72729492 C35.36122209 77.13633629 29.70692868 62.59979516 23.94921875 48.09765625 C23.61921875 50.73765625 23.28921875 53.37765625 22.94921875 56.09765625 C11.39921875 56.09765625 -0.15078125 56.09765625 -12.05078125 56.09765625 C-12.05078125 85.46765625 -12.05078125 114.83765625 -12.05078125 145.09765625 C-17.99078125 145.09765625 -23.93078125 145.09765625 -30.05078125 145.09765625 C-30.05078125 115.72765625 -30.05078125 86.35765625 -30.05078125 56.09765625 C-35.33078125 56.09765625 -40.61078125 56.09765625 -46.05078125 56.09765625 C-46.05078125 51.47765625 -46.05078125 46.85765625 -46.05078125 42.09765625 C-40.77078125 42.09765625 -35.49078125 42.09765625 -30.05078125 42.09765625 C-30.10298828 40.34001953 -30.10298828 40.34001953 -30.15625 38.546875 C-30.62216075 16.34634584 -30.62216075 16.34634584 -23.703125 7.59765625 C-16.94839186 1.46569992 -8.80739515 -0.03747828 0 0 Z " fill="#514A48" transform="translate(1366.05078125,845.90234375)"/>
<path d="M0 0 C1.22912109 -0.020625 2.45824219 -0.04125 3.72460938 -0.0625 C13.05453513 -0.10230768 21.50197381 0.73668739 29.3125 6.25 C30.3953125 6.9925 30.3953125 6.9925 31.5 7.75 C33.3125 9.25 33.3125 9.25 35.3125 12.25 C35.6425 8.62 35.9725 4.99 36.3125 1.25 C42.2525 1.25 48.1925 1.25 54.3125 1.25 C54.35904865 14.53356942 54.39448293 27.8171191 54.41612434 41.10075378 C54.42651642 47.27032371 54.44059112 53.43983742 54.46337891 59.609375 C54.48527162 65.57460068 54.49710295 71.53977262 54.50225449 77.5050354 C54.50592097 79.76934656 54.51307975 82.03365513 54.52396011 84.29794312 C54.70037781 122.56924357 54.70037781 122.56924357 45.59375 133.26953125 C35.31306026 143.27635016 21.40346823 143.45293693 7.8815918 143.49023438 C5.77937082 143.49986544 3.67816126 143.53091711 1.57617188 143.5625 C-11.10441614 143.66260549 -24.60273027 142.79610082 -34.6875 134.25 C-40.87630939 127.17154926 -42.6875 120.64342882 -42.6875 111.25 C-36.7475 111.25 -30.8075 111.25 -24.6875 111.25 C-24.295625 112.8175 -23.90375 114.385 -23.5 116 C-22.12954491 120.53402899 -20.9585592 122.866153 -16.6875 125.25 C-10.33963775 127.75198169 -4.1921517 127.58677407 2.51538086 127.56567383 C4.60909616 127.56252393 6.70138176 127.58597426 8.79492188 127.61132812 C20.59668146 127.85922977 20.59668146 127.85922977 30.91918945 122.86865234 C34.80485308 118.52885561 35.44445568 114.8907308 35.41015625 109.265625 C35.40693359 108.33105469 35.40371094 107.39648438 35.40039062 106.43359375 C35.39201172 105.46550781 35.38363281 104.49742187 35.375 103.5 C35.37048828 102.51644531 35.36597656 101.53289062 35.36132812 100.51953125 C35.34956483 98.09629209 35.33312684 95.67317727 35.3125 93.25 C34.86084473 93.72775879 34.40918945 94.20551758 33.94384766 94.69775391 C27.88134902 100.96271075 27.88134902 100.96271075 23.6875 102.625 C22.97335937 102.92148437 22.25921875 103.21796875 21.5234375 103.5234375 C14.69314328 105.76802182 7.80307899 105.47050537 0.6875 105.5 C-0.53324219 105.520625 -1.75398438 105.54125 -3.01171875 105.5625 C-14.90144249 105.61336513 -24.93607603 103.71543845 -34.3125 96.125 C-44.09873785 84.27850155 -44.03012297 69.67699682 -43.94824219 55.02978516 C-43.93751253 52.75265899 -43.94820805 50.47632134 -43.9609375 48.19921875 C-43.98957773 20.55877195 -43.98957773 20.55877195 -34.67578125 9.9609375 C-29.82681135 5.30660339 -25.23572369 2.69586691 -18.6875 1.25 C-17.57749634 0.99416138 -17.57749634 0.99416138 -16.44506836 0.7331543 C-11.02072156 -0.21724697 -5.49273543 0.02268554 0 0 Z M-20.6875 20.25 C-23.58553974 25.04675544 -24.80046706 29.26272332 -24.84863281 34.81567383 C-24.85824036 35.71373245 -24.8678479 36.61179108 -24.87774658 37.5370636 C-24.88199646 38.50065292 -24.88624634 39.46424225 -24.890625 40.45703125 C-24.89632507 41.45578781 -24.90202515 42.45454437 -24.90789795 43.48356628 C-24.91733729 45.59588566 -24.92387769 47.70821969 -24.92773438 49.82055664 C-24.93743264 53.04013979 -24.9684635 56.25908242 -25 59.47851562 C-25.00653126 61.53385039 -25.01178125 63.5891897 -25.015625 65.64453125 C-25.0279718 66.60204788 -25.0403186 67.55956451 -25.05303955 68.5460968 C-25.02952549 75.65661574 -24.00149021 80.43568758 -19.375 86.0625 C-12.12373416 91.96469313 -1.65284661 91.8605028 7.3125 91.25 C15.83306974 90.12912238 24.0935904 88.57453864 30.3125 82.25 C36.54694452 73.0110039 36.4941846 63.73669846 36.5 52.9375 C36.51836914 51.15956055 36.51836914 51.15956055 36.53710938 49.34570312 C36.55483866 38.69040105 35.90235006 29.34269727 28.3125 21.25 C16.19077296 12.52490401 -8.91975076 9.65902568 -20.6875 20.25 Z " fill="#514A48" transform="translate(1712.6875,886.75)"/>
<path d="M0 0 C1.08603516 -0.020625 2.17207031 -0.04125 3.29101562 -0.0625 C12.72562617 -0.10783146 21.30057942 1.13564604 28.8125 7.25 C33.8125 12.40915119 33.8125 12.40915119 33.8125 15.25 C34.4725 15.25 35.1325 15.25 35.8125 15.25 C35.9775 14.54875 36.1425 13.8475 36.3125 13.125 C39.82101973 6.40033717 46.82647433 3.47583024 53.70239258 1.0637207 C59.10264335 -0.34918736 64.38913669 -0.24772282 69.9375 -0.125 C71.61005859 -0.12306641 71.61005859 -0.12306641 73.31640625 -0.12109375 C84.33983755 -0.00423759 92.84680242 1.5338186 101.8125 8.25 C110.39673317 17.71466734 109.21810778 31.69135708 109.10546875 43.60546875 C109.09986251 45.36094294 109.09559728 47.11642187 109.09260559 48.87190247 C109.08123766 53.45697347 109.05184134 58.0417522 109.01849365 62.62670898 C108.98761762 67.3194585 108.97406305 72.01225597 108.95898438 76.70507812 C108.92696259 85.88686679 108.87426202 95.06836318 108.8125 104.25 C102.8725 104.25 96.9325 104.25 90.8125 104.25 C90.79062622 100.85158813 90.79062622 100.85158813 90.76831055 97.38452148 C90.71789035 89.88460372 90.65128222 82.38489196 90.57678509 74.88517666 C90.53212788 70.33972904 90.49286158 65.79437008 90.46606445 61.2487793 C90.43998498 56.85899248 90.39954994 52.46954772 90.34931374 48.07997322 C90.33267636 46.40835906 90.32114263 44.73668578 90.31488609 43.06500053 C90.30521068 40.71671884 90.27711186 38.36930608 90.24487305 36.02124023 C90.24630814 35.33575104 90.24774323 34.65026184 90.2492218 33.94400024 C90.13508239 28.03501656 88.73677281 23.34406159 84.6875 18.9375 C75.04777547 13.27940082 63.84793653 14.71477902 53.4765625 17.30078125 C50.77541314 18.26321423 49.04719528 19.49276164 46.8125 21.25 C46.1525 21.25 45.4925 21.25 44.8125 21.25 C44.13688252 22.9130584 43.47316719 24.58094605 42.8125 26.25 C42.43351562 27.17425781 42.43351562 27.17425781 42.046875 28.1171875 C41.78390625 28.77976562 41.5209375 29.44234375 41.25 30.125 C41.00121094 30.74117187 40.75242187 31.35734375 40.49609375 31.9921875 C38.93357741 37.15295576 38.68268084 42.46716026 38.60717773 47.82788086 C38.58723251 49.08865952 38.56728729 50.34943817 38.54673767 51.64842224 C38.52976002 53.00389487 38.51288097 54.35936875 38.49609375 55.71484375 C38.47549241 57.11732043 38.45449517 58.51979135 38.43312073 59.92225647 C38.37822807 63.59314268 38.32867577 67.26408184 38.28027344 70.93505859 C38.22981707 74.68917489 38.17425767 78.44321538 38.11914062 82.19726562 C38.01196102 89.54811436 37.91090109 96.89902755 37.8125 104.25 C32.2025 104.25 26.5925 104.25 20.8125 104.25 C20.79791748 101.95409912 20.78333496 99.65819824 20.76831055 97.29272461 C20.7178932 89.69302375 20.65128554 82.09352624 20.57678509 74.49402523 C20.53212549 69.88804321 20.4928597 65.28214873 20.46606445 60.67602539 C20.43998739 56.22788623 20.399554 51.78008478 20.34931374 47.33215523 C20.33267474 45.63821182 20.32114202 43.94421003 20.31488609 42.25019646 C20.30521248 39.87078624 20.27711563 37.49223422 20.24487305 35.11303711 C20.24630814 34.41819717 20.24774323 33.72335724 20.2492218 33.00746155 C20.14274348 27.42363551 19.00524327 22.40657431 14.91796875 18.38671875 C5.56323694 13.33620492 -7.31451503 14.46456406 -17.1875 17.25 C-23.43653745 19.87056409 -27.60527375 23.96458107 -30.1875 30.25 C-32.42901197 38.26783767 -32.53317792 46.06460159 -32.6015625 54.34765625 C-32.6203063 55.79212002 -32.63988201 57.23657321 -32.6602478 58.68101501 C-32.71123635 62.45378334 -32.7510384 66.22658704 -32.78839111 69.99951172 C-32.82864135 73.86108916 -32.87963698 77.72252372 -32.9296875 81.58398438 C-33.02605196 89.13923158 -33.10958576 96.69453587 -33.1875 104.25 C-39.1275 104.25 -45.0675 104.25 -51.1875 104.25 C-51.1875 70.26 -51.1875 36.27 -51.1875 1.25 C-45.2475 1.25 -39.3075 1.25 -33.1875 1.25 C-32.8575 4.22 -32.5275 7.19 -32.1875 10.25 C-31.69121094 9.85167969 -31.19492188 9.45335937 -30.68359375 9.04296875 C-20.81041671 1.34301474 -12.32284613 0.05748266 0 0 Z " fill="#514A48" transform="translate(1968.1875,886.75)"/>
<path d="M0 0 C1.05687012 -0.01015137 2.11374023 -0.02030273 3.20263672 -0.03076172 C13.82419532 0.08720022 22.39348375 2.13886751 30.3125 9.4375 C32.8125 12.3125 32.8125 12.3125 34.3125 14.4375 C34.725 13.90640625 35.1375 13.3753125 35.5625 12.828125 C39.61504034 7.87099976 43.26271843 4.61974264 49.3125 2.4375 C50.28703125 2.08042969 51.2615625 1.72335937 52.265625 1.35546875 C57.74799219 -0.16254559 63.41875437 0.10893011 69.0625 0.125 C70.73699219 0.10083008 70.73699219 0.10083008 72.4453125 0.07617188 C82.06613959 0.07056533 91.67696959 1.07455799 99.3125 7.4375 C107.05287312 15.3578818 108.4814428 24.4213653 108.42602539 35.18701172 C108.42617142 35.93891281 108.42631744 36.6908139 108.4264679 37.46549988 C108.42577528 39.93275918 108.41801358 42.3999415 108.41015625 44.8671875 C108.40828975 46.58497069 108.40686694 48.30275442 108.40586853 50.02053833 C108.40206159 54.52829473 108.39224696 59.0360186 108.38116455 63.54376221 C108.37091115 68.148962 108.36636251 72.75416707 108.36132812 77.359375 C108.35062298 86.38543321 108.33304102 95.4114588 108.3125 104.4375 C102.3725 104.4375 96.4325 104.4375 90.3125 104.4375 C90.29062622 101.14567749 90.29062622 101.14567749 90.26831055 97.78735352 C90.21782034 90.51096426 90.15120032 83.23478577 90.07678509 75.95860386 C90.03218678 71.54997675 89.99290786 67.14143981 89.96606445 62.73266602 C89.93992575 58.47254318 89.89944985 54.2127693 89.84931374 49.95286369 C89.83271612 48.33314311 89.82115782 46.71336228 89.81488609 45.0935688 C90.11614343 31.18059383 90.11614343 31.18059383 84.25 19 C74.48898066 13.80796844 63.36579912 14.70019046 53.05078125 17.53125 C47.35548796 19.41614022 43.86643241 22.01416419 41.11459351 27.42703247 C37.66528895 36.07280103 37.97430725 45.47831215 37.8984375 54.6328125 C37.879688 56.07584696 37.86011189 57.5188709 37.8397522 58.96188354 C37.78882378 62.72641744 37.7489902 66.49098674 37.71160889 70.25567627 C37.67132019 74.11064118 37.62034244 77.96546389 37.5703125 81.8203125 C37.47401959 89.35928397 37.39045881 96.89831256 37.3125 104.4375 C31.7025 104.4375 26.0925 104.4375 20.3125 104.4375 C20.29791748 102.17712891 20.28333496 99.91675781 20.26831055 97.58789062 C20.21785925 90.09995407 20.15124578 82.61222318 20.07678509 75.12448883 C20.0321541 70.58691705 19.99288213 66.04943355 19.96606445 61.51171875 C19.93995869 57.12841165 19.89950536 52.7454456 19.84931374 48.36235046 C19.83269405 46.69435383 19.82114937 45.02629827 19.81488609 43.35823059 C19.80519126 41.01254958 19.77706983 38.66773148 19.74487305 36.32226562 C19.74630814 35.6403717 19.74774323 34.95847778 19.7492218 34.25592041 C19.65410542 29.32132822 18.73287152 24.75795621 16.3125 20.4375 C12.15207137 16.84654944 7.75574825 15.80653378 2.3125 15.4375 C1.57257812 15.3859375 0.83265625 15.334375 0.0703125 15.28125 C-8.95563732 14.9352072 -18.64200882 16.4488325 -25.6875 22.4375 C-32.31823696 28.87878733 -32.99388613 37.92042162 -33.15693378 46.72425652 C-33.18045539 48.83963933 -33.19010955 50.95482272 -33.19921875 53.0703125 C-33.21609745 54.55819143 -33.2342519 56.04605638 -33.25361633 57.53390503 C-33.30077674 61.41682564 -33.33080421 65.29968956 -33.35705566 69.18280029 C-33.38703432 73.15843906 -33.43350437 77.13388304 -33.47851562 81.109375 C-33.56416158 88.88533583 -33.63014943 96.66126957 -33.6875 104.4375 C-39.6275 104.4375 -45.5675 104.4375 -51.6875 104.4375 C-51.6875 70.4475 -51.6875 36.4575 -51.6875 1.4375 C-45.7475 1.4375 -39.8075 1.4375 -33.6875 1.4375 C-33.3575 4.4075 -33.0275 7.3775 -32.6875 10.4375 C-31.800625 9.53 -30.91375 8.6225 -30 7.6875 C-21.16124702 0.35949655 -10.99619207 0.07565818 0 0 Z " fill="#514A48" transform="translate(983.6875,886.5625)"/>
<path d="M0 0 C9.9 0 19.8 0 30 0 C33.01236877 6.02473754 35.89021178 11.85428777 38.390625 18.06640625 C38.6922052 18.80579941 38.9937854 19.54519257 39.30450439 20.30699158 C39.9520092 21.89554151 40.59778129 23.48479867 41.24194336 25.07470703 C43.00223791 29.41895539 44.77574129 33.75781854 46.546875 38.09765625 C46.91377441 38.99775421 47.28067383 39.89785217 47.65869141 40.82522583 C51.21745243 49.550084 54.82567496 58.2541014 58.44235229 66.95507812 C64.20031907 80.80995204 69.94367692 94.67092005 75.65185547 108.54638672 C76.32789676 110.18883875 77.0047793 111.83094485 77.68261719 113.47265625 C81.99201625 123.9128182 86.08347601 134.40553189 90 145 C83.4 145 76.8 145 70 145 C65.05 133.12 60.1 121.24 55 109 C28.6 109 2.2 109 -25 109 C-28.96 118.9 -32.92 128.8 -37 139 C-37.99 140.98 -38.98 142.96 -40 145 C-46.27 145 -52.54 145 -59 145 C-58.32438967 141.62194833 -57.79619176 139.18363392 -56.53564453 136.12329102 C-56.08603867 135.02241905 -56.08603867 135.02241905 -55.62734985 133.89930725 C-55.29915253 133.10882492 -54.9709552 132.31834259 -54.6328125 131.50390625 C-54.11356705 130.23824074 -54.11356705 130.23824074 -53.58383179 128.94700623 C-52.43519233 126.15037883 -51.28011874 123.35645673 -50.125 120.5625 C-49.31147668 118.5854396 -48.4983323 116.60822324 -47.68554688 114.63085938 C-45.12993649 108.41799212 -42.56545963 102.20880528 -40 96 C-39.19233197 94.04412907 -38.3847137 92.08823758 -37.57714844 90.13232422 C-34.43524631 82.52360931 -31.29280181 74.91512235 -28.14501953 67.30883789 C-24.04260849 57.39221343 -19.9590728 47.46825447 -15.90625 37.53125 C-15.49177612 36.51546875 -15.07730225 35.4996875 -14.65026855 34.453125 C-12.66263962 29.58075924 -10.6778093 24.70728128 -8.69726562 19.83203125 C-7.98575228 18.08590686 -7.27416765 16.33981151 -6.5625 14.59375 C-6.24462524 13.80842896 -5.92675049 13.02310791 -5.59924316 12.21398926 C-5.29965698 11.48015015 -5.0000708 10.74631104 -4.69140625 9.99023438 C-4.43560791 9.36064819 -4.17980957 8.73106201 -3.91625977 8.08239746 C-2.71056023 5.34218585 -1.33884062 2.67768124 0 0 Z M13 16 C9.49856291 22.75863947 6.41837905 29.59104567 3.6015625 36.66015625 C3.2035141 37.64890244 2.8054657 38.63764862 2.39535522 39.65635681 C1.13463315 42.79017329 -0.12039519 45.92623018 -1.375 49.0625 C-2.61992469 52.1639041 -3.86604168 55.26482622 -5.11260986 58.36557007 C-5.9229719 60.38237814 -6.7321912 62.39964578 -7.54022217 64.41738892 C-9.38471805 69.0172893 -11.24471338 73.60874092 -13.16113281 78.17919922 C-13.49069977 78.96693222 -13.82026672 79.75466522 -14.15982056 80.56626892 C-14.7688204 82.01632164 -15.38227385 83.46451546 -16.00106812 84.91041565 C-17.20867341 87.78600491 -18 89.84520152 -18 93 C4.11 93 26.22 93 49 93 C46.96609408 86.89828223 44.85858862 81.00948416 42.375 75.1015625 C42.03121811 74.27622513 41.68743622 73.45088776 41.33323669 72.60054016 C40.60160082 70.84485062 39.86857429 69.08974003 39.13424683 67.33517456 C37.21997582 62.76120665 35.31572511 58.18306721 33.41015625 53.60546875 C33.03254654 52.69916214 32.65493683 51.79285553 32.2658844 50.85908508 C28.95213225 42.9004246 25.68284594 34.92426554 22.4375 26.9375 C21.97923828 25.80973145 21.52097656 24.68196289 21.04882812 23.52001953 C20.0314381 21.01379537 19.0149996 18.507193 18 16 C16.35 16 14.7 16 13 16 Z " fill="#514A48" transform="translate(827,846)"/>
<path d="M0 0 C1.20720703 -0.01611328 2.41441406 -0.03222656 3.65820312 -0.04882812 C15.4511066 -0.05520611 25.85804675 1.81632566 34.87109375 9.8046875 C45.28775856 20.66295656 44.37438645 36.39376575 44.37280273 50.39697266 C44.37498204 52.54480036 44.39318333 54.6921068 44.41210938 56.83984375 C44.52902 84.9731035 44.52902 84.9731035 35.17578125 95.59765625 C30.33022698 100.2571683 25.7361431 102.86654048 19.1875 104.3125 C18.07749634 104.56833862 18.07749634 104.56833862 16.94506836 104.8293457 C11.52072156 105.77974697 5.99273543 105.53981446 0.5 105.5625 C-0.72912109 105.583125 -1.95824219 105.60375 -3.22460938 105.625 C-13.81535868 105.6701872 -23.38509741 104.18287671 -31.8125 97.3125 C-32.8025 95.9925 -33.7925 94.6725 -34.8125 93.3125 C-35.1425 109.8125 -35.4725 126.3125 -35.8125 143.3125 C-41.7525 143.3125 -47.6925 143.3125 -53.8125 143.3125 C-53.8125 96.4525 -53.8125 49.5925 -53.8125 1.3125 C-47.8725 1.3125 -41.9325 1.3125 -35.8125 1.3125 C-35.4825 4.9425 -35.1525 8.5725 -34.8125 12.3125 C-34.338125 11.590625 -33.86375 10.86875 -33.375 10.125 C-24.47354562 0.35511104 -12.38020545 -0.03273455 0 0 Z M-29.8125 23.3125 C-36.04694452 32.5514961 -35.9941846 41.82580154 -36 52.625 C-36.01224609 53.81029297 -36.02449219 54.99558594 -36.03710938 56.21679688 C-36.05483866 66.87209895 -35.40235006 76.21980273 -27.8125 84.3125 C-16.9945804 92.09912865 -2.72857319 92.49159364 10 90.5625 C14.49140613 89.63987164 17.7144415 88.43825265 21.1875 85.3125 C25.28399933 78.67334591 25.35434553 72.30234174 25.390625 64.734375 C25.39917511 63.3453598 25.39917511 63.3453598 25.40789795 61.92828369 C25.41732562 59.97156916 25.42387304 58.0148389 25.42773438 56.05810547 C25.43742135 53.08662732 25.46845842 50.11584675 25.5 47.14453125 C25.50653284 45.23698324 25.5117822 43.32943032 25.515625 41.421875 C25.5279718 40.54343933 25.5403186 39.66500366 25.55303955 38.75994873 C25.52738088 31.54331865 24.41449924 25.14139093 19.875 19.375 C7.49277128 9.87235935 -19.01218422 12.32873936 -29.8125 23.3125 Z " fill="#514A48" transform="translate(1172.8125,886.6875)"/>
<path d="M0 0 C1.17304688 -0.020625 2.34609375 -0.04125 3.5546875 -0.0625 C14.9458338 -0.11312732 27.16450132 1.67165556 35.66015625 10 C43.10380313 19.0713731 44.02680026 30.72027211 44.04296875 42.04296875 C44.04796135 43.2838903 44.04796135 43.2838903 44.05305481 44.54988098 C44.05809402 46.29374643 44.06046407 48.03762142 44.06030273 49.78149414 C44.06247927 52.41243922 44.08063971 55.04295756 44.09960938 57.67382812 C44.1983602 86.63987979 44.1983602 86.63987979 33.875 97.25 C24.09899247 105.19893816 11.85261286 105.74301031 -0.25 105.625 C-1.44753906 105.63660156 -2.64507813 105.64820313 -3.87890625 105.66015625 C-17.23271986 105.61627734 -25.57473301 102.80026699 -35.125 93.25 C-35.455 109.75 -35.785 126.25 -36.125 143.25 C-41.735 143.25 -47.345 143.25 -53.125 143.25 C-53.125 96.39 -53.125 49.53 -53.125 1.25 C-47.515 1.25 -41.905 1.25 -36.125 1.25 C-35.795 4.88 -35.465 8.51 -35.125 12.25 C-34.17625 11.1775 -33.2275 10.105 -32.25 9 C-23.44375197 0.15795421 -11.72740077 0.05054914 0 0 Z M-29.125 22.25 C-36.34128509 31.17540525 -36.30540199 41.62447007 -36.3125 52.5625 C-36.32474609 53.54412109 -36.33699219 54.52574219 -36.34960938 55.53710938 C-36.36937758 65.49369672 -35.51739889 74.97912133 -28.9375 82.875 C-19.64574211 90.72137333 -7.95550564 92.05093691 3.875 91.25 C10.34956818 90.55845734 15.88340268 89.74243759 20.875 85.25 C23.74557102 80.49871004 24.98710233 76.2954112 25.03613281 70.79199219 C25.04574036 69.91718201 25.0553479 69.04237183 25.06524658 68.14105225 C25.06949646 67.20247375 25.07374634 66.26389526 25.078125 65.296875 C25.08667511 63.83559174 25.08667511 63.83559174 25.09539795 62.3447876 C25.10483734 60.28374311 25.11137772 58.22268359 25.11523438 56.16162109 C25.12492141 53.02544449 25.1559475 49.88992862 25.1875 46.75390625 C25.19403246 44.74739971 25.19928198 42.7408885 25.203125 40.734375 C25.2154718 39.80389343 25.2278186 38.87341187 25.24053955 37.91473389 C25.21630885 30.74976478 24.18038579 25.11615531 19.5625 19.375 C7.62390089 9.93517745 -18.05430031 12.35346543 -29.125 22.25 Z " fill="#514A48" transform="translate(2158.125,886.75)"/>
<path d="M0 0 C2.67682701 0.01068982 5.35297893 0.00007712 8.02978516 -0.01269531 C34.52503653 -0.03515439 34.52503653 -0.03515439 42.81494141 6.26074219 C49.21394143 12.93978597 49.97043765 18.56240075 49.9284668 27.63110352 C49.92861282 28.46088715 49.92875885 29.29067078 49.9289093 30.14559937 C49.92821473 32.87801766 49.92044369 35.6103671 49.91259766 38.34277344 C49.91073186 40.24134789 49.90930872 42.13992282 49.90830994 44.03849792 C49.90449751 49.02795752 49.8946781 54.01738787 49.88360596 59.00683594 C49.87336443 64.10123295 49.86880644 69.19563471 49.86376953 74.29003906 C49.85305469 84.28028834 49.8354682 94.27050825 49.81494141 104.26074219 C44.53494141 104.26074219 39.25494141 104.26074219 33.81494141 104.26074219 C33.31994141 100.30074219 33.31994141 100.30074219 32.81494141 96.26074219 C32.37666016 96.6590625 31.93837891 97.05738281 31.48681641 97.46777344 C21.85906645 105.510467 10.38697516 105.73705873 -1.64013672 105.59692383 C-3.81433994 105.57319546 -5.98731967 105.57640568 -8.16162109 105.58300781 C-19.28802305 105.56090395 -31.0161397 105.35676165 -39.90771484 97.79589844 C-47.53410511 89.8322231 -47.63497703 80.05154592 -47.53442383 69.5949707 C-47.27229758 60.13265736 -45.93349159 52.93364972 -39.21240234 45.88574219 C-32.42259618 40.44343128 -22.74656435 40.10874232 -14.39990234 40.05761719 C-13.29359215 40.04906708 -13.29359215 40.04906708 -12.16493225 40.04034424 C-10.60760918 40.0309371 -9.05026659 40.0243774 -7.49291992 40.02050781 C-5.15360007 40.01087007 -2.81518592 39.97983513 -0.47607422 39.94824219 C10.694277 39.86696552 22.79440066 39.78657986 31.81494141 47.26074219 C32.7295464 32.16366617 32.7295464 32.16366617 27.87744141 18.32324219 C20.61649887 13.43321966 10.73589598 13.94237318 2.25244141 14.01074219 C1.28886719 14.00300781 0.32529297 13.99527344 -0.66748047 13.98730469 C-11.68993421 13.96188641 -11.68993421 13.96188641 -21.68505859 17.94824219 C-23.71914759 20.83697561 -23.71914759 20.83697561 -25.18505859 27.26074219 C-31.12505859 27.26074219 -37.06505859 27.26074219 -43.18505859 27.26074219 C-43.18505859 19.18915967 -42.94032377 14.72450412 -37.99755859 8.51074219 C-26.77376103 -0.46829587 -13.71210915 -0.06511687 0 0 Z M-26.18505859 59.26074219 C-29.92285816 64.70577201 -28.69310556 72.96095985 -28.18505859 79.26074219 C-26.98946037 83.60837207 -25.04882352 85.72088911 -21.18505859 88.13574219 C-14.34124398 90.70217267 -7.88447405 90.48084238 -0.62255859 90.51074219 C0.60269531 90.53136719 1.82794922 90.55199219 3.09033203 90.57324219 C12.8840532 90.61498421 23.12958386 89.96079748 30.81494141 83.26074219 C33.99918867 76.90322781 33.83543646 69.43561569 31.68994141 62.76074219 C26.75382976 56.17925999 19.93625705 55.02811851 12.25244141 53.79589844 C0.1294307 52.16787465 -16.43429925 50.76008019 -26.18505859 59.26074219 Z " fill="#514A48" transform="translate(2267.18505859375,886.7392578125)"/>
<path d="M0 0 C1.20831482 -0.00855011 1.20831482 -0.00855011 2.44104004 -0.01727295 C4.14557596 -0.02669823 5.8501299 -0.03324708 7.5546875 -0.03710938 C10.12013115 -0.04673942 12.68474664 -0.077754 15.25 -0.109375 C28.51947053 -0.19588088 41.95615752 0.34453394 52.65625 9.203125 C59.7504176 16.91352326 61.65625 25.98965095 61.65625 36.203125 C55.38625 36.203125 49.11625 36.203125 42.65625 36.203125 C42.40875 34.511875 42.16125 32.820625 41.90625 31.078125 C41.00322395 26.26610946 40.11288925 22.84169264 36.65625 19.203125 C24.58769094 12.55095628 5.12484527 13.80145251 -7.984375 16.44921875 C-11.8341484 17.67936157 -13.68847913 19.12860083 -16.34375 22.203125 C-20.28190663 30.64203206 -19.53009989 40.70906822 -19.52905273 49.81933594 C-19.53123077 51.93445227 -19.54941372 54.04903857 -19.56835938 56.1640625 C-19.86108151 71.39920325 -19.86108151 71.39920325 -14.34375 85.203125 C-5.70577205 93.06386158 10.78113883 90.70323276 21.65625 90.203125 C28.16224552 89.63677066 33.7093822 88.77897772 38.65625 84.203125 C42.28150768 78.20269849 42.26779215 72.1176748 42.65625 65.203125 C48.92625 65.203125 55.19625 65.203125 61.65625 65.203125 C62.07412642 75.92861973 61.05910865 86.8058525 53.65625 95.203125 C44.51157596 103.03125064 33.82184195 105.34293857 22.05859375 105.40625 C20.81342735 105.41480011 20.81342735 105.41480011 19.54310608 105.42352295 C17.78729516 105.43294858 16.03146674 105.43949722 14.27563477 105.44335938 C11.62678902 105.45300469 8.97874007 105.48402571 6.33007812 105.515625 C-7.76791392 105.60487907 -20.53607636 104.83696297 -31.125 94.45703125 C-40.16532876 83.79919269 -38.81402149 68.97410453 -38.73486328 55.87646484 C-38.71878579 52.71017364 -38.73477037 49.54515863 -38.75390625 46.37890625 C-38.77122416 30.80014154 -38.49381308 18.61461846 -27.15625 6.953125 C-18.78221838 1.74261644 -9.71281104 0.05398565 0 0 Z " fill="#514A48" transform="translate(2378.34375,886.796875)"/>
<path d="M0 0 C1.20398437 -0.02900391 2.40796875 -0.05800781 3.6484375 -0.08789062 C14.70436722 -0.16516325 25.72857855 1.33548018 33.9140625 9.3828125 C39.62545747 16.3321453 40.65684575 23.42693158 40.61352539 32.22387695 C40.61367142 33.00489273 40.61381744 33.78590851 40.6139679 34.59059143 C40.6132737 37.16068339 40.60550446 39.73070202 40.59765625 42.30078125 C40.59579032 44.08725444 40.59436724 45.87372814 40.59336853 47.66020203 C40.58955716 52.35374371 40.57973867 57.04725427 40.56866455 61.74078369 C40.55842075 66.53356505 40.55386455 71.32635146 40.54882812 76.11914062 C40.53811514 85.51694293 40.52052953 94.914714 40.5 104.3125 C34.89 104.3125 29.28 104.3125 23.5 104.3125 C23.470271 101.21029053 23.470271 101.21029053 23.43994141 98.04541016 C23.37276373 91.18017536 23.2951297 84.31508672 23.21247292 77.45002174 C23.16271879 73.29142153 23.11638853 69.13284417 23.078125 64.97412109 C23.04100632 60.95395969 22.99457782 56.93399994 22.94193649 52.91401291 C22.92353268 51.38721664 22.90837417 49.86037738 22.89665604 48.33351517 C23.07632945 33.82763428 23.07632945 33.82763428 18.5 20.3125 C9.59912248 13.86703697 -2.18673732 14.60072412 -12.5625 16 C-19.42267541 17.25372575 -24.74485277 19.77486439 -29.875 24.5 C-35.01613508 33.39811841 -34.96867799 42.94966904 -35.01171875 52.9453125 C-35.02859745 54.43319143 -35.0467519 55.92105638 -35.06611633 57.40890503 C-35.11327674 61.29182564 -35.14330421 65.17468956 -35.16955566 69.05780029 C-35.19953432 73.03343906 -35.24600437 77.00888304 -35.29101562 80.984375 C-35.37666158 88.76033583 -35.44264943 96.53626957 -35.5 104.3125 C-41.44 104.3125 -47.38 104.3125 -53.5 104.3125 C-53.5 70.3225 -53.5 36.3325 -53.5 1.3125 C-47.89 1.3125 -42.28 1.3125 -36.5 1.3125 C-36.17 4.6125 -35.84 7.9125 -35.5 11.3125 C-34.55125 10.405 -33.6025 9.4975 -32.625 8.5625 C-23.16804202 0.43182271 -11.88410673 0.09303841 0 0 Z " fill="#514A48" transform="translate(1602.5,886.6875)"/>
<path d="M0 0 C5.94 0 11.88 0 18 0 C18 7.59 18 15.18 18 23 C36.48 23 54.96 23 74 23 C74 27.62 74 32.24 74 37 C55.52 37 37.04 37 18 37 C18.08868374 44.95586499 18.17919623 52.91134027 18.28729248 60.86690521 C18.33711358 64.57212204 18.38360353 68.27731036 18.421875 71.98266602 C18.45890819 75.55544541 18.50531537 79.12799416 18.55806351 82.70057487 C18.57651214 84.05958931 18.59165481 85.41865301 18.60334396 86.77774239 C18.42374783 98.07827383 18.42374783 98.07827383 22.5625 108.3125 C29.07055237 112.81807472 37.83508125 112.66536796 45.42578125 111.6875 C48.94573957 111.04227033 51.47497773 110.36347695 54.4375 108.3125 C58.32591708 102.55764272 58.44733075 95.72414248 59 89 C64.94 89 70.88 89 77 89 C76.2683803 111.86311552 76.2683803 111.86311552 70.42578125 118.89453125 C61.07687885 127.52913549 49.72475934 127.20205302 37.75 127.25 C35.84154297 127.2809375 35.84154297 127.2809375 33.89453125 127.3125 C23.53522483 127.35526287 14.4386476 126.55526327 6.69140625 119.15234375 C-1.05876047 109.29012236 -0.14485798 95.70002389 -0.09765625 83.875 C-0.0957878 82.51879936 -0.09436592 81.16259804 -0.09336853 79.80639648 C-0.08957696 76.26204517 -0.07977595 72.71773579 -0.06866455 69.17340088 C-0.05837762 65.54659594 -0.05385541 61.91978412 -0.04882812 58.29296875 C-0.03815018 51.19529386 -0.02058117 44.0976541 0 37 C-4.62 37 -9.24 37 -14 37 C-14 32.38 -14 27.76 -14 23 C-9.38 23 -4.76 23 0 23 C0 15.41 0 7.82 0 0 Z " fill="#514A48" transform="translate(2466,865)"/>
<path d="M0 0 C6.27 0 12.54 0 19 0 C19 47.85 19 95.7 19 145 C12.73 145 6.46 145 0 145 C0 97.15 0 49.3 0 0 Z " fill="#514A48" transform="translate(1866,846)"/>
<path d="M0 0 C5.94 0 11.88 0 18 0 C18 47.85 18 95.7 18 145 C12.06 145 6.12 145 0 145 C0 97.15 0 49.3 0 0 Z " fill="#514A48" transform="translate(1240,846)"/>
<path d="M0 0 C5.94 0 11.88 0 18 0 C18 33.99 18 67.98 18 103 C12.06 103 6.12 103 0 103 C0 69.01 0 35.02 0 0 Z " fill="#514A48" transform="translate(1503,888)"/>
<path d="M0 0 C5.94 0 11.88 0 18 0 C18 33.99 18 67.98 18 103 C12.06 103 6.12 103 0 103 C0 69.01 0 35.02 0 0 Z " fill="#514A48" transform="translate(1286,888)"/>
<path d="M0 0 C5.94 0 11.88 0 18 0 C18 5.94 18 11.88 18 18 C12.06 18 6.12 18 0 18 C0 12.06 0 6.12 0 0 Z " fill="#514B48" transform="translate(1503,846)"/>
<path d="M0 0 C5.94 0 11.88 0 18 0 C18 5.94 18 11.88 18 18 C12.06 18 6.12 18 0 18 C0 12.06 0 6.12 0 0 Z " fill="#514A48" transform="translate(1286,846)"/>
</svg>
