<svg version="1.1" xmlns="http://www.w3.org/2000/svg" xmlns:xlink="http://www.w3.org/1999/xlink"
     width="100%" viewBox="0 0 960 540" xml:space="preserve" style="max-height:100vh;display:block;">
  <defs>
    <linearGradient id="bgGrad" x1="0%" y1="0%" x2="100%" y2="100%">
      <stop offset="0%"   stop-color="#0d1b2a"/>
      <stop offset="50%"  stop-color="#112240"/>
      <stop offset="100%" stop-color="#0a1520"/>
    </linearGradient>
    <filter id="glow" x="-50%" y="-50%" width="200%" height="200%">
      <feGaussianBlur stdDeviation="3.5" result="blur"/>
      <feMerge><feMergeNode in="blur"/><feMergeNode in="SourceGraphic"/></feMerge>
    </filter>
    <filter id="brightglow" x="-80%" y="-80%" width="260%" height="260%">
      <feGaussianBlur stdDeviation="7" result="blur"/>
      <feMerge><feMergeNode in="blur"/><feMergeNode in="SourceGraphic"/></feMerge>
    </filter>
    <filter id="subtleglow" x="-30%" y="-30%" width="160%" height="160%">
      <feGaussianBlur stdDeviation="2" result="blur"/>
      <feMerge><feMergeNode in="blur"/><feMergeNode in="SourceGraphic"/></feMerge>
    </filter>
    <pattern id="dots" width="28" height="28" patternUnits="userSpaceOnUse">
      <circle cx="14" cy="14" r="1.2" fill="#2a4a6a" opacity="0.5"/>
    </pattern>
    <pattern id="hexPat" width="22" height="25" patternUnits="userSpaceOnUse">
      <polygon points="11,0 22,6.4 22,18.7 11,25 0,18.7 0,6.4"
               fill="none" stroke="#1e5575" stroke-width="0.8" opacity="0.8"/>
    </pattern>
    <linearGradient id="ecgGrad" x1="0%" y1="0%" x2="100%" y2="0%">
      <stop offset="0%"   stop-color="#00e5c8" stop-opacity="0"/>
      <stop offset="15%"  stop-color="#00e5c8" stop-opacity="1"/>
      <stop offset="85%"  stop-color="#00e5c8" stop-opacity="1"/>
      <stop offset="100%" stop-color="#00e5c8" stop-opacity="0"/>
    </linearGradient>
    <!-- Fade masks so elements fade toward centre -->
    <linearGradient id="fadeRight" x1="0%" y1="0%" x2="100%" y2="0%">
      <stop offset="60%" stop-color="white" stop-opacity="1"/>
      <stop offset="100%" stop-color="white" stop-opacity="0"/>
    </linearGradient>
    <linearGradient id="fadeLeft" x1="0%" y1="0%" x2="100%" y2="0%">
      <stop offset="0%" stop-color="white" stop-opacity="0"/>
      <stop offset="40%" stop-color="white" stop-opacity="1"/>
    </linearGradient>
    <mask id="maskLeft">
      <rect x="0" y="0" width="220" height="540" fill="url(#fadeRight)"/>
    </mask>
    <mask id="maskRight">
      <rect x="740" y="0" width="220" height="540" fill="url(#fadeLeft)"/>
    </mask>
    <mask id="maskTop">
      <linearGradient id="fadeDown" x1="0%" y1="0%" x2="0%" y2="100%">
        <stop offset="60%" stop-color="white" stop-opacity="1"/>
        <stop offset="100%" stop-color="white" stop-opacity="0"/>
      </linearGradient>
      <rect x="0" y="0" width="960" height="130" fill="url(#fadeDown)"/>
    </mask>
    <mask id="maskBottom">
      <linearGradient id="fadeUp" x1="0%" y1="0%" x2="0%" y2="100%">
        <stop offset="0%"  stop-color="white" stop-opacity="0"/>
        <stop offset="40%" stop-color="white" stop-opacity="1"/>
      </linearGradient>
      <rect x="0" y="410" width="960" height="130" fill="url(#fadeUp)"/>
    </mask>
  </defs>

  <!-- BASE -->
  <rect width="960" height="540" fill="url(#bgGrad)"/>
  <rect width="960" height="540" fill="url(#dots)" opacity="0.7"/>

  <!-- Subtle grid lines (very faint, full canvas) -->
  <g stroke="#1e3a5a" stroke-width="0.4" opacity="0.25">
    <line x1="0" y1="180" x2="960" y2="180"/>
    <line x1="0" y1="360" x2="960" y2="360"/>
    <line x1="192" y1="0" x2="192" y2="540"/>
    <line x1="384" y1="0" x2="384" y2="540"/>
    <line x1="576" y1="0" x2="576" y2="540"/>
    <line x1="768" y1="0" x2="768" y2="540"/>
  </g>

  <!-- ============================================================
       LEFT COLUMN (x: 0–190) — Microscope + Cell View
       Elements stay within x=0..190, fading toward centre
       ============================================================ -->
  <g mask="url(#maskLeft)">

    <!-- MICROSCOPE (top-left, x:8..155, y:10..235) -->
    <g transform="translate(12, 8)">
      <text x="0" y="10" font-family="'Courier New',monospace" font-size="8" fill="#4ac8f0" opacity="0.9" font-weight="bold">Fluorescence Microscopy</text>
      <!-- Base -->
      <rect x="38" y="218" width="68" height="9" rx="4" fill="#2a5a8a" stroke="#3a8abf" stroke-width="1.5" opacity="0.95"/>
      <!-- Vertical arm -->
      <rect x="66" y="75" width="11" height="146" rx="3" fill="#1e4a72" stroke="#2e7aaf" stroke-width="1.2" opacity="0.95"/>
      <!-- Horizontal arm -->
      <rect x="30" y="75" width="75" height="10" rx="3" fill="#1e4a72" stroke="#2e7aaf" stroke-width="1.2" opacity="0.95"/>
      <!-- Focus knobs -->
      <ellipse cx="83" cy="138" rx="10" ry="7" fill="#3a7abf" stroke="#5aaaf0" stroke-width="1" opacity="0.9"/>
      <ellipse cx="63" cy="138" rx="10" ry="7" fill="#3a7abf" stroke="#5aaaf0" stroke-width="1" opacity="0.9"/>
      <!-- Nosepiece -->
      <ellipse cx="67" cy="87" rx="17" ry="7" fill="#255a8a" stroke="#4a9ad4" stroke-width="1.2" opacity="0.95"/>
      <!-- Objectives -->
      <rect x="52" y="87" width="7" height="26" rx="3" fill="#1e4870" stroke="#3a8ac0" stroke-width="1" opacity="0.9"/>
      <rect x="65" y="87" width="7" height="38" rx="3" fill="#1e4870" stroke="#3a8ac0" stroke-width="1" opacity="0.9" transform="rotate(-12 69 87)"/>
      <rect x="78" y="87" width="7" height="22" rx="3" fill="#1e4870" stroke="#3a8ac0" stroke-width="1" opacity="0.9" transform="rotate(12 82 87)"/>
      <!-- Stage -->
      <rect x="28" y="162" width="86" height="7" rx="2" fill="#2a5a8a" stroke="#4a9ad4" stroke-width="1.2" opacity="0.95"/>
      <!-- Condenser -->
      <rect x="56" y="169" width="33" height="20" rx="2" fill="#1e4a70" stroke="#3a8ac0" stroke-width="1" opacity="0.9"/>
      <ellipse cx="72" cy="189" rx="13" ry="4" fill="#245880" stroke="#4a9ad4" stroke-width="0.8" opacity="0.9"/>
      <!-- Light beam -->
      <polygon points="72,189 60,220 84,220" fill="#00ccff" opacity="0.12"/>
      <!-- Eyepiece tube -->
      <rect x="61" y="38" width="16" height="39" rx="4" fill="#1e4a72" stroke="#2e7aaf" stroke-width="1.2" opacity="0.95"/>
      <!-- Eyepiece cap -->
      <ellipse cx="69" cy="38" rx="13" ry="5" fill="#255a8a" stroke="#4a9ad4" stroke-width="1.2" opacity="0.95"/>
      <ellipse cx="69" cy="38" rx="5" ry="2.5" fill="#5ab4e8" opacity="0.5" filter="url(#subtleglow)"/>
    </g>

    <!-- MICROSCOPE FIELD OF VIEW (circular, x:centre≈95, y:centre≈370) -->
    <g transform="translate(95, 368)">
      <!-- Outer ring -->
      <circle cx="0" cy="0" r="75" fill="#05101a" stroke="#2a7ab5" stroke-width="2.5" opacity="0.95"/>
      <circle cx="0" cy="0" r="73" fill="none" stroke="#1a5a8a" stroke-width="1" opacity="0.6"/>
      <!-- Hex grid fill -->
      <circle cx="0" cy="0" r="72" fill="url(#hexPat)" opacity="0.6"/>
      <!-- Fluorescent cells -->
      <circle cx="-25" cy="-22" r="20" fill="#00c8a0" opacity="0.85" filter="url(#brightglow)"/>
      <circle cx="-25" cy="-22" r="9"  fill="#00ffcc" opacity="0.95"/>
      <circle cx="-25" cy="-22" r="3.5" fill="#ffffff" opacity="0.7"/>
      <circle cx="-25" cy="-22" r="7"  fill="#004d3a" opacity="0.55"/>

      <circle cx="28"  cy="18"  r="17" fill="#00b898" opacity="0.8" filter="url(#brightglow)"/>
      <circle cx="28"  cy="18"  r="7"  fill="#00ffcc" opacity="0.9"/>
      <circle cx="28"  cy="18"  r="2.5" fill="#ffffff" opacity="0.65"/>
      <circle cx="28"  cy="18"  r="6"  fill="#003d30" opacity="0.5"/>

      <circle cx="46"  cy="-30" r="14" fill="#e8127a" opacity="0.8" filter="url(#brightglow)"/>
      <circle cx="46"  cy="-30" r="6"  fill="#ff5dab" opacity="0.9"/>
      <circle cx="46"  cy="-30" r="2.5" fill="#ffffff" opacity="0.6"/>
      <circle cx="46"  cy="-30" r="5"  fill="#600030" opacity="0.5"/>

      <circle cx="-46" cy="26"  r="15" fill="#e8c200" opacity="0.75" filter="url(#brightglow)"/>
      <circle cx="-46" cy="26"  r="6"  fill="#ffec4f" opacity="0.9"/>
      <circle cx="-46" cy="26"  r="2.5" fill="#ffffff" opacity="0.6"/>
      <circle cx="-46" cy="26"  r="5"  fill="#4d3e00" opacity="0.5"/>

      <circle cx="8"   cy="-50" r="12" fill="#6a3fd4" opacity="0.75" filter="url(#brightglow)"/>
      <circle cx="8"   cy="-50" r="5"  fill="#b094f8" opacity="0.9"/>
      <circle cx="8"   cy="-50" r="2"  fill="#ffffff" opacity="0.6"/>

      <circle cx="-55" cy="-15" r="9"  fill="#00c8a0" opacity="0.7" filter="url(#glow)"/>
      <circle cx="57"  cy="30"  r="10" fill="#e8127a" opacity="0.65" filter="url(#glow)"/>
      <circle cx="-18" cy="50"  r="8"  fill="#6a3fd4" opacity="0.65" filter="url(#glow)"/>
      <circle cx="58"  cy="-8"  r="7"  fill="#e8c200" opacity="0.6" filter="url(#glow)"/>

      <!-- Crosshairs -->
      <line x1="-72" y1="0" x2="72" y2="0" stroke="#2a7ab5" stroke-width="0.8" opacity="0.45"/>
      <line x1="0" y1="-72" x2="0" y2="72" stroke="#2a7ab5" stroke-width="0.8" opacity="0.45"/>
      <!-- Scale bar -->
      <rect x="-60" y="60" width="36" height="2" fill="#4ac8f0" opacity="0.85"/>
      <text x="-60" y="72" font-family="'Courier New',monospace" font-size="7" fill="#4ac8f0" opacity="0.85">10 μm</text>
    </g>
    <!-- Cell view label -->
    <text x="95" y="460" font-family="'Courier New',monospace" font-size="7.5" fill="#00e8b0" opacity="0.88" text-anchor="middle">Ex Vivo 3D Spheroid · Cell Viability</text>

  </g><!-- end left mask -->


  <!-- ============================================================
       RIGHT COLUMN (x: 740–960) — PCA + DNA + KPI bars + keywords
       ============================================================ -->
  <g mask="url(#maskRight)">

    <!-- DNA HELIX (top-right corner, x:895..960, y:10..170) -->
    <g transform="translate(928, 15)">
      <text x="0" y="148" font-family="'Courier New',monospace" font-size="7" fill="#a78bfa" opacity="0.9" text-anchor="middle">Genomics</text>
      <path d="M-16,0 Q8,15 -16,30 Q-40,45 -16,60 Q8,75 -16,90 Q-40,105 -16,120 Q8,135 -16,138"
            fill="none" stroke="#a78bfa" stroke-width="2.5" opacity="0.9" filter="url(#glow)"/>
      <path d="M16,0 Q-8,15 16,30 Q40,45 16,60 Q-8,75 16,90 Q40,105 16,120 Q-8,135 16,138"
            fill="none" stroke="#818cf8" stroke-width="2.5" opacity="0.9" filter="url(#glow)"/>
      <line x1="-14" y1="8"   x2="14" y2="8"   stroke="#00e8b0" stroke-width="2" opacity="0.9"/>
      <line x1="-10" y1="18"  x2="10" y2="18"  stroke="#f472b6" stroke-width="2" opacity="0.9"/>
      <line x1="-14" y1="30"  x2="14" y2="30"  stroke="#fbbf24" stroke-width="2" opacity="0.9"/>
      <line x1="-10" y1="42"  x2="10" y2="42"  stroke="#00e8b0" stroke-width="2" opacity="0.9"/>
      <line x1="-14" y1="52"  x2="14" y2="52"  stroke="#f472b6" stroke-width="2" opacity="0.9"/>
      <line x1="-10" y1="60"  x2="10" y2="60"  stroke="#fbbf24" stroke-width="2" opacity="0.9"/>
      <line x1="-14" y1="72"  x2="14" y2="72"  stroke="#00e8b0" stroke-width="2" opacity="0.9"/>
      <line x1="-10" y1="82"  x2="10" y2="82"  stroke="#f472b6" stroke-width="2" opacity="0.9"/>
      <line x1="-14" y1="90"  x2="14" y2="90"  stroke="#fbbf24" stroke-width="2" opacity="0.9"/>
      <line x1="-10" y1="102" x2="10" y2="102" stroke="#00e8b0" stroke-width="2" opacity="0.9"/>
      <line x1="-14" y1="112" x2="14" y2="112" stroke="#f472b6" stroke-width="2" opacity="0.9"/>
      <line x1="-10" y1="120" x2="10" y2="120" stroke="#fbbf24" stroke-width="2" opacity="0.9"/>
    </g>

    <!-- PCA SCATTER (right side, x:centre≈835, y:centre≈280) -->
    <g transform="translate(840, 282)">
      <text x="0" y="-78" font-family="'Courier New',monospace" font-size="8" fill="#38bdf8" opacity="0.9" text-anchor="middle" font-weight="bold">PCA · Drug Response</text>
      <line x1="-70" y1="0"  x2="88"  y2="0"  stroke="#38bdf8" stroke-width="1.4" opacity="0.8"/>
      <line x1="0"   y1="68" x2="0"   y2="-72" stroke="#38bdf8" stroke-width="1.4" opacity="0.8"/>
      <polygon points="88,0 82,-3 82,3"    fill="#38bdf8" opacity="0.8"/>
      <polygon points="0,-72 -3,-66 3,-66" fill="#38bdf8" opacity="0.8"/>
      <text x="83" y="8"  font-family="Arial" font-size="7" fill="#38bdf8" opacity="0.85">PC1</text>
      <text x="4"  y="-65" font-family="Arial" font-size="7" fill="#38bdf8" opacity="0.85">PC2</text>
      <!-- Cluster 1 — teal -->
      <g fill="#00e8b0" opacity="0.9">
        <circle cx="-42" cy="-40" r="4.5"/>
        <circle cx="-32" cy="-30" r="3.5"/>
        <circle cx="-50" cy="-24" r="4"/>
        <circle cx="-24" cy="-38" r="3"/>
        <circle cx="-55" cy="-36" r="3.5"/>
        <circle cx="-36" cy="-52" r="3"/>
        <circle cx="-60" cy="-18" r="3"/>
      </g>
      <ellipse cx="-42" cy="-35" rx="26" ry="19" fill="none" stroke="#00e8b0" stroke-width="1.2" stroke-dasharray="4 2" opacity="0.7" transform="rotate(-15 -42 -35)"/>
      <!-- Cluster 2 — blue -->
      <g fill="#60a5fa" opacity="0.9">
        <circle cx="45" cy="30" r="4.5"/>
        <circle cx="55" cy="18" r="3.5"/>
        <circle cx="38" cy="42" r="4"/>
        <circle cx="62" cy="35" r="3"/>
        <circle cx="30" cy="24" r="3.5"/>
        <circle cx="68" cy="22" r="3"/>
      </g>
      <ellipse cx="48" cy="30" rx="26" ry="17" fill="none" stroke="#60a5fa" stroke-width="1.2" stroke-dasharray="4 2" opacity="0.7"/>
      <!-- Cluster 3 — purple -->
      <g fill="#c084fc" opacity="0.85">
        <circle cx="10"  cy="-10" r="4"/>
        <circle cx="-5"  cy="8"   r="3.5"/>
        <circle cx="18"  cy="5"   r="3"/>
        <circle cx="4"   cy="18"  r="3.5"/>
        <circle cx="-12" cy="-5"  r="3.5"/>
      </g>
      <ellipse cx="4" cy="4" rx="20" ry="15" fill="none" stroke="#c084fc" stroke-width="1.2" stroke-dasharray="4 2" opacity="0.65"/>
      <!-- Legend -->
      <circle cx="-68" cy="52" r="3.5" fill="#00e8b0" opacity="0.9"/>
      <text x="-61" y="56" font-family="Arial" font-size="6.5" fill="#00e8b0" opacity="0.9">Resp.</text>
      <circle cx="-30" cy="52" r="3.5" fill="#60a5fa" opacity="0.9"/>
      <text x="-23" y="56" font-family="Arial" font-size="6.5" fill="#60a5fa" opacity="0.9">Non-R.</text>
      <circle cx="16" cy="52" r="3.5" fill="#c084fc" opacity="0.9"/>
      <text x="23" y="56" font-family="Arial" font-size="6.5" fill="#c084fc" opacity="0.9">Mixed</text>
    </g>

    <!-- KEYWORDS (right edge, y:390–490) -->
    <g font-family="'Courier New',monospace" font-size="8" opacity="0.82" text-anchor="end">
      <text x="955" y="390" fill="#a78bfa">Population Health</text>
      <text x="955" y="406" fill="#38bdf8">Statistical Modelling</text>
      <text x="955" y="422" fill="#4ade80">Health Technology</text>
      <text x="955" y="438" fill="#fb923c">Performance Metrics</text>
      <text x="955" y="454" fill="#f472b6">Cancer Research</text>
      <text x="955" y="470" fill="#00e8b0">Python · R · SQL</text>
      <text x="955" y="486" fill="#fbbf24">Machine Learning</text>
    </g>

  </g><!-- end right mask -->


  <!-- ============================================================
       TOP STRIP (y: 0–120) — VGG19 + AI Agent (left & right of centre)
       Fades away toward centre-y
       ============================================================ -->
  <g mask="url(#maskTop)">

    <!-- VGG19 (top-left, x:10..340, y:20..110) -->
    <g transform="translate(210, 18)">
      <text x="0" y="11" font-family="'Courier New',monospace" font-size="8.5" fill="#5ab4ff" opacity="0.9" font-weight="bold">VGG19 · Cell Image Classification</text>
      <!-- Mini cell input image -->
      <rect x="0" y="16" width="38" height="38" rx="2" fill="#051520" stroke="#2a7ab5" stroke-width="1" opacity="0.95"/>
      <circle cx="10" cy="26" r="5"  fill="#00c8a0" opacity="0.85" filter="url(#glow)"/>
      <circle cx="22" cy="31" r="7"  fill="#e8127a" opacity="0.8"  filter="url(#glow)"/>
      <circle cx="32" cy="23" r="4"  fill="#e8c200" opacity="0.8"  filter="url(#glow)"/>
      <circle cx="10" cy="44" r="5"  fill="#6a3fd4" opacity="0.75" filter="url(#glow)"/>
      <circle cx="29" cy="46" r="4"  fill="#00c8a0" opacity="0.8"  filter="url(#glow)"/>
      <text x="10" y="65" font-family="Arial" font-size="6.5" fill="#4a9ad4" opacity="0.85">Input</text>
      <!-- Conv stacked layers -->
      <g transform="translate(50, 16)">
        <rect x="0"  y="0"  width="13" height="38" rx="1" fill="#1a5a8a" stroke="#3a9ad4" stroke-width="1"   opacity="0.9"/>
        <rect x="3"  y="0"  width="13" height="38" rx="1" fill="#1a5a8a" stroke="#3a9ad4" stroke-width="0.8" opacity="0.8"/>
        <text x="3" y="50" font-family="Arial" font-size="5.5" fill="#3a9ad4" opacity="0.85">C1</text>
        <rect x="25" y="5"  width="11" height="28" rx="1" fill="#1e508a" stroke="#4aaad4" stroke-width="1"   opacity="0.9"/>
        <rect x="28" y="5"  width="11" height="28" rx="1" fill="#1e508a" stroke="#4aaad4" stroke-width="0.8" opacity="0.8"/>
        <text x="26" y="45" font-family="Arial" font-size="5.5" fill="#4aaad4" opacity="0.85">C2</text>
        <rect x="48" y="8"  width="9"  height="22" rx="1" fill="#224888" stroke="#5ab4d4" stroke-width="1"   opacity="0.9"/>
        <rect x="51" y="8"  width="9"  height="22" rx="1" fill="#224888" stroke="#5ab4d4" stroke-width="0.8" opacity="0.8"/>
        <rect x="54" y="8"  width="9"  height="22" rx="1" fill="#224888" stroke="#5ab4d4" stroke-width="0.7" opacity="0.7"/>
        <text x="48" y="42" font-family="Arial" font-size="5.5" fill="#5ab4d4" opacity="0.85">C3</text>
        <rect x="73" y="6"  width="8"  height="26" rx="2" fill="#3a3a8a" stroke="#7a7af0" stroke-width="1"   opacity="0.9"/>
        <rect x="85" y="9"  width="8"  height="20" rx="2" fill="#3a3a8a" stroke="#7a7af0" stroke-width="1"   opacity="0.9"/>
        <text x="72" y="43" font-family="Arial" font-size="5.5" fill="#7a7af0" opacity="0.85">FC</text>
        <circle cx="104" cy="13" r="4" fill="#00e8b0" stroke="#00ffcc" stroke-width="0.8" opacity="0.9"/>
        <circle cx="104" cy="24" r="4" fill="#e8127a" stroke="#ff5dab" stroke-width="0.8" opacity="0.9"/>
        <circle cx="104" cy="35" r="4" fill="#e8c200" stroke="#ffec4f" stroke-width="0.8" opacity="0.9"/>
        <text x="99" y="48" font-family="Arial" font-size="5.5" fill="#a0e0ff" opacity="0.85">Out</text>
      </g>
    </g>

    <!-- AI AGENT (top-centre-right, x:550..780, y:10..130) -->
    <g transform="translate(555, 12)">
      <text x="0" y="11" font-family="'Courier New',monospace" font-size="8.5" fill="#c084fc" opacity="0.9" font-weight="bold">AI Agent · Decision Science</text>
      <!-- Central node -->
      <circle cx="110" cy="72" r="28" fill="#1e1060" stroke="#a855f7" stroke-width="2.5" opacity="0.95" filter="url(#glow)"/>
      <text x="110" y="68" font-family="Arial" font-size="8" fill="#e8d5ff" opacity="0.95" text-anchor="middle" font-weight="bold">LLM</text>
      <text x="110" y="79" font-family="Arial" font-size="7" fill="#c084fc" opacity="0.9"  text-anchor="middle">Agent</text>
      <!-- Satellite nodes -->
      <rect x="5"   y="28" width="50" height="22" rx="4" fill="#0e2040" stroke="#3b82f6" stroke-width="1.8" opacity="0.95"/>
      <text x="30" y="41" font-family="Arial" font-size="7" fill="#7dd3fc" text-anchor="middle" opacity="0.95">📊 Data</text>
      <line x1="55" y1="39" x2="82" y2="60" stroke="#3b82f6" stroke-width="1.5" opacity="0.8"/>
      <rect x="5"   y="80" width="50" height="22" rx="4" fill="#0e2040" stroke="#10b981" stroke-width="1.8" opacity="0.95"/>
      <text x="30" y="93" font-family="Arial" font-size="7" fill="#6ee7b7" text-anchor="middle" opacity="0.95">⚡ Analytics</text>
      <line x1="55" y1="91" x2="82" y2="82" stroke="#10b981" stroke-width="1.5" opacity="0.8"/>
      <rect x="170" y="28" width="50" height="22" rx="4" fill="#0e2040" stroke="#f59e0b" stroke-width="1.8" opacity="0.95"/>
      <text x="195" y="41" font-family="Arial" font-size="7" fill="#fcd34d" text-anchor="middle" opacity="0.95">📋 Reports</text>
      <line x1="138" y1="60" x2="170" y2="39" stroke="#f59e0b" stroke-width="1.5" opacity="0.8"/>
      <rect x="170" y="80" width="50" height="22" rx="4" fill="#0e2040" stroke="#ef4444" stroke-width="1.8" opacity="0.95"/>
      <text x="195" y="93" font-family="Arial" font-size="7" fill="#fca5a5" text-anchor="middle" opacity="0.95">🏥 Policy</text>
      <line x1="138" y1="82" x2="170" y2="91" stroke="#ef4444" stroke-width="1.5" opacity="0.8"/>
      <!-- Orbit ring -->
      <ellipse cx="110" cy="72" rx="50" ry="50" fill="none" stroke="#a855f7" stroke-width="0.8" stroke-dasharray="5 3" opacity="0.4"/>
    </g>

  </g><!-- end top mask -->


  <!-- ============================================================
       BOTTOM STRIP (y: 420–540) — ECG + Regression + Career pins
       ============================================================ -->
  <g mask="url(#maskBottom)">

    <!-- ECG WAVEFORM (bottom, spanning x:200..770) -->
    <g transform="translate(200, 462)">
      <text x="280" y="-8" font-family="'Courier New',monospace" font-size="8" fill="#22d3ee" opacity="0.85" text-anchor="middle">ECG · Vital Signs Monitoring</text>
      <polyline stroke="url(#ecgGrad)" stroke-width="2.2" fill="none" opacity="0.9" filter="url(#subtleglow)"
        points="0,22 14,22 24,22 27,6 29,38 31,6 34,22 48,22 62,22 65,12 67,20 70,12 72,20 76,22 90,22 104,22 107,6 109,38 111,6 114,22 128,22 142,22 145,12 147,20 150,12 152,20 156,22 170,22 184,22 187,6 189,38 191,6 194,22 208,22 222,22 225,12 227,20 230,12 232,20 236,22 250,22 264,22 267,6 269,38 271,6 274,22 288,22 302,22 305,12 307,20 310,12 312,20 316,22 330,22 344,22 347,6 349,38 351,6 354,22 368,22 382,22 385,12 387,20 390,12 392,20 396,22 410,22 424,22 427,6 429,38 431,6 434,22 448,22 462,22 465,12 467,20 470,12 472,20 476,22 490,22 504,22 507,6 509,38 511,6 514,22 528,22 542,22 545,12 547,20 550,12 552,20 556,22 570,22"/>
    </g>

    <!-- CAREER JOURNEY PINS (bottom, x:220..750, y:490..530) -->
    <g transform="translate(225, 496)">
      <line x1="5" y1="18" x2="520" y2="18" stroke="#64748b" stroke-width="1.5" stroke-dasharray="6 4" opacity="0.65"/>
      <!-- Bangladesh -->
      <line x1="5"   y1="4"  x2="5"   y2="22" stroke="#f472b6" stroke-width="2" opacity="0.9"/>
      <polygon points="5,4 0,12 10,12" fill="#f472b6" opacity="0.9"/>
      <text x="5"   y="34" font-family="Arial" font-size="7"   fill="#f472b6" opacity="0.9" text-anchor="middle">🇧🇩 Dhaka</text>
      <text x="5"   y="43" font-family="Arial" font-size="6"   fill="#f472b6" opacity="0.75" text-anchor="middle">MBBS · MPhil</text>
      <!-- Sheffield -->
      <line x1="262" y1="4"  x2="262" y2="22" stroke="#60a5fa" stroke-width="2" opacity="0.9"/>
      <polygon points="262,4 257,12 267,12" fill="#60a5fa" opacity="0.9"/>
      <text x="262" y="34" font-family="Arial" font-size="7"   fill="#60a5fa" opacity="0.9" text-anchor="middle">🇬🇧 Sheffield</text>
      <text x="262" y="43" font-family="Arial" font-size="6"   fill="#60a5fa" opacity="0.75" text-anchor="middle">MSc · PhD</text>
      <!-- Saskatchewan -->
      <line x1="520" y1="4"  x2="520" y2="22" stroke="#4ade80" stroke-width="2" opacity="0.9"/>
      <polygon points="520,4 515,12 525,12" fill="#4ade80" opacity="0.9"/>
      <text x="520" y="34" font-family="Arial" font-size="7"   fill="#4ade80" opacity="0.9" text-anchor="middle">🇨🇦 SK, Canada</text>
      <text x="520" y="43" font-family="Arial" font-size="6"   fill="#4ade80" opacity="0.75" text-anchor="middle">Decision Sci.</text>
    </g>

    <!-- REGRESSION snippet (bottom-left of bottom strip, x:10..190) -->
    <g transform="translate(10, 435)">
      <text x="0" y="-4" font-family="'Courier New',monospace" font-size="7.5" fill="#4ade80" opacity="0.88" font-weight="bold">Regression · Outcomes</text>
      <line x1="0" y1="0"  x2="0"   y2="82" stroke="#4ade80" stroke-width="1.2" opacity="0.75"/>
      <line x1="0" y1="82" x2="115" y2="82" stroke="#4ade80" stroke-width="1.2" opacity="0.75"/>
      <g fill="#86efac" opacity="0.85">
        <circle cx="8"   cy="76" r="3"/>
        <circle cx="18"  cy="68" r="2.5"/>
        <circle cx="30"  cy="60" r="3"/>
        <circle cx="44"  cy="52" r="2.5"/>
        <circle cx="55"  cy="44" r="3"/>
        <circle cx="68"  cy="36" r="2.5"/>
        <circle cx="80"  cy="28" r="3"/>
        <circle cx="94"  cy="18" r="2.5"/>
        <circle cx="106" cy="10" r="3"/>
      </g>
      <line x1="4" y1="79" x2="110" y2="7" stroke="#22d3ee" stroke-width="2.2" opacity="0.9" filter="url(#subtleglow)"/>
      <polygon points="110,7 104,10 107,15" fill="#22d3ee" opacity="0.9"/>
      <text x="38" y="52" font-family="'Courier New',monospace" font-size="7.5" fill="#22d3ee" opacity="0.9">R²=0.84</text>
    </g>

    <!-- KPI BARS (bottom-right, x:770..955, y:430..530) -->
    <g transform="translate(770, 428)">
      <text x="0" y="-6" font-family="'Courier New',monospace" font-size="8" fill="#fb923c" opacity="0.9" font-weight="bold">Health KPIs</text>
      <line x1="0" y1="0"  x2="0"   y2="78" stroke="#fb923c" stroke-width="1.2" opacity="0.75"/>
      <line x1="0" y1="78" x2="180" y2="78" stroke="#fb923c" stroke-width="1.2" opacity="0.75"/>
      <rect x="5"   y="22" width="20" height="56" fill="#00e8b0" opacity="0.85" rx="2"/>
      <text x="15"  y="18" font-family="Arial" font-size="5.5" fill="#a0f0d0" opacity="0.9" text-anchor="middle">ACS</text>
      <rect x="31"  y="34" width="20" height="44" fill="#38bdf8" opacity="0.85" rx="2"/>
      <text x="41"  y="30" font-family="Arial" font-size="5.5" fill="#a0e0ff" opacity="0.9" text-anchor="middle">Diab.</text>
      <rect x="57"  y="8"  width="20" height="70" fill="#fb923c" opacity="0.85" rx="2"/>
      <text x="67"  y="4"  font-family="Arial" font-size="5.5" fill="#ffd0a0" opacity="0.9" text-anchor="middle">COPD</text>
      <rect x="83"  y="40" width="20" height="38" fill="#c084fc" opacity="0.85" rx="2"/>
      <text x="93"  y="36" font-family="Arial" font-size="5.5" fill="#e0c0ff" opacity="0.9" text-anchor="middle">Readm.</text>
      <rect x="109" y="24" width="20" height="54" fill="#f472b6" opacity="0.85" rx="2"/>
      <text x="119" y="20" font-family="Arial" font-size="5.5" fill="#ffc0e0" opacity="0.9" text-anchor="middle">LOS</text>
      <rect x="135" y="44" width="20" height="34" fill="#4ade80" opacity="0.85" rx="2"/>
      <text x="145" y="40" font-family="Arial" font-size="5.5" fill="#a0f0c0" opacity="0.9" text-anchor="middle">ER</text>
      <rect x="161" y="30" width="18" height="48" fill="#fbbf24" opacity="0.85" rx="2"/>
      <text x="170" y="26" font-family="Arial" font-size="5.5" fill="#ffe0a0" opacity="0.9" text-anchor="middle">Mortal.</text>
    </g>

  </g><!-- end bottom mask -->


  <!-- CORNER ACCENT GLOWS (atmosphere, well outside centre) -->
  <circle cx="0"   cy="0"   r="90"  fill="#1e40af" opacity="0.10" filter="url(#brightglow)"/>
  <circle cx="960" cy="0"   r="100" fill="#7c3aed" opacity="0.09" filter="url(#brightglow)"/>
  <circle cx="0"   cy="540" r="90"  fill="#065f46" opacity="0.10" filter="url(#brightglow)"/>
  <circle cx="960" cy="540" r="100" fill="#9f1239" opacity="0.09" filter="url(#brightglow)"/>

</svg>
