<svg version="1.1" xmlns="http://www.w3.org/2000/svg" xmlns:xlink="http://www.w3.org/1999/xlink"
     width="100%" viewBox="0 0 960 540" xml:space="preserve" style="max-height:100vh;display:block;">
  <defs>
    <!-- Background gradient — dark navy, slightly lighter for contrast -->
    <linearGradient id="bgGrad" x1="0%" y1="0%" x2="100%" y2="100%">
      <stop offset="0%"   stop-color="#0d1b2a"/>
      <stop offset="50%"  stop-color="#112240"/>
      <stop offset="100%" stop-color="#0a1520"/>
    </linearGradient>
    <!-- Glow filters -->
    <filter id="glow" x="-50%" y="-50%" width="200%" height="200%">
      <feGaussianBlur stdDeviation="3.5" result="blur"/>
      <feMerge><feMergeNode in="blur"/><feMergeNode in="SourceGraphic"/></feMerge>
    </filter>
    <filter id="brightglow" x="-80%" y="-80%" width="260%" height="260%">
      <feGaussianBlur stdDeviation="6" result="blur"/>
      <feMerge><feMergeNode in="blur"/><feMergeNode in="SourceGraphic"/></feMerge>
    </filter>
    <filter id="subtleglow" x="-30%" y="-30%" width="160%" height="160%">
      <feGaussianBlur stdDeviation="2" result="blur"/>
      <feMerge><feMergeNode in="blur"/><feMergeNode in="SourceGraphic"/></feMerge>
    </filter>
    <!-- Dot grid pattern -->
    <pattern id="dots" width="28" height="28" patternUnits="userSpaceOnUse">
      <circle cx="14" cy="14" r="1.2" fill="#2a4a6a" opacity="0.6"/>
    </pattern>
    <!-- Hex cell grid pattern -->
    <pattern id="hexPat" width="22" height="25" patternUnits="userSpaceOnUse">
      <polygon points="11,0 22,6.4 22,18.7 11,25 0,18.7 0,6.4"
               fill="none" stroke="#1e5575" stroke-width="0.8" opacity="0.8"/>
    </pattern>
    <!-- Gradient for ECG line -->
    <linearGradient id="ecgGrad" x1="0%" y1="0%" x2="100%" y2="0%">
      <stop offset="0%"  stop-color="#00e5c8" stop-opacity="0"/>
      <stop offset="20%" stop-color="#00e5c8" stop-opacity="1"/>
      <stop offset="80%" stop-color="#00e5c8" stop-opacity="1"/>
      <stop offset="100%" stop-color="#00e5c8" stop-opacity="0"/>
    </linearGradient>
    <!-- Clip path for microscope view (circular) -->
    <clipPath id="scopeView">
      <circle cx="82" cy="360" r="50"/>
    </clipPath>
    <!-- Clip for full canvas -->
    <clipPath id="canvas"><rect x="0" y="0" width="960" height="540"/></clipPath>
  </defs>

  <!-- ===== BASE ===== -->
  <rect width="960" height="540" fill="url(#bgGrad)"/>
  <rect width="960" height="540" fill="url(#dots)" opacity="0.7"/>

  <!-- ===== SUBTLE GRID LINES ===== -->
  <g stroke="#1e3a5a" stroke-width="0.5" opacity="0.4">
    <line x1="0" y1="135" x2="960" y2="135"/>
    <line x1="0" y1="270" x2="960" y2="270"/>
    <line x1="0" y1="405" x2="960" y2="405"/>
    <line x1="240" y1="0" x2="240" y2="540"/>
    <line x1="480" y1="0" x2="480" y2="540"/>
    <line x1="720" y1="0" x2="720" y2="540"/>
  </g>

  <!-- =====================================================
       SECTION 1: MICROSCOPE (bottom-left) ~x:20-180 y:260-540
       ===================================================== -->
  <g transform="translate(18, 245)">
    <!-- Stand base -->
    <rect x="42" y="250" width="72" height="10" rx="5" fill="#2a5a8a" stroke="#3a8abf" stroke-width="1.5" opacity="0.95"/>
    <!-- Stand arm vertical -->
    <rect x="72" y="90" width="12" height="165" rx="3" fill="#1e4a72" stroke="#2e7aaf" stroke-width="1.2" opacity="0.95"/>
    <!-- Stand arm horizontal -->
    <rect x="35" y="90" width="80" height="11" rx="3" fill="#1e4a72" stroke="#2e7aaf" stroke-width="1.2" opacity="0.95"/>
    <!-- Coarse focus knobs -->
    <ellipse cx="88" cy="160" rx="10" ry="7" fill="#3a7abf" stroke="#5aaaf0" stroke-width="1" opacity="0.9"/>
    <ellipse cx="68" cy="160" rx="10" ry="7" fill="#3a7abf" stroke="#5aaaf0" stroke-width="1" opacity="0.9"/>
    <!-- Nosepiece (revolving) -->
    <ellipse cx="72" cy="102" rx="18" ry="8" fill="#255a8a" stroke="#4a9ad4" stroke-width="1.2" opacity="0.95"/>
    <!-- Objective lenses -->
    <rect x="56" y="102" width="8" height="30" rx="3" fill="#1e4870" stroke="#3a8ac0" stroke-width="1" opacity="0.9"/>
    <rect x="70" y="102" width="8" height="42" rx="3" fill="#1e4870" stroke="#3a8ac0" stroke-width="1" opacity="0.9" transform="rotate(-12 74 102)"/>
    <rect x="84" y="102" width="8" height="25" rx="3" fill="#1e4870" stroke="#3a8ac0" stroke-width="1" opacity="0.9" transform="rotate(12 88 102)"/>
    <!-- Stage platform -->
    <rect x="30" y="185" width="90" height="8" rx="2" fill="#2a5a8a" stroke="#4a9ad4" stroke-width="1.2" opacity="0.95"/>
    <!-- Condenser below stage -->
    <rect x="60" y="193" width="36" height="22" rx="2" fill="#1e4a70" stroke="#3a8ac0" stroke-width="1" opacity="0.9"/>
    <ellipse cx="78" cy="215" rx="14" ry="5" fill="#245880" stroke="#4a9ad4" stroke-width="0.8" opacity="0.9"/>
    <!-- Light source beam -->
    <polygon points="78,215 65,255 91,255" fill="#00ccff" opacity="0.15"/>
    <!-- Eyepiece tube -->
    <rect x="65" y="50" width="18" height="42" rx="4" fill="#1e4a72" stroke="#2e7aaf" stroke-width="1.2" opacity="0.95"/>
    <!-- Eyepiece top -->
    <ellipse cx="74" cy="50" rx="14" ry="6" fill="#255a8a" stroke="#4a9ad4" stroke-width="1.2" opacity="0.95"/>
    <!-- Eyepiece lens shine -->
    <ellipse cx="74" cy="50" rx="6" ry="3" fill="#5ab4e8" opacity="0.5" filter="url(#subtleglow)"/>
    <!-- LABEL -->
    <text x="3" y="274" font-family="'Courier New',monospace" font-size="8.5" fill="#4ac8f0" opacity="0.9" font-weight="bold">Fluorescence Microscopy</text>
  </g>

  <!-- =====================================================
       SECTION 2: CELL IMAGING / MICROSCOPE VIEW PANEL
       (circular "microscope field of view" + cells panel)
       Location: x≈150-330, y≈290-530
       ===================================================== -->
  <!-- Microscope field of view circle -->
  <g transform="translate(230, 380)">
    <!-- Outer ring of microscope eyepiece view -->
    <circle cx="0" cy="0" r="85" fill="#05101a" stroke="#2a7ab5" stroke-width="3" opacity="0.95"/>
    <circle cx="0" cy="0" r="83" fill="none" stroke="#1a5a8a" stroke-width="1" opacity="0.7"/>
    <!-- Hex grid inside -->
    <circle cx="0" cy="0" r="82" fill="url(#hexPat)" opacity="0.7"/>
    <!-- Fluorescent cells — vivid, high contrast -->
    <!-- Teal/cyan cells (healthy) -->
    <circle cx="-30" cy="-25" r="22" fill="#00c8a0" opacity="0.85" filter="url(#brightglow)"/>
    <circle cx="-30" cy="-25" r="10" fill="#00ffcc" opacity="0.95"/>
    <circle cx="-30" cy="-25" r="4" fill="#ffffff" opacity="0.7"/>
    <!-- nucleus dark -->
    <circle cx="-30" cy="-25" r="8" fill="#004d3a" opacity="0.6"/>

    <circle cx="30" cy="20" r="19" fill="#00b898" opacity="0.8" filter="url(#brightglow)"/>
    <circle cx="30" cy="20" r="8" fill="#00ffcc" opacity="0.9"/>
    <circle cx="30" cy="20" r="3" fill="#ffffff" opacity="0.65"/>
    <circle cx="30" cy="20" r="7" fill="#003d30" opacity="0.55"/>

    <!-- Magenta/red cells (stressed) -->
    <circle cx="50" cy="-35" r="16" fill="#e8127a" opacity="0.8" filter="url(#brightglow)"/>
    <circle cx="50" cy="-35" r="7" fill="#ff5dab" opacity="0.9"/>
    <circle cx="50" cy="-35" r="3" fill="#ffffff" opacity="0.6"/>
    <circle cx="50" cy="-35" r="6" fill="#600030" opacity="0.55"/>

    <!-- Yellow cells (proliferating) -->
    <circle cx="-50" cy="30" r="17" fill="#e8c200" opacity="0.75" filter="url(#brightglow)"/>
    <circle cx="-50" cy="30" r="7" fill="#ffec4f" opacity="0.9"/>
    <circle cx="-50" cy="30" r="3" fill="#ffffff" opacity="0.6"/>
    <circle cx="-50" cy="30" r="6" fill="#4d3e00" opacity="0.55"/>

    <!-- Blue/purple cells (apoptotic) -->
    <circle cx="10" cy="-55" r="14" fill="#6a3fd4" opacity="0.75" filter="url(#brightglow)"/>
    <circle cx="10" cy="-55" r="6" fill="#b094f8" opacity="0.9"/>
    <circle cx="10" cy="-55" r="2.5" fill="#ffffff" opacity="0.6"/>

    <!-- Small scattered cells -->
    <circle cx="-60" cy="-20" r="10" fill="#00c8a0" opacity="0.7" filter="url(#glow)"/>
    <circle cx="60" cy="35" r="11" fill="#e8127a" opacity="0.65" filter="url(#glow)"/>
    <circle cx="-20" cy="55" r="9" fill="#6a3fd4" opacity="0.65" filter="url(#glow)"/>
    <circle cx="65" cy="-10" r="8" fill="#e8c200" opacity="0.6" filter="url(#glow)"/>

    <!-- Crosshair lines -->
    <line x1="-82" y1="0" x2="82" y2="0" stroke="#2a7ab5" stroke-width="0.8" opacity="0.5"/>
    <line x1="0" y1="-82" x2="0" y2="82" stroke="#2a7ab5" stroke-width="0.8" opacity="0.5"/>
    <!-- Scale bar -->
    <rect x="-65" y="68" width="40" height="2" fill="#4ac8f0" opacity="0.85"/>
    <text x="-65" y="80" font-family="'Courier New',monospace" font-size="7" fill="#4ac8f0" opacity="0.85">10 μm</text>

    <!-- Legend -->
    <circle cx="-75" cy="-68" r="4" fill="#00ffcc" opacity="0.9"/>
    <text x="-68" y="-65" font-family="Arial" font-size="6.5" fill="#00ffcc" opacity="0.9">Viable</text>
    <circle cx="-20" cy="-68" r="4" fill="#ff5dab" opacity="0.9"/>
    <text x="-13" y="-65" font-family="Arial" font-size="6.5" fill="#ff5dab" opacity="0.9">Stressed</text>
    <circle cx="35" cy="-68" r="4" fill="#ffec4f" opacity="0.9"/>
    <text x="42" y="-65" font-family="Arial" font-size="6.5" fill="#ffec4f" opacity="0.9">Prolif.</text>
  </g>
  <!-- Label -->
  <text x="155" y="480" font-family="'Courier New',monospace" font-size="8" fill="#4ac8f0" opacity="0.9" text-anchor="middle">Ex Vivo 3D Spheroid · Cell Viability</text>

  <!-- =====================================================
       SECTION 3: VGG19 NEURAL NETWORK (top-left area)
       x≈30-350, y≈20-130
       ===================================================== -->
  <g transform="translate(35, 15)">
    <text x="0" y="12" font-family="'Courier New',monospace" font-size="9" fill="#5ab4ff" opacity="0.9" font-weight="bold">VGG19 · Cell Image Classification</text>
    <!-- Input image mini cells -->
    <rect x="0" y="18" width="40" height="40" rx="2" fill="#051520" stroke="#2a7ab5" stroke-width="1" opacity="0.95"/>
    <circle cx="10" cy="28" r="5" fill="#00c8a0" opacity="0.85" filter="url(#glow)"/>
    <circle cx="22" cy="33" r="7" fill="#e8127a" opacity="0.8" filter="url(#glow)"/>
    <circle cx="33" cy="25" r="4" fill="#e8c200" opacity="0.8" filter="url(#glow)"/>
    <circle cx="10" cy="46" r="6" fill="#6a3fd4" opacity="0.75" filter="url(#glow)"/>
    <circle cx="30" cy="50" r="5" fill="#00c8a0" opacity="0.8" filter="url(#glow)"/>
    <text x="12" y="70" font-family="Arial" font-size="6.5" fill="#4a9ad4" opacity="0.85">Input</text>

    <!-- Conv layers as stacked rects -->
    <g transform="translate(52, 18)">
      <!-- Conv Block 1 -->
      <rect x="0"  y="0"  width="14" height="40" rx="1" fill="#1a5a8a" stroke="#3a9ad4" stroke-width="1" opacity="0.9"/>
      <rect x="3"  y="0"  width="14" height="40" rx="1" fill="#1a5a8a" stroke="#3a9ad4" stroke-width="0.8" opacity="0.8"/>
      <text x="3" y="52" font-family="Arial" font-size="5.5" fill="#3a9ad4" opacity="0.85">C1</text>
      <!-- Conv Block 2 -->
      <rect x="26" y="4"  width="12" height="32" rx="1" fill="#1e508a" stroke="#4aaad4" stroke-width="1" opacity="0.9"/>
      <rect x="29" y="4"  width="12" height="32" rx="1" fill="#1e508a" stroke="#4aaad4" stroke-width="0.8" opacity="0.8"/>
      <text x="27" y="48" font-family="Arial" font-size="5.5" fill="#4aaad4" opacity="0.85">C2</text>
      <!-- Conv Block 3 -->
      <rect x="50" y="7"  width="10" height="26" rx="1" fill="#224888" stroke="#5ab4d4" stroke-width="1" opacity="0.9"/>
      <rect x="53" y="7"  width="10" height="26" rx="1" fill="#224888" stroke="#5ab4d4" stroke-width="0.8" opacity="0.8"/>
      <rect x="56" y="7"  width="10" height="26" rx="1" fill="#224888" stroke="#5ab4d4" stroke-width="0.7" opacity="0.7"/>
      <text x="50" y="44" font-family="Arial" font-size="5.5" fill="#5ab4d4" opacity="0.85">C3</text>
      <!-- FC layers -->
      <rect x="79" y="5"  width="8" height="30" rx="2" fill="#3a3a8a" stroke="#7a7af0" stroke-width="1" opacity="0.9"/>
      <rect x="91" y="8"  width="8" height="24" rx="2" fill="#3a3a8a" stroke="#7a7af0" stroke-width="1" opacity="0.9"/>
      <text x="76" y="47" font-family="Arial" font-size="5.5" fill="#7a7af0" opacity="0.85">FC</text>
      <!-- Output nodes -->
      <circle cx="110" cy="12" r="4" fill="#00e8b0" stroke="#00ffcc" stroke-width="0.8" opacity="0.9"/>
      <circle cx="110" cy="24" r="4" fill="#e8127a" stroke="#ff5dab" stroke-width="0.8" opacity="0.9"/>
      <circle cx="110" cy="36" r="4" fill="#e8c200" stroke="#ffec4f" stroke-width="0.8" opacity="0.9"/>
      <text x="104" y="50" font-family="Arial" font-size="5.5" fill="#a0e0ff" opacity="0.85">Out</text>
      <!-- Arrows -->
      <line x1="16" y1="20" x2="24" y2="20" stroke="#3a9ad4" stroke-width="1" opacity="0.8" marker-end="url(#arr)"/>
      <line x1="42" y1="20" x2="48" y2="20" stroke="#4aaad4" stroke-width="1" opacity="0.8"/>
      <line x1="68" y1="20" x2="77" y2="20" stroke="#5ab4d4" stroke-width="1" opacity="0.8"/>
      <line x1="89" y1="20" x2="89" y2="20" stroke="#7a7af0" stroke-width="1" opacity="0.8"/>
      <line x1="101" y1="20" x2="105" y2="20" stroke="#7a7af0" stroke-width="1" opacity="0.8"/>
    </g>
  </g>

  <!-- =====================================================
       SECTION 4: AI AGENT DIAGRAM (top-centre/right)
       x≈350-650, y≈15-160
       ===================================================== -->
  <g transform="translate(360, 20)">
    <text x="0" y="12" font-family="'Courier New',monospace" font-size="9" fill="#c084fc" opacity="0.9" font-weight="bold">AI Agent · Decision Science</text>
    <!-- Central brain/AI node -->
    <circle cx="140" cy="80" r="32" fill="#1e1060" stroke="#a855f7" stroke-width="2.5" opacity="0.95" filter="url(#glow)"/>
    <text x="140" y="76" font-family="Arial" font-size="8.5" fill="#e8d5ff" opacity="0.95" text-anchor="middle" font-weight="bold">LLM</text>
    <text x="140" y="87" font-family="Arial" font-size="7" fill="#c084fc" opacity="0.9" text-anchor="middle">Agent</text>
    <!-- Satellite nodes -->
    <!-- Data node -->
    <rect x="28" y="38" width="52" height="26" rx="5" fill="#0e2040" stroke="#3b82f6" stroke-width="1.8" opacity="0.95"/>
    <text x="54" y="53" font-family="Arial" font-size="7.5" fill="#7dd3fc" text-anchor="middle" opacity="0.95">📊 Health Data</text>
    <line x1="80" y1="51" x2="108" y2="70" stroke="#3b82f6" stroke-width="1.5" opacity="0.8"/>
    <!-- Analysis node -->
    <rect x="28" y="93" width="55" height="26" rx="5" fill="#0e2040" stroke="#10b981" stroke-width="1.8" opacity="0.95"/>
    <text x="55" y="108" font-family="Arial" font-size="7.5" fill="#6ee7b7" text-anchor="middle" opacity="0.95">⚡ Analytics</text>
    <line x1="83" y1="106" x2="108" y2="90" stroke="#10b981" stroke-width="1.5" opacity="0.8"/>
    <!-- Report node -->
    <rect x="215" y="38" width="55" height="26" rx="5" fill="#0e2040" stroke="#f59e0b" stroke-width="1.8" opacity="0.95"/>
    <text x="242" y="53" font-family="Arial" font-size="7.5" fill="#fcd34d" text-anchor="middle" opacity="0.95">📋 Reports</text>
    <line x1="172" y1="70" x2="215" y2="51" stroke="#f59e0b" stroke-width="1.5" opacity="0.8"/>
    <!-- Policy node -->
    <rect x="215" y="93" width="55" height="26" rx="5" fill="#0e2040" stroke="#ef4444" stroke-width="1.8" opacity="0.95"/>
    <text x="242" y="108" font-family="Arial" font-size="7.5" fill="#fca5a5" text-anchor="middle" opacity="0.95">🏥 Policy</text>
    <line x1="172" y1="90" x2="215" y2="106" stroke="#ef4444" stroke-width="1.5" opacity="0.8"/>
    <!-- Orbit ring -->
    <ellipse cx="140" cy="80" rx="58" ry="58" fill="none" stroke="#a855f7" stroke-width="0.8" stroke-dasharray="5 3" opacity="0.45"/>
  </g>

  <!-- =====================================================
       SECTION 5: PCA SCATTER PLOT (right-centre)
       x≈700-870, y≈200-380
       ===================================================== -->
  <g transform="translate(765, 295)">
    <!-- Title -->
    <text x="0" y="-88" font-family="'Courier New',monospace" font-size="8.5" fill="#38bdf8" opacity="0.9" text-anchor="middle" font-weight="bold">PCA · Drug Response</text>
    <!-- Axes -->
    <line x1="-75" y1="0"   x2="95"  y2="0"   stroke="#38bdf8" stroke-width="1.5" opacity="0.85"/>
    <line x1="0"   y1="75"  x2="0"   y2="-80" stroke="#38bdf8" stroke-width="1.5" opacity="0.85"/>
    <!-- Axis arrow tips -->
    <polygon points="95,0 89,-3 89,3" fill="#38bdf8" opacity="0.85"/>
    <polygon points="0,-80 -3,-74 3,-74" fill="#38bdf8" opacity="0.85"/>
    <text x="90" y="8"  font-family="Arial" font-size="8" fill="#38bdf8" opacity="0.9">PC1</text>
    <text x="5"  y="-72" font-family="Arial" font-size="8" fill="#38bdf8" opacity="0.9">PC2</text>
    <!-- Cluster 1 — teal (responders) -->
    <g fill="#00e8b0" opacity="0.9">
      <circle cx="-45" cy="-42" r="5"/>
      <circle cx="-35" cy="-32" r="4"/>
      <circle cx="-52" cy="-25" r="4.5"/>
      <circle cx="-25" cy="-40" r="3.5"/>
      <circle cx="-58" cy="-38" r="4"/>
      <circle cx="-38" cy="-55" r="3.5"/>
      <circle cx="-62" cy="-20" r="3.5"/>
    </g>
    <ellipse cx="-43" cy="-37" rx="28" ry="20" fill="none" stroke="#00e8b0" stroke-width="1.2" stroke-dasharray="4 2" opacity="0.7" transform="rotate(-15 -43 -37)"/>
    <!-- Cluster 2 — blue (non-responders) -->
    <g fill="#60a5fa" opacity="0.9">
      <circle cx="48"  cy="33"  r="5"/>
      <circle cx="58"  cy="20"  r="4"/>
      <circle cx="40"  cy="45"  r="4.5"/>
      <circle cx="65"  cy="38"  r="3.5"/>
      <circle cx="33"  cy="28"  r="4"/>
      <circle cx="72"  cy="25"  r="3.5"/>
    </g>
    <ellipse cx="52" cy="33" rx="28" ry="18" fill="none" stroke="#60a5fa" stroke-width="1.2" stroke-dasharray="4 2" opacity="0.7"/>
    <!-- Cluster 3 — purple (mixed) -->
    <g fill="#c084fc" opacity="0.85">
      <circle cx="12"  cy="-12" r="4.5"/>
      <circle cx="-6"  cy="9"   r="4"/>
      <circle cx="20"  cy="6"   r="3.5"/>
      <circle cx="5"   cy="20"  r="4"/>
      <circle cx="-14" cy="-6"  r="4"/>
    </g>
    <ellipse cx="4" cy="4" rx="22" ry="16" fill="none" stroke="#c084fc" stroke-width="1.2" stroke-dasharray="4 2" opacity="0.65"/>
    <!-- Legend -->
    <circle cx="-72" cy="57" r="4" fill="#00e8b0" opacity="0.9"/>
    <text x="-64" y="61" font-family="Arial" font-size="7" fill="#00e8b0" opacity="0.9">Resp.</text>
    <circle cx="-32" cy="57" r="4" fill="#60a5fa" opacity="0.9"/>
    <text x="-24" y="61" font-family="Arial" font-size="7" fill="#60a5fa" opacity="0.9">Non-R.</text>
    <circle cx="18" cy="57" r="4" fill="#c084fc" opacity="0.9"/>
    <text x="26" y="61" font-family="Arial" font-size="7" fill="#c084fc" opacity="0.9">Mixed</text>
  </g>

  <!-- =====================================================
       SECTION 6: HEALTH KPI BAR CHART (bottom-right)
       x≈680-960, y≈390-530
       ===================================================== -->
  <g transform="translate(682, 400)">
    <text x="0" y="-8" font-family="'Courier New',monospace" font-size="8.5" fill="#fb923c" opacity="0.9" font-weight="bold">Population Health KPIs</text>
    <!-- Axes -->
    <line x1="0" y1="0" x2="0" y2="95" stroke="#fb923c" stroke-width="1.2" opacity="0.8"/>
    <line x1="0" y1="95" x2="265" y2="95" stroke="#fb923c" stroke-width="1.2" opacity="0.8"/>
    <!-- Bars -->
    <rect x="8"  y="25" width="28" height="70" fill="#00e8b0" opacity="0.85" rx="2"/>
    <text x="22" y="20" font-family="Arial" font-size="6" fill="#a0f0d0" opacity="0.9" text-anchor="middle">ACS</text>
    <rect x="46" y="40" width="28" height="55" fill="#38bdf8" opacity="0.85" rx="2"/>
    <text x="60" y="35" font-family="Arial" font-size="6" fill="#a0e0ff" opacity="0.9" text-anchor="middle">Diab.</text>
    <rect x="84" y="10" width="28" height="85" fill="#fb923c" opacity="0.85" rx="2"/>
    <text x="98" y="5"  font-family="Arial" font-size="6" fill="#ffd0a0" opacity="0.9" text-anchor="middle">COPD</text>
    <rect x="122" y="48" width="28" height="47" fill="#c084fc" opacity="0.85" rx="2"/>
    <text x="136" y="43" font-family="Arial" font-size="6" fill="#e0c0ff" opacity="0.9" text-anchor="middle">Readm.</text>
    <rect x="160" y="30" width="28" height="65" fill="#f472b6" opacity="0.85" rx="2"/>
    <text x="174" y="25" font-family="Arial" font-size="6" fill="#ffc0e0" opacity="0.9" text-anchor="middle">Mortal.</text>
    <rect x="198" y="55" width="28" height="40" fill="#4ade80" opacity="0.85" rx="2"/>
    <text x="212" y="50" font-family="Arial" font-size="6" fill="#a0f0c0" opacity="0.9" text-anchor="middle">LOS</text>
    <rect x="236" y="35" width="22" height="60" fill="#fbbf24" opacity="0.85" rx="2"/>
    <text x="247" y="30" font-family="Arial" font-size="6" fill="#ffe0a0" opacity="0.9" text-anchor="middle">ER</text>
    <!-- Horizontal reference lines -->
    <line x1="0" y1="47" x2="265" y2="47" stroke="#ffffff" stroke-width="0.6" stroke-dasharray="3 3" opacity="0.25"/>
    <line x1="0" y1="23" x2="265" y2="23" stroke="#ffffff" stroke-width="0.6" stroke-dasharray="3 3" opacity="0.2"/>
    <!-- Y-axis ticks -->
    <text x="-5" y="50" font-family="Arial" font-size="5.5" fill="#fb923c" text-anchor="end" opacity="0.8">50%</text>
    <text x="-5" y="26" font-family="Arial" font-size="5.5" fill="#fb923c" text-anchor="end" opacity="0.8">75%</text>
    <text x="-5" y="98" font-family="Arial" font-size="5.5" fill="#fb923c" text-anchor="end" opacity="0.8">0%</text>
  </g>

  <!-- =====================================================
       SECTION 7: REGRESSION LINE (centre-left area)
       x≈350-520, y≈180-320
       ===================================================== -->
  <g transform="translate(370, 195)">
    <text x="0" y="-8" font-family="'Courier New',monospace" font-size="8.5" fill="#4ade80" opacity="0.9" font-weight="bold">Regression · Outcome Modelling</text>
    <!-- Axes -->
    <line x1="0" y1="0" x2="0" y2="110" stroke="#4ade80" stroke-width="1.2" opacity="0.8"/>
    <line x1="0" y1="110" x2="145" y2="110" stroke="#4ade80" stroke-width="1.2" opacity="0.8"/>
    <text x="138" y="118" font-family="Arial" font-size="7" fill="#4ade80" opacity="0.85">x</text>
    <text x="4"   y="-2"  font-family="Arial" font-size="7" fill="#4ade80" opacity="0.85">y</text>
    <!-- Scatter points -->
    <g fill="#86efac" opacity="0.85">
      <circle cx="10"  cy="98"  r="3.5"/>
      <circle cx="22"  cy="88"  r="3"/>
      <circle cx="35"  cy="80"  r="3.5"/>
      <circle cx="50"  cy="72"  r="3"/>
      <circle cx="60"  cy="60"  r="3.5"/>
      <circle cx="75"  cy="52"  r="3"/>
      <circle cx="90"  cy="42"  r="3.5"/>
      <circle cx="105" cy="35"  r="3"/>
      <circle cx="118" cy="22"  r="3.5"/>
      <circle cx="132" cy="15"  r="3"/>
    </g>
    <!-- Scatter noise -->
    <g fill="#86efac" opacity="0.6">
      <circle cx="18"  cy="92"  r="2.5"/>
      <circle cx="45"  cy="65"  r="2"/>
      <circle cx="68"  cy="55"  r="2.5"/>
      <circle cx="85"  cy="38"  r="2"/>
      <circle cx="110" cy="28"  r="2.5"/>
    </g>
    <!-- Regression line -->
    <line x1="5" y1="103" x2="138" y2="10" stroke="#22d3ee" stroke-width="2.5" opacity="0.9" filter="url(#subtleglow)"/>
    <!-- Confidence band -->
    <polygon points="5,108 138,18 138,5 5,96" fill="#22d3ee" opacity="0.12"/>
    <!-- R² label -->
    <text x="60" y="70" font-family="'Courier New',monospace" font-size="8" fill="#22d3ee" opacity="0.9">R²=0.84</text>
  </g>

  <!-- =====================================================
       SECTION 8: DNA HELIX (right side, mid)
       x≈880-960, y≈100-230
       ===================================================== -->
  <g transform="translate(918, 110)">
    <text x="0" y="135" font-family="'Courier New',monospace" font-size="7" fill="#a78bfa" opacity="0.9" text-anchor="middle">Genomics</text>
    <!-- DNA helix strands -->
    <!-- Strand 1 (left) -->
    <path d="M-16,0 Q8,15 -16,30 Q-40,45 -16,60 Q8,75 -16,90 Q-40,105 -16,120"
          fill="none" stroke="#a78bfa" stroke-width="2.5" opacity="0.9" filter="url(#glow)"/>
    <!-- Strand 2 (right) -->
    <path d="M16,0 Q-8,15 16,30 Q40,45 16,60 Q-8,75 16,90 Q40,105 16,120"
          fill="none" stroke="#818cf8" stroke-width="2.5" opacity="0.9" filter="url(#glow)"/>
    <!-- Base pairs (rungs) -->
    <line x1="-14" y1="8"  x2="14" y2="8"  stroke="#00e8b0" stroke-width="2" opacity="0.9"/>
    <line x1="-10" y1="18" x2="10" y2="18" stroke="#f472b6" stroke-width="2" opacity="0.9"/>
    <line x1="-14" y1="30" x2="14" y2="30" stroke="#fbbf24" stroke-width="2" opacity="0.9"/>
    <line x1="-10" y1="42" x2="10" y2="42" stroke="#00e8b0" stroke-width="2" opacity="0.9"/>
    <line x1="-14" y1="52" x2="14" y2="52" stroke="#f472b6" stroke-width="2" opacity="0.9"/>
    <line x1="-10" y1="60" x2="10" y2="60" stroke="#fbbf24" stroke-width="2" opacity="0.9"/>
    <line x1="-14" y1="72" x2="14" y2="72" stroke="#00e8b0" stroke-width="2" opacity="0.9"/>
    <line x1="-10" y1="82" x2="10" y2="82" stroke="#f472b6" stroke-width="2" opacity="0.9"/>
    <line x1="-14" y1="90" x2="14" y2="90" stroke="#fbbf24" stroke-width="2" opacity="0.9"/>
    <line x1="-10" y1="102" x2="10" y2="102" stroke="#00e8b0" stroke-width="2" opacity="0.9"/>
    <line x1="-14" y1="112" x2="14" y2="112" stroke="#f472b6" stroke-width="2" opacity="0.9"/>
    <line x1="-10" y1="120" x2="10" y2="120" stroke="#fbbf24" stroke-width="2" opacity="0.9"/>
  </g>

  <!-- =====================================================
       SECTION 9: ECG WAVEFORM (bottom strip across centre)
       y≈470-520
       ===================================================== -->
  <g transform="translate(335, 482)">
    <text x="0" y="-6" font-family="'Courier New',monospace" font-size="8" fill="#22d3ee" opacity="0.85">ECG · Vital Signs Monitoring</text>
    <polyline stroke="url(#ecgGrad)" stroke-width="2" fill="none" opacity="0.9" filter="url(#subtleglow)"
      points="0,20 15,20 25,20 28,5 30,35 32,5 35,20 50,20 65,20 68,10 70,18 73,10 75,18 80,20 95,20 110,20 113,5 115,35 117,5 120,20 135,20 150,20 153,10 155,18 158,10 160,18 165,20 180,20 195,20 198,5 200,35 202,5 205,20 220,20 235,20 238,10 240,18 243,10 245,18 250,20 265,20 280,20 283,5 285,35 287,5 290,20 305,20 320,20 323,10 325,18 328,10 330,18 335,20 350,20"/>
  </g>

  <!-- =====================================================
       SECTION 10: CAREER JOURNEY / LOCATION PINS (centre-top strip)
       ===================================================== -->
  <g transform="translate(370, 155)">
    <!-- Journey line -->
    <line x1="5" y1="20" x2="265" y2="20" stroke="#64748b" stroke-width="1.5" stroke-dasharray="5 4" opacity="0.7"/>
    <!-- Bangladesh -->
    <line x1="5" y1="5" x2="5" y2="25" stroke="#f472b6" stroke-width="2" opacity="0.9"/>
    <polygon points="5,5 0,13 10,13" fill="#f472b6" opacity="0.9"/>
    <text x="5" y="38" font-family="Arial" font-size="7" fill="#f472b6" opacity="0.9" text-anchor="middle">🇧🇩 Dhaka</text>
    <text x="5" y="47" font-family="Arial" font-size="6" fill="#f472b6" opacity="0.75" text-anchor="middle">MBBS · MPhil</text>
    <!-- Sheffield -->
    <line x1="135" y1="5" x2="135" y2="25" stroke="#60a5fa" stroke-width="2" opacity="0.9"/>
    <polygon points="135,5 130,13 140,13" fill="#60a5fa" opacity="0.9"/>
    <text x="135" y="38" font-family="Arial" font-size="7" fill="#60a5fa" opacity="0.9" text-anchor="middle">🇬🇧 Sheffield</text>
    <text x="135" y="47" font-family="Arial" font-size="6" fill="#60a5fa" opacity="0.75" text-anchor="middle">MSc · PhD</text>
    <!-- Saskatchewan -->
    <line x1="265" y1="5" x2="265" y2="25" stroke="#4ade80" stroke-width="2" opacity="0.9"/>
    <polygon points="265,5 260,13 270,13" fill="#4ade80" opacity="0.9"/>
    <text x="265" y="38" font-family="Arial" font-size="7" fill="#4ade80" opacity="0.9" text-anchor="middle">🇨🇦 SK, Canada</text>
    <text x="265" y="47" font-family="Arial" font-size="6" fill="#4ade80" opacity="0.75" text-anchor="middle">Decision Sci.</text>
  </g>

  <!-- =====================================================
       SECTION 11: KEYWORD TAGS (scattered, subtle)
       ===================================================== -->
  <!-- Top-right area keywords -->
  <g font-family="'Courier New',monospace" font-size="8" opacity="0.75">
    <text x="698" y="175" fill="#a78bfa">Population Health</text>
    <text x="698" y="190" fill="#38bdf8">Statistical Modelling</text>
    <text x="698" y="205" fill="#4ade80">Health Technology</text>
    <text x="698" y="220" fill="#fb923c">Performance Metrics</text>
    <text x="698" y="235" fill="#f472b6">Cancer Research</text>
  </g>
  <!-- Bottom-centre keywords -->
  <g font-family="'Courier New',monospace" font-size="7.5" opacity="0.7">
    <text x="510" y="465" fill="#00e8b0">Python · R · SQL</text>
    <text x="510" y="478" fill="#38bdf8">Tableau · Power BI</text>
    <text x="510" y="491" fill="#c084fc">Machine Learning</text>
    <text x="510" y="504" fill="#fb923c">Clinical Informatics</text>
  </g>

  <!-- Name/role watermark removed -->

  <!-- =====================================================
       ACCENT: Corner glow blobs (atmosphere)
       ===================================================== -->
  <circle cx="0"   cy="0"   r="80" fill="#1e40af" opacity="0.12" filter="url(#brightglow)"/>
  <circle cx="960" cy="0"   r="90" fill="#7c3aed" opacity="0.1"  filter="url(#brightglow)"/>
  <circle cx="0"   cy="540" r="80" fill="#065f46" opacity="0.12" filter="url(#brightglow)"/>
  <circle cx="960" cy="540" r="90" fill="#9f1239" opacity="0.1"  filter="url(#brightglow)"/>

</svg>
