<svg version="1.1" xmlns="http://www.w3.org/2000/svg" xmlns:xlink="http://www.w3.org/1999/xlink"
     width="960" height="540" viewBox="0 0 960 540" xml:space="preserve">
  <defs>
    <!-- Main background gradient — dark navy, not black -->
    <linearGradient id="bgGrad" x1="0%" y1="0%" x2="100%" y2="100%">
      <stop offset="0%"   stop-color="#0e1f3d"/>
      <stop offset="55%"  stop-color="#112244"/>
      <stop offset="100%" stop-color="#0a1828"/>
    </linearGradient>
    <!-- Teal glow gradient for lines -->
    <linearGradient id="tealLine" x1="0%" y1="0%" x2="100%" y2="0%">
      <stop offset="0%"   stop-color="#00d4b8" stop-opacity="0"/>
      <stop offset="50%"  stop-color="#00d4b8" stop-opacity="0.8"/>
      <stop offset="100%" stop-color="#00d4b8" stop-opacity="0"/>
    </linearGradient>
    <linearGradient id="blueLine" x1="0%" y1="0%" x2="100%" y2="0%">
      <stop offset="0%"   stop-color="#3b9ae0" stop-opacity="0"/>
      <stop offset="50%"  stop-color="#3b9ae0" stop-opacity="0.6"/>
      <stop offset="100%" stop-color="#3b9ae0" stop-opacity="0"/>
    </linearGradient>
    <!-- Glow filters -->
    <filter id="glow" x="-50%" y="-50%" width="200%" height="200%">
      <feGaussianBlur stdDeviation="3" result="blur"/>
      <feMerge><feMergeNode in="blur"/><feMergeNode in="SourceGraphic"/></feMerge>
    </filter>
    <filter id="softglow" x="-100%" y="-100%" width="300%" height="300%">
      <feGaussianBlur stdDeviation="6" result="blur"/>
      <feMerge><feMergeNode in="blur"/><feMergeNode in="SourceGraphic"/></feMerge>
    </filter>
    <filter id="textglow">
      <feGaussianBlur stdDeviation="2" result="blur"/>
      <feMerge><feMergeNode in="blur"/><feMergeNode in="SourceGraphic"/></feMerge>
    </filter>
    <!-- Dot grid pattern -->
    <pattern id="dots" width="30" height="30" patternUnits="userSpaceOnUse">
      <circle cx="15" cy="15" r="1" fill="#1e3a5f" opacity="0.7"/>
    </pattern>
    <!-- Cell hexagon pattern for imaging background -->
    <pattern id="hexPat" width="20" height="23" patternUnits="userSpaceOnUse" patternTransform="translate(700,80)">
      <polygon points="10,0 20,5.8 20,17.3 10,23 0,17.3 0,5.8"
               fill="none" stroke="#1e4a6a" stroke-width="0.6" opacity="0.5"/>
    </pattern>
    <!-- Clip paths for panels -->
    <clipPath id="leftPanel"><rect x="0" y="0" width="480" height="540"/></clipPath>
    <clipPath id="rightPanel"><rect x="480" y="0" width="480" height="540"/></clipPath>
  </defs>

  <!-- ===================== BASE ===================== -->
  <rect width="960" height="540" fill="url(#bgGrad)"/>
  <rect width="960" height="540" fill="url(#dots)" opacity="0.9"/>

  <!-- ===================== CELL IMAGING PANEL (top-right) ===================== -->
  <!-- Microscopy hex grid evokes cell imaging / VGG19 input -->
  <g clip-path="url(#rightPanel)" opacity="0.35">
    <rect x="580" y="0" width="380" height="200" fill="url(#hexPat)"/>
    <!-- Fluorescence-style glowing blobs (cells) -->
    <circle cx="660" cy="70"  r="28" fill="#1a5c7a" opacity="0.5"/>
    <circle cx="660" cy="70"  r="16" fill="#00d4b8" opacity="0.25" filter="url(#softglow)"/>
    <circle cx="700" cy="50"  r="18" fill="#2a4a8a" opacity="0.4"/>
    <circle cx="700" cy="50"  r="10" fill="#5a9fe0" opacity="0.3" filter="url(#softglow)"/>
    <circle cx="730" cy="90"  r="22" fill="#1a5c7a" opacity="0.45"/>
    <circle cx="730" cy="90"  r="12" fill="#00d4b8" opacity="0.2" filter="url(#softglow)"/>
    <circle cx="780" cy="55"  r="20" fill="#2a4a8a" opacity="0.4"/>
    <circle cx="780" cy="55"  r="11" fill="#7b6cf6" opacity="0.3" filter="url(#softglow)"/>
    <circle cx="820" cy="90"  r="25" fill="#1a5c7a" opacity="0.45"/>
    <circle cx="820" cy="90"  r="14" fill="#00d4b8" opacity="0.22" filter="url(#softglow)"/>
    <circle cx="860" cy="60"  r="18" fill="#2a4a8a" opacity="0.4"/>
    <circle cx="860" cy="60"  r="10" fill="#5a9fe0" opacity="0.28" filter="url(#softglow)"/>
    <circle cx="900" cy="95"  r="23" fill="#1a5c7a" opacity="0.4"/>
    <circle cx="900" cy="95"  r="13" fill="#7b6cf6" opacity="0.25" filter="url(#softglow)"/>
    <circle cx="940" cy="65"  r="17" fill="#2a4a8a" opacity="0.35"/>
    <circle cx="940" cy="65"  r="9"  fill="#00d4b8" opacity="0.22" filter="url(#softglow)"/>
    <circle cx="650" cy="130" r="20" fill="#1a5c7a" opacity="0.4"/>
    <circle cx="750" cy="145" r="24" fill="#2a4a8a" opacity="0.4"/>
    <circle cx="750" cy="145" r="13" fill="#5a9fe0" opacity="0.25" filter="url(#softglow)"/>
    <circle cx="830" cy="150" r="19" fill="#1a5c7a" opacity="0.4"/>
    <circle cx="920" cy="140" r="22" fill="#2a4a8a" opacity="0.38"/>
    <!-- Cell membrane outlines -->
    <circle cx="660" cy="70"  r="28" fill="none" stroke="#00d4b8" stroke-width="0.8" opacity="0.5"/>
    <circle cx="730" cy="90"  r="22" fill="none" stroke="#00d4b8" stroke-width="0.6" opacity="0.4"/>
    <circle cx="820" cy="90"  r="25" fill="none" stroke="#5a9fe0" stroke-width="0.7" opacity="0.45"/>
    <circle cx="780" cy="55"  r="20" fill="none" stroke="#7b6cf6" stroke-width="0.6" opacity="0.4"/>
    <!-- Label -->
    <text x="596" y="186" font-family="'Courier New',monospace" font-size="7.5" fill="#00d4b8" opacity="0.7">Cell Imaging · VGG19 · Ex Vivo Drug Screening</text>
  </g>

  <!-- ===================== PCA PLOT (mid-right) ===================== -->
  <g transform="translate(820,290)">
    <!-- Axes -->
    <line x1="-60" y1="0"   x2="120" y2="0"   stroke="#3b9ae0" stroke-width="1" opacity="0.5"/>
    <line x1="0"   y1="70"  x2="0"   y2="-80" stroke="#3b9ae0" stroke-width="1" opacity="0.5"/>
    <text x="115" y="4"  font-family="Arial" font-size="7" fill="#3b9ae0" opacity="0.7">PC1</text>
    <text x="4"   y="-74" font-family="Arial" font-size="7" fill="#3b9ae0" opacity="0.7">PC2</text>
    <!-- Cluster 1 — teal (treatment responders) -->
    <g fill="#00d4b8" opacity="0.75">
      <circle cx="-35" cy="-40" r="4.5"/>
      <circle cx="-28" cy="-30" r="3.5"/>
      <circle cx="-42" cy="-22" r="4"/>
      <circle cx="-20" cy="-38" r="3"/>
      <circle cx="-50" cy="-34" r="3.5"/>
      <circle cx="-32" cy="-50" r="3"/>
      <circle cx="-55" cy="-18" r="3"/>
      <circle cx="-15" cy="-48" r="2.5"/>
    </g>
    <!-- Cluster 2 — blue (non-responders) -->
    <g fill="#5a9fe0" opacity="0.75">
      <circle cx="45"  cy="30"  r="4.5"/>
      <circle cx="55"  cy="18"  r="3.5"/>
      <circle cx="38"  cy="42"  r="4"/>
      <circle cx="62"  cy="36"  r="3"/>
      <circle cx="30"  cy="25"  r="3.5"/>
      <circle cx="70"  cy="22"  r="3"/>
      <circle cx="48"  cy="50"  r="3"/>
      <circle cx="65"  cy="48"  r="2.5"/>
    </g>
    <!-- Cluster 3 — purple (mixed) -->
    <g fill="#a78bfa" opacity="0.65">
      <circle cx="10"  cy="-10" r="4"/>
      <circle cx="-5"  cy="8"   r="3.5"/>
      <circle cx="18"  cy="5"   r="3"/>
      <circle cx="5"   cy="18"  r="3"/>
      <circle cx="-12" cy="-5"  r="3.5"/>
    </g>
    <!-- Ellipse convex hulls -->
    <ellipse cx="-34" cy="-35" rx="26" ry="18" fill="none" stroke="#00d4b8" stroke-width="0.8" stroke-dasharray="3 2" opacity="0.5" transform="rotate(-15 -34 -35)"/>
    <ellipse cx="50"  cy="34"  rx="28" ry="17" fill="none" stroke="#5a9fe0" stroke-width="0.8" stroke-dasharray="3 2" opacity="0.5" transform="rotate(10 50 34)"/>
    <ellipse cx="5"   cy="4"   rx="18" ry="14" fill="none" stroke="#a78bfa" stroke-width="0.8" stroke-dasharray="3 2" opacity="0.45"/>
    <!-- Label -->
    <text x="-60" y="85" font-family="'Courier New',monospace" font-size="7.5" fill="#3b9ae0" opacity="0.75">PCA · Drug Response Clustering</text>
  </g>

  <!-- ===================== REGRESSION LINE (bottom-right) ===================== -->
  <g transform="translate(580,370)">
    <!-- Axes -->
    <line x1="0" y1="120" x2="0"   y2="0"   stroke="#00d4b8" stroke-width="0.8" opacity="0.45"/>
    <line x1="0" y1="120" x2="180" y2="120" stroke="#00d4b8" stroke-width="0.8" opacity="0.45"/>
    <text x="182" y="124" font-family="Arial" font-size="6.5" fill="#00d4b8" opacity="0.6">Performance Score</text>
    <text x="-28" y="-6"  font-family="Arial" font-size="6.5" fill="#00d4b8" opacity="0.6" transform="rotate(-90 -28 -6)">Outcome</text>
    <!-- Scatter points (health system performance) -->
    <g fill="#00d4b8" opacity="0.65">
      <circle cx="18"  cy="100" r="3"/>
      <circle cx="35"  cy="88"  r="3"/>
      <circle cx="50"  cy="78"  r="3.5"/>
      <circle cx="68"  cy="65"  r="3"/>
      <circle cx="85"  cy="55"  r="3.5"/>
      <circle cx="100" cy="44"  r="3"/>
      <circle cx="118" cy="35"  r="3.5"/>
      <circle cx="135" cy="26"  r="3"/>
      <circle cx="150" cy="18"  r="3.5"/>
      <circle cx="165" cy="10"  r="3"/>
    </g>
    <!-- Residual scatter off line -->
    <g fill="#a78bfa" opacity="0.5">
      <circle cx="25"  cy="93"  r="2.5"/>
      <circle cx="58"  cy="72"  r="2.5"/>
      <circle cx="78"  cy="60"  r="2"/>
      <circle cx="110" cy="40"  r="2.5"/>
      <circle cx="142" cy="22"  r="2"/>
      <circle cx="158" cy="28"  r="2.5"/>
      <circle cx="42"  cy="82"  r="2"/>
    </g>
    <!-- Regression line -->
    <line x1="8" y1="108" x2="172" y2="5" stroke="#ff7b54" stroke-width="1.5" opacity="0.7" stroke-linecap="round"/>
    <!-- Confidence band -->
    <path d="M8,100 L172,-2 L172,12 L8,116 Z" fill="#ff7b54" opacity="0.07"/>
    <!-- Label -->
    <text x="0" y="135" font-family="'Courier New',monospace" font-size="7.5" fill="#00d4b8" opacity="0.7">Regression · Population Health Statistics</text>
  </g>

  <!-- ===================== AI AGENT DIAGRAM (mid centre) ===================== -->
  <g transform="translate(480,260)">
    <!-- Central AI agent node -->
    <circle cx="0" cy="0" r="22" fill="#0e1f3d" stroke="#00d4b8" stroke-width="1.5" opacity="0.9"/>
    <circle cx="0" cy="0" r="28" fill="none" stroke="#00d4b8" stroke-width="0.6" stroke-dasharray="4 3" opacity="0.5"/>
    <text x="-14" y="-3"  font-family="Arial" font-size="7"   fill="#00d4b8" font-weight="bold" opacity="0.95">AI</text>
    <text x="-16" y="7"   font-family="Arial" font-size="6.5" fill="#00d4b8" opacity="0.85">Agent</text>
    <!-- Spokes to satellite nodes -->
    <!-- Data In -->
    <line x1="-28" y1="0"   x2="-65" y2="0"   stroke="#00d4b8" stroke-width="0.8" stroke-dasharray="3 2" opacity="0.6"/>
    <rect x="-105" y="-12"  width="40" height="24" rx="4" fill="#0e2a4a" stroke="#3b9ae0" stroke-width="0.8" opacity="0.85"/>
    <text x="-97" y="-3"  font-family="Arial" font-size="5.5" fill="#3b9ae0" opacity="0.9">Health</text>
    <text x="-97" y="5"   font-family="Arial" font-size="5.5" fill="#3b9ae0" opacity="0.9">Data</text>
    <!-- Policy Out -->
    <line x1="28"  y1="0"   x2="65"  y2="0"   stroke="#00d4b8" stroke-width="0.8" stroke-dasharray="3 2" opacity="0.6"/>
    <rect x="65"   y="-12"  width="46" height="24" rx="4" fill="#0e2a4a" stroke="#00d4b8" stroke-width="0.8" opacity="0.85"/>
    <text x="73"  y="-3"  font-family="Arial" font-size="5.5" fill="#00d4b8" opacity="0.9">Policy</text>
    <text x="73"  y="5"   font-family="Arial" font-size="5.5" fill="#00d4b8" opacity="0.9">Insight</text>
    <!-- Model -->
    <line x1="0"   y1="-28" x2="0"   y2="-62" stroke="#00d4b8" stroke-width="0.8" stroke-dasharray="3 2" opacity="0.6"/>
    <rect x="-24"  y="-90"  width="48" height="28" rx="4" fill="#0e2a4a" stroke="#a78bfa" stroke-width="0.8" opacity="0.85"/>
    <text x="-18" y="-79" font-family="Arial" font-size="5.5" fill="#a78bfa" opacity="0.9">Predictive</text>
    <text x="-14" y="-71" font-family="Arial" font-size="5.5" fill="#a78bfa" opacity="0.9">Model</text>
    <!-- Feedback -->
    <line x1="0"   y1="28"  x2="0"   y2="60"  stroke="#00d4b8" stroke-width="0.8" stroke-dasharray="3 2" opacity="0.6"/>
    <rect x="-28"  y="60"   width="56" height="24" rx="4" fill="#0e2a4a" stroke="#ff7b54" stroke-width="0.8" opacity="0.85"/>
    <text x="-20" y="72"  font-family="Arial" font-size="5.5" fill="#ff7b54" opacity="0.9">Stakeholder</text>
    <text x="-16" y="80"  font-family="Arial" font-size="5.5" fill="#ff7b54" opacity="0.9">Feedback</text>
    <!-- Arrow heads -->
    <polygon points="60,0 50,-4 50,4" fill="#00d4b8" opacity="0.7"/>
    <polygon points="-60,0 -50,-4 -50,4" fill="#3b9ae0" opacity="0.7" transform="rotate(180 -55 0)"/>
    <polygon points="0,-57 -4,-47 4,-47" fill="#a78bfa" opacity="0.7"/>
    <polygon points="0,55 -4,45 4,45" fill="#ff7b54" opacity="0.7" transform="rotate(180 0 50)"/>
  </g>

  <!-- ===================== VGG19 NEURAL NETWORK (top-left) ===================== -->
  <g transform="translate(30,60)" opacity="0.8">
    <text x="0" y="-8" font-family="'Courier New',monospace" font-size="8" fill="#a78bfa" opacity="0.85">VGG19 · Deep Learning</text>
    <!-- Input layer -->
    <g fill="#00d4b8" opacity="0.7">
      <circle cx="0" cy="0"   r="4"/>
      <circle cx="0" cy="20"  r="4"/>
      <circle cx="0" cy="40"  r="4"/>
      <circle cx="0" cy="60"  r="4"/>
      <circle cx="0" cy="80"  r="4"/>
      <circle cx="0" cy="100" r="4"/>
    </g>
    <!-- Hidden layer 1 -->
    <g fill="#3b9ae0" opacity="0.7">
      <circle cx="60" cy="10"  r="4"/>
      <circle cx="60" cy="30"  r="4"/>
      <circle cx="60" cy="50"  r="4"/>
      <circle cx="60" cy="70"  r="4"/>
      <circle cx="60" cy="90"  r="4"/>
    </g>
    <!-- Hidden layer 2 -->
    <g fill="#a78bfa" opacity="0.7">
      <circle cx="120" cy="20" r="4"/>
      <circle cx="120" cy="50" r="4"/>
      <circle cx="120" cy="80" r="4"/>
    </g>
    <!-- Output layer -->
    <g fill="#ff7b54" opacity="0.8">
      <circle cx="180" cy="30" r="4.5"/>
      <circle cx="180" cy="70" r="4.5"/>
    </g>
    <!-- Connections layer 0→1 -->
    <g stroke="#3b9ae0" stroke-width="0.4" opacity="0.3">
      <line x1="4" y1="0"   x2="56" y2="10"/><line x1="4" y1="0"   x2="56" y2="30"/>
      <line x1="4" y1="0"   x2="56" y2="50"/><line x1="4" y1="0"   x2="56" y2="70"/>
      <line x1="4" y1="0"   x2="56" y2="90"/>
      <line x1="4" y1="20"  x2="56" y2="10"/><line x1="4" y1="20"  x2="56" y2="30"/>
      <line x1="4" y1="20"  x2="56" y2="50"/><line x1="4" y1="20"  x2="56" y2="70"/>
      <line x1="4" y1="40"  x2="56" y2="10"/><line x1="4" y1="40"  x2="56" y2="30"/>
      <line x1="4" y1="40"  x2="56" y2="50"/><line x1="4" y1="60"  x2="56" y2="30"/>
      <line x1="4" y1="60"  x2="56" y2="50"/><line x1="4" y1="60"  x2="56" y2="70"/>
      <line x1="4" y1="80"  x2="56" y2="50"/><line x1="4" y1="80"  x2="56" y2="70"/>
      <line x1="4" y1="80"  x2="56" y2="90"/><line x1="4" y1="100" x2="56" y2="70"/>
      <line x1="4" y1="100" x2="56" y2="90"/>
    </g>
    <!-- Connections layer 1→2 -->
    <g stroke="#a78bfa" stroke-width="0.5" opacity="0.35">
      <line x1="64" y1="10"  x2="116" y2="20"/><line x1="64" y1="10"  x2="116" y2="50"/>
      <line x1="64" y1="30"  x2="116" y2="20"/><line x1="64" y1="30"  x2="116" y2="50"/>
      <line x1="64" y1="50"  x2="116" y2="20"/><line x1="64" y1="50"  x2="116" y2="50"/>
      <line x1="64" y1="50"  x2="116" y2="80"/><line x1="64" y1="70"  x2="116" y2="50"/>
      <line x1="64" y1="70"  x2="116" y2="80"/><line x1="64" y1="90"  x2="116" y2="50"/>
      <line x1="64" y1="90"  x2="116" y2="80"/>
    </g>
    <!-- Connections layer 2→3 -->
    <g stroke="#ff7b54" stroke-width="0.6" opacity="0.45">
      <line x1="124" y1="20" x2="175" y2="30"/><line x1="124" y1="20" x2="175" y2="70"/>
      <line x1="124" y1="50" x2="175" y2="30"/><line x1="124" y1="50" x2="175" y2="70"/>
      <line x1="124" y1="80" x2="175" y2="30"/><line x1="124" y1="80" x2="175" y2="70"/>
    </g>
    <!-- Layer labels -->
    <text x="-6"  y="115" font-family="Arial" font-size="6" fill="#00d4b8" opacity="0.65">Input</text>
    <text x="50"  y="115" font-family="Arial" font-size="6" fill="#3b9ae0" opacity="0.65">Conv</text>
    <text x="110" y="115" font-family="Arial" font-size="6" fill="#a78bfa" opacity="0.65">FC</text>
    <text x="170" y="115" font-family="Arial" font-size="6" fill="#ff7b54" opacity="0.65">Output</text>
  </g>

  <!-- ===================== HEALTH SYSTEM PERFORMANCE DASHBOARD (bottom-left) ===================== -->
  <g transform="translate(30,340)">
    <text x="0" y="-10" font-family="'Courier New',monospace" font-size="8" fill="#00d4b8" opacity="0.85">Health System Performance · KPIs</text>
    <!-- KPI bar chart -->
    <!-- Bar backgrounds -->
    <rect x="0"   y="0"  width="180" height="12" rx="3" fill="#1a3050" opacity="0.7"/>
    <rect x="0"   y="18" width="180" height="12" rx="3" fill="#1a3050" opacity="0.7"/>
    <rect x="0"   y="36" width="180" height="12" rx="3" fill="#1a3050" opacity="0.7"/>
    <rect x="0"   y="54" width="180" height="12" rx="3" fill="#1a3050" opacity="0.7"/>
    <rect x="0"   y="72" width="180" height="12" rx="3" fill="#1a3050" opacity="0.7"/>
    <!-- Bar fills -->
    <rect x="0"   y="0"  width="148" height="12" rx="3" fill="#00d4b8" opacity="0.75"/>
    <rect x="0"   y="18" width="126" height="12" rx="3" fill="#3b9ae0" opacity="0.75"/>
    <rect x="0"   y="36" width="165" height="12" rx="3" fill="#00d4b8" opacity="0.75"/>
    <rect x="0"   y="54" width="108" height="12" rx="3" fill="#a78bfa" opacity="0.75"/>
    <rect x="0"   y="72" width="140" height="12" rx="3" fill="#3b9ae0" opacity="0.75"/>
    <!-- Labels -->
    <text x="152" y="10"  font-family="Arial" font-size="6.5" fill="#00d4b8" opacity="0.85">82% — Cont. Care</text>
    <text x="130" y="28"  font-family="Arial" font-size="6.5" fill="#3b9ae0" opacity="0.85">70% — MHA</text>
    <text x="168" y="46"  font-family="Arial" font-size="6.5" fill="#00d4b8" opacity="0.85">92% — Acute</text>
    <text x="112" y="64"  font-family="Arial" font-size="6.5" fill="#a78bfa" opacity="0.85">60% — Primary</text>
    <text x="144" y="82"  font-family="Arial" font-size="6.5" fill="#3b9ae0" opacity="0.85">78% — HHR</text>
  </g>

  <!-- ===================== ECG / CLINICAL WAVEFORM ===================== -->
  <g opacity="0.45" filter="url(#glow)">
    <polyline
      points="240,210 265,210 275,210 282,180 290,245 300,210 320,210 330,210 338,192 346,228 354,210 480,210"
      fill="none" stroke="#00d4b8" stroke-width="1.8" stroke-linejoin="round"/>
  </g>
  <!-- Subtle ECG bottom -->
  <g opacity="0.20">
    <polyline
      points="0,500 60,500 75,500 83,472 91,528 99,500 130,500 145,500 153,483 161,517 169,500 480,500"
      fill="none" stroke="#3b9ae0" stroke-width="1.2"/>
  </g>

  <!-- ===================== DNA HELIX (right side, vertical) ===================== -->
  <g opacity="0.22" stroke="#00d4b8" stroke-width="1" fill="none">
    <path d="M 950,0 C 930,30 970,50 950,80 C 930,110 970,130 950,160 C 930,190 970,210 950,240 C 930,270 970,290 950,320 C 930,350 970,370 950,400 C 930,430 970,450 950,480 C 930,510 970,530 950,540"/>
    <path d="M 960,0 C 940,30 980,50 960,80 C 940,110 980,130 960,160 C 940,190 980,210 960,240 C 940,270 980,290 960,320 C 940,350 980,370 960,400 C 940,430 980,450 960,480 C 940,510 980,530 960,540"/>
    <line x1="950" y1="80"  x2="960" y2="80"/>
    <line x1="950" y1="160" x2="960" y2="160"/>
    <line x1="950" y1="240" x2="960" y2="240"/>
    <line x1="950" y1="320" x2="960" y2="320"/>
    <line x1="950" y1="400" x2="960" y2="400"/>
    <line x1="950" y1="480" x2="960" y2="480"/>
  </g>

  <!-- ===================== LOCATION JOURNEY ===================== -->
  <!-- Connecting arc from Bangladesh to Sheffield to Saskatchewan -->
  <g opacity="0.30" fill="none">
    <path d="M 250,480 Q 340,300 430,200" stroke="#00d4b8" stroke-width="0.8" stroke-dasharray="5 3"/>
    <path d="M 430,200 Q 455,160 480,145" stroke="#3b9ae0" stroke-width="0.8" stroke-dasharray="5 3"/>
  </g>
  <!-- Location dots with labels -->
  <g font-family="Arial" font-size="7.5">
    <!-- Bangladesh -->
    <circle cx="250" cy="480" r="5" fill="#00d4b8" opacity="0.8" filter="url(#glow)"/>
    <circle cx="250" cy="480" r="9" fill="none" stroke="#00d4b8" stroke-width="0.7" opacity="0.4"/>
    <text x="258" y="478" fill="#00d4b8" opacity="0.85" font-weight="bold">Bangladesh</text>
    <text x="258" y="487" fill="#00d4b8" opacity="0.6" font-size="6">MBBS · MPH · MO · WHO</text>
    <!-- Sheffield -->
    <circle cx="430" cy="200" r="5" fill="#3b9ae0" opacity="0.8" filter="url(#glow)"/>
    <circle cx="430" cy="200" r="9" fill="none" stroke="#3b9ae0" stroke-width="0.7" opacity="0.4"/>
    <text x="438" y="198" fill="#3b9ae0" opacity="0.85" font-weight="bold">Sheffield, UK</text>
    <text x="438" y="207" fill="#3b9ae0" opacity="0.6" font-size="6">MSc · PhD · Commonwealth Scholar</text>
    <!-- Saskatchewan -->
    <circle cx="342" cy="340" r="5" fill="#a78bfa" opacity="0.8" filter="url(#glow)"/>
    <circle cx="342" cy="340" r="9" fill="none" stroke="#a78bfa" stroke-width="0.7" opacity="0.4"/>
    <text x="350" y="338" fill="#a78bfa" opacity="0.85" font-weight="bold">Saskatchewan, CA</text>
    <text x="350" y="347" fill="#a78bfa" opacity="0.6" font-size="6">MoH · Decision Scientist · SHA</text>
  </g>

  <!-- ===================== FLOATING KEYWORD TAGS ===================== -->
  <g font-family="'Courier New',monospace" font-size="8" fill="#00d4b8" opacity="0.32">
    <text x="32"  y="310">Statistical Inference</text>
    <text x="32"  y="325">Predictive Modelling</text>
    <text x="32"  y="465">CIHI · SHA · MoH Saskatchewan</text>
  </g>
  <g font-family="'Courier New',monospace" font-size="8" fill="#3b9ae0" opacity="0.28">
    <text x="500" y="210">PROMs · HRQoL · Stem Cell</text>
    <text x="500" y="225">COVID-19 · Surveillance · 170M</text>
  </g>
  <g font-family="'Courier New',monospace" font-size="8" fill="#a78bfa" opacity="0.28">
    <text x="500" y="400">Machine Learning · R · Python</text>
    <text x="500" y="415">Power BI · Tableau · WHO</text>
  </g>

  <!-- ===================== SECTION DIVIDERS ===================== -->
  <!-- Vertical centre line -->
  <line x1="480" y1="20" x2="480" y2="520" stroke="#1e3a5f" stroke-width="0.8" opacity="0.6"/>
  <line x1="480" y1="20" x2="480" y2="520" stroke="#00d4b8" stroke-width="0.4" opacity="0.2"/>
  <!-- Top accent -->
  <line x1="0" y1="8" x2="960" y2="8" stroke="#00d4b8" stroke-width="1" opacity="0.25"/>
  <!-- Bottom accent -->
  <line x1="0" y1="532" x2="960" y2="532" stroke="#00d4b8" stroke-width="1" opacity="0.25"/>
  <rect x="0" y="532" width="960" height="8" fill="#00d4b8" opacity="0.06"/>

  <!-- ===================== LEFT PANEL READABILITY VIGNETTE ===================== -->
  <!-- Subtle gradient to ensure bio text (placed by Hugo on the left) is readable -->
  <rect x="0" y="0" width="480" height="540" fill="#0e1f3d" opacity="0.18"/>

</svg>
