<svg width="268" height="85" viewBox="0 0 134 42.5" xmlns="http://www.w3.org/2000/svg">
  <path d="M125.572 31.022c0-1.02-.55-1.617-1.348-1.617-.746 0-1.492.54-1.492 1.617 0 1.078.746 1.617 1.492 1.617.797 0 1.348-.601 1.348-1.617m1.531-5.636v8.699h-1.199l-.172-.59h-.183c-.38.418-.895.648-1.555.648-1.559 0-2.856-1.273-2.856-3.12 0-1.852 1.297-3.126 2.856-3.126.637 0 1.187.219 1.578.66v-3.171zm-7.02 5.378v3.32h-1.628v-2.952c0-.207.148-1.75-1.031-1.813-.575-.039-1.602.281-1.602 1.887v2.879h-1.617v-6.13h1.25l.207.75h.207c.258-.308.836-.808 1.863-.808 1.582 0 2.352 1.176 2.352 2.867m-9.016.747v-.122c-1.117.122-2.219.258-2.219.895 0 .93 2.121.855 2.22-.773m2.23 1.398v1.176h-.368c-.71 0-1.214-.258-1.421-.785-.368.504-.98.843-1.938.843-1.383 0-2.266-.707-2.266-1.812 0-1.91 2.61-2.082 3.786-2.145-.024-.71-.414-.965-1.04-.965-.87 0-.933.528-.933.528h-1.531c.109-1.094 1.004-1.852 2.5-1.852 1.457 0 2.488.723 2.488 2.5v1.63c0 .71.254.882.723.882m-7.22 1.176h-1.593v-8.7h1.594zm-6.612-4.13c0 .466.332.81 1.039.81.699 0 1.043-.344 1.043-.81 0-.452-.344-.773-1.043-.773-.696 0-1.04.309-1.04.774m2.313 4.57c0-.332-.266-.59-.953-.59-.344 0-.82 0-1.176-.011l-.418.441c-.074.305.235.809 1.313.809.797 0 1.234-.258 1.234-.649m1.508.047c-.047 1.387-1.309 2.024-2.766 2.024-1.902 0-2.992-1.09-2.71-2.415l.699-.562c-.391-.246-.649-.625-.649-1.078 0-.504.317-.86.758-1.09-.414-.383-.625-.895-.625-1.473 0-1.175.906-2.093 2.453-2.093.54 0 1.016.109 1.395.304a3.065 3.065 0 0 0 1.043-.797l.757 1.02s-.414.281-.98.453c.234.316.355.695.355 1.102 0 1.164-1.066 2.093-2.609 2.093-.316 0-.61-.035-.871-.109a.354.354 0 0 0-.18.305c0 .445.672.37 1.09.37h.856c1.347 0 2.023.919 1.984 1.946m-6.527-3.809v3.32h-1.63v-2.952c0-.207.145-1.75-1.03-1.813-.575-.039-1.606.281-1.606 1.887v2.879h-1.617v-6.13h1.25l.207.75h.21c.259-.308.833-.808 1.864-.808 1.578 0 2.352 1.176 2.352 2.867m-7.07 1.79v1.53h-5.77v-8.577h5.648v1.53h-4.043v1.938h3.676v1.532h-3.676v2.047zm44.128-14.34v3.32h-1.64v-2.953c0-.602.097-1.813-1.008-1.813-.535 0-1.578.282-1.578 1.887v2.879h-1.641v-8.7h1.555v3.212h.207c.297-.305.859-.7 1.765-.7 1.578 0 2.34 1.176 2.34 2.868m-9.84 3.382c-1.703 0-3.097-1.312-3.097-3.113 0-1.824 1.445-3.137 3.16-3.137 1.398 0 2.586.872 2.93 2.305h-1.668c-.258-.504-.711-.82-1.297-.82-.86 0-1.543.683-1.543 1.64 0 .954.683 1.641 1.543 1.641.55 0 .98-.281 1.25-.734h1.675c-.39 1.457-1.652 2.218-2.953 2.218m-3.465-6.25v1.57a2.743 2.743 0 0 0-.539-.05c-.859 0-1.754.441-1.754 1.57v3.098h-1.628v-6.125h1.25l.222.672h.196c.27-.27.867-.735 1.875-.735zm-7.058 3.614v-.121c-1.113.12-2.215.257-2.215.894 0 .93 2.117.86 2.215-.773m2.23 1.398v1.176h-.367c-.71 0-1.21-.258-1.422-.785-.367.504-.98.847-1.933.847-1.387 0-2.266-.71-2.266-1.812 0-1.914 2.61-2.086 3.785-2.145-.027-.71-.418-.968-1.043-.968-.87 0-.93.527-.93.527h-1.53c.109-1.094 1.003-1.852 2.5-1.852 1.456 0 2.484.723 2.484 2.5v1.63c0 .71.257.882.722.882m-11.172-2.66h2.758c-.183-.723-.687-1.016-1.3-1.016-.672 0-1.211.38-1.458 1.016m4.375 1.238h-4.472c.183.934.945 1.274 1.605 1.274.832 0 1.188-.512 1.188-.512h1.543c-.465 1.223-1.578 1.898-2.782 1.898-1.652 0-3.097-1.261-3.097-3.175 0-1.899 1.433-3.075 3.05-3.075 1.567 0 3.16 1.09 2.965 3.59m-9.152-2.289c-.516 0-.734.254-.734.512 0 .418.55.539.918.613 1.09.235 2.191.567 2.191 1.864 0 1.261-1.039 1.96-2.3 1.96-1.41 0-2.5-.859-2.575-2.156h1.508c.035.367.281.844 1.027.844.625 0 .774-.332.774-.586 0-.457-.43-.59-.848-.687-.723-.16-2.277-.454-2.277-1.852 0-1.2 1.152-1.813 2.34-1.813 1.37 0 2.277.833 2.351 1.864h-1.504c-.05-.207-.246-.563-.87-.563m-7.72 1.051h2.758c-.183-.723-.687-1.016-1.3-1.016-.672 0-1.212.38-1.458 1.016m4.375 1.238H91.92c.183.934.945 1.274 1.605 1.274.832 0 1.188-.512 1.188-.512h1.543c-.465 1.223-1.578 1.898-2.782 1.898-1.652 0-3.097-1.261-3.097-3.175 0-1.899 1.433-3.075 3.05-3.075 1.567 0 3.16 1.09 2.965 3.59m-10.918-2.07h1.348c.7 0 1.164-.54 1.164-1.25s-.476-1.125-1.164-1.125h-1.348zm2.844 4.668-1.824-3.148h-1.02v3.148H83.92V12.96h3.023c1.41 0 2.66.941 2.66 2.633 0 1.175-.66 2.07-1.543 2.5l2.07 3.441zM37.746 42.473H0V4.727h44.244z" fill="#1e1e5c"/>
  <path d="M29.191 23.598h-5.918V17.28zm-5.16 11.746h-5.156v2.062l-3.633-4.758c2.766-.507 4.192-1.937 4.192-4.43 0-.613-.086-1.16-.258-1.648h4.855zM8.555 26.57h4.027c1.656 0 2.324.645 2.324 1.649 0 1.008-.668 1.672-2.324 1.672H8.555zm10.32-7.472v6.828c-.937-1.582-3.094-2.317-6.293-2.324 2.856-.293 5.492-1.832 6.293-4.504M33.59 8.883H29.19l-5.918 6.297V8.883h-8.55v8.36c0 1.792-1.325 2.831-3.082 2.831-1.758 0-3.086-1.039-3.086-2.832v-8.36H4.152v8.427c0 3.773 3.051 5.941 6.489 6.289H4.152v14.718h4.403v-5.453h1.922l4.066 5.453H33.59v-2.972h-5.156V26.57h5.156v-3.883L27.28 16.23l6.309-6.437zm0 0" fill="#fff"/>
  <path d="M54.855 4.727V0H37.746v42.473h17.11l9.542-3.371 11.09 3.336V11.805Z" fill="#ff6900"/>
  <path d="M69.273 34.102H54.855v8.37h20.633v-.035zM54.855 11.805h20.633V4.727H54.855Zm0 0" fill="#c13d33"/>
</svg>
