<svg version="1.1" id="Layer_1" xmlns:x="ns_extend;" xmlns:i="ns_ai;" xmlns:graph="ns_graphs;" xmlns="http://www.w3.org/2000/svg" xmlns:xlink="http://www.w3.org/1999/xlink" x="0px" y="0px" viewBox="0 0 107.3 128.7" style="enable-background:new 0 0 107.3 128.7;" xml:space="preserve">
 <style type="text/css">
  .st0{fill:#440099;}
	.st1{fill:#FFFFFF;}
 </style>
 <metadata>
  <sfw xmlns="ns_sfw;">
   <slices>
   </slices>
   <sliceSourceBounds bottomLeftOrigin="true" height="128.7" width="107.3" x="0" y="0">
   </sliceSourceBounds>
  </sfw>
 </metadata>
 <g>
  <path class="st0" d="M53.6,0C35,0,17.1,2.5,0,7.3V53c0,10.2,1.4,19.5,4.2,27.9c2.6,7.8,6.4,14.9,11.4,21.2
		c8.6,10.8,20.9,19.5,37.3,26.3l0.7,0.3l0.7-0.3c16.5-6.9,28.7-15.5,37.3-26.3c5-6.3,8.8-13.4,11.4-21.2c2.8-8.3,4.2-17.7,4.2-27.9
		V7.3C90.2,2.5,72.2,0,53.6,0z">
  </path>
  <path class="st1" d="M28.1,78.1v-1.7l-3.4,2.5l-1.1-1.6h0c-2.2,2.3-4.2,4.8-5.9,7.5l0,0h0c3.1-0.7,6.1-1.8,9-3.3h0l-1.1-1.6
		L28.1,78.1L28.1,78.1z">
  </path>
  <polygon class="st1" points="84.9,36.8 87.4,35 86.5,33.9 84.1,35.6 84.7,32.3 78.2,38 77.9,40.1 70.4,45.6 72.8,45.6 78.7,41.3 
		80.9,41.6 88.3,37.3 	">
  </polygon>
  <path class="st1" d="M53.7,82.3L53.7,82.3c-0.7,0-1.3-0.1-2-0.3L35.3,93.9l-1.1-1.6h0c-2.2,2.3-4.2,4.8-5.9,7.5l0,0h0
		c3.1-0.7,6.1-1.8,9-3.3h0l-1.1-1.6L53.7,82.3L53.7,82.3z">
  </path>
  <polygon class="st1" points="95.6,51.9 98,50.1 97.1,49 94.7,50.8 95.2,47.4 88.9,53.1 88.5,55.3 79.2,62 79.2,63.8 89.3,56.4 
		91.5,56.7 98.9,52.4 	">
  </polygon>
  <path class="st1" d="M42.4,79.1H40l-10,7.3l-1.1-1.6h0c-2.2,2.3-4.2,4.8-5.9,7.5l0,0h0c3.1-0.7,6.1-1.8,9-3.3h0l-1.1-1.6L42.4,79.1
		L42.4,79.1z">
  </path>
  <polygon class="st1" points="90.2,44.3 92.7,42.6 91.8,41.4 89.4,43.2 89.9,39.8 83.6,45.5 83.2,47.7 79.2,50.6 79.2,52.4 84,48.8 
		86.2,49.2 93.6,44.9 	">
  </polygon>
  <path class="st1" d="M73.9,11.6c0,0-0.3,0-0.7-0.1l0,0c-1,0-2.9,0.1-4.2,1.4c-0.5,0.5-0.6,1.1-0.6,1.7l0,0c0,0.1,0,0.1,0,0.2
		c0,0,0,0.1,0,0.1V15c0,0,0,0.1,0,0.1l0,0c0,0.1,0,0.2,0.1,0.3c-0.2-0.2-0.4-0.4-0.7-0.5c-2.1-0.9-4.4,0.2-4.4,0.2s0.5,2.6,2.9,3.3
		c0.6,0.2,1.2,0.1,1.6-0.1l-0.5,0.9c-0.6,1.1-1.9,1.8-3.2,1.5c-1.7-0.3-2.8-1.9-2.5-3.5l-0.7-0.1l-0.7-0.1c-0.2,0.8-0.6,1.5-1.3,2
		c-0.7,0.5-1.5,0.6-2.3,0.5c-1.5-0.3-2.5-1.5-2.5-3v-1.9c0.4,0.4,1,0.9,1.7,0.9c2.3,0,4-1.9,4-1.9s-1.7-1.9-4-1.9
		c-0.3,0-0.5,0.1-0.8,0.2c0.5-0.4,0.8-1,0.8-1.7c0-2.5-2.5-4.4-2.5-4.4s-2.5,1.9-2.5,4.4c0,0.7,0.4,1.2,0.8,1.7
		c-0.2-0.1-0.5-0.2-0.8-0.2c-2.3,0-4,1.9-4,1.9s1.7,1.9,4,1.9c0.8,0,1.3-0.4,1.7-0.9v1.9c0,1.5-1,2.7-2.5,3c-0.8,0.1-1.6,0-2.3-0.5
		s-1.1-1.2-1.3-2l-0.7,0.1l-0.7,0.1c0.3,1.6-0.8,3.2-2.5,3.5c-1.3,0.2-2.6-0.4-3.2-1.5l-0.5-0.9c0.5,0.2,1.1,0.2,1.6,0.1
		c2.4-0.7,2.9-3.3,2.9-3.3s-2.3-1.1-4.4-0.2c-0.3,0.1-0.5,0.3-0.7,0.5c0-0.1,0-0.2,0-0.3l0,0c0-0.1,0-0.1,0-0.1v-0.1
		c0,0,0-0.1,0-0.1c0-0.1,0-0.1,0-0.2l0,0c0-0.6-0.2-1.2-0.6-1.7c-1.3-1.2-3.2-1.4-4.2-1.4l0,0c-0.5,0-0.7,0-0.7,0s-0.1,0.5,0,1.2
		c1.2,1.3,2.4,2.8,3.4,4.3c1.4,2.1,2.5,4.3,3.4,6.6l2.7,1.6l-1.5,2.6c0.2,1.1,0.4,2.1,0.6,3.2h0.1c3.8,0.8,7.8,1.2,11.7,1.2h0
		c4,0,7.9-0.4,11.7-1.2h0.1c0.1-1.1,0.3-2.2,0.6-3.2l-1.5-2.6l2.7-1.6c0.9-2.3,2-4.5,3.4-6.6c1-1.5,2.1-2.9,3.4-4.3
		C74,12.1,74,11.6,73.9,11.6L73.9,11.6z M60.4,22.5c1,0,1.8,0.8,1.8,1.8s-0.8,1.8-1.8,1.8s-1.8-0.8-1.8-1.8S59.4,22.5,60.4,22.5z
		 M53.6,20.7l2.5,2.5l-2.5,2.5l-2.5-2.5L53.6,20.7z M46.9,22.5c1,0,1.8,0.8,1.8,1.8s-0.8,1.8-1.8,1.8s-1.8-0.8-1.8-1.8
		S45.9,22.5,46.9,22.5z M64.2,29.9c-3.5,0.6-7,1-10.5,1s-7.1-0.3-10.5-1c0-0.2-0.1-0.4-0.1-0.6c3.5-0.6,7-1,10.6-1s7.2,0.3,10.6,1
		C64.2,29.5,64.2,29.7,64.2,29.9L64.2,29.9z">
  </path>
  <polygon class="st1" points="53.7,48.1 33.9,33.7 31.7,34.1 24.3,29.7 27.6,29.2 25.2,27.5 26,26.3 28.5,28.1 28,24.7 34.3,30.4 
		34.7,32.6 53.7,46.4 72.6,32.6 72.9,30.4 79.3,24.7 78.8,28.1 81.2,26.3 82.1,27.5 79.6,29.2 83,29.7 75.6,34.1 73.4,33.7 	">
  </polygon>
  <path class="st1" d="M75.6,49.6l0,25.9H57.2l-0.1,0.5c-0.4,1.6-1.8,2.7-3.5,2.7s-3.1-1.1-3.5-2.7l-0.1-0.5H31.6l0-26h-1.4V77H49
		c0.7,1.9,2.5,3.2,4.7,3.2s4-1.3,4.7-3.2h18.8V49.6C77.1,49.6,75.6,49.6,75.6,49.6z">
  </path>
  <path class="st1" d="M89.6,84.8C88,82,86,79.5,83.8,77.2h0l-1.1,1.6l-3.4-2.5V78l2.6,1.9l-1.1,1.6h0C83.5,82.9,86.5,84,89.6,84.8
		L89.6,84.8L89.6,84.8L89.6,84.8z">
  </path>
  <polygon class="st1" points="34.5,45.6 36.9,45.6 29.4,40.1 29,38 22.6,32.3 23.2,35.6 20.8,33.9 19.9,35 22.4,36.8 19,37.3 
		26.4,41.6 28.6,41.3 	">
  </polygon>
  <polygon class="st1" points="28.1,50.6 24.1,47.7 23.7,45.5 17.3,39.8 17.9,43.2 15.4,41.4 14.6,42.6 17,44.3 13.7,44.9 21.1,49.2 
		23.3,48.8 28.1,52.4 	">
  </polygon>
  <path class="st1" d="M84.3,92.3c-1.7-2.7-3.6-5.2-5.9-7.5h0l-1.1,1.6l-10-7.3h-2.4l11.6,8.4l-1.1,1.6h0
		C78.2,90.5,81.2,91.6,84.3,92.3L84.3,92.3L84.3,92.3L84.3,92.3z">
  </path>
  <polygon class="st1" points="28.1,62 18.8,55.3 18.4,53.1 12,47.4 12.6,50.8 10.1,49 9.3,50.1 11.8,51.9 8.4,52.4 15.8,56.7 
		18,56.4 28.1,63.8 	">
  </polygon>
  <path class="st1" d="M73.1,92.3L73.1,92.3L72,93.9L55.6,82c-0.6,0.2-1.3,0.3-2,0.3l0,0L71.2,95L70,96.6h0c2.8,1.4,5.9,2.5,9,3.3h0
		l0,0C77.4,97.1,75.4,94.6,73.1,92.3L73.1,92.3z">
  </path>
  <path class="st1" d="M28.1,66.6v-1.7l-8.7,6.3l-1.1-1.6h0c-2.2,2.3-4.2,4.8-5.9,7.5l0,0h0c3.1-0.7,6.1-1.8,9-3.3h0l-1.1-1.6
		L28.1,66.6L28.1,66.6z">
  </path>
  <path class="st1" d="M94.9,77.2c-1.7-2.7-3.6-5.2-5.9-7.5h0l-1.1,1.6l-8.7-6.3v1.7l7.9,5.7l-1.1,1.6h0
		C88.8,75.4,91.8,76.5,94.9,77.2L94.9,77.2L94.9,77.2L94.9,77.2z">
  </path>
  <path class="st1" d="M63.2,111.1c0.2-0.7,0.9-2.7,1.1-3.4c0.4-1.2-0.3-2.5-1.5-2.9l-3.2-0.6l2.2-2.3c0.8-1,0.5-2.5-0.5-3.2
		c-0.6-0.4-2.3-1.7-2.9-2.1c-0.4-0.3-0.9-0.4-1.4-0.4c-0.7,0-1.4,0.3-1.9,0.9l-1.5,2.9l-1.5-2.9c-0.5-0.6-1.2-0.9-1.9-0.9
		c-0.5,0-1,0.1-1.4,0.4c-0.6,0.4-2.3,1.7-2.9,2.1c-1,0.8-1.3,2.2-0.5,3.2l2.2,2.3l-3.2,0.6c-1.2,0.4-1.9,1.7-1.5,2.9
		c0.2,0.7,0.9,2.7,1.1,3.4c0.3,1,1.2,1.6,2.2,1.6c0.2,0,0.5,0,0.7-0.1l2.9-1.4l-0.4,3.2c0,1.3,1,2.3,2.3,2.3h3.5
		c1.3,0,2.3-1,2.3-2.3l-0.4-3.2l2.9,1.4c0.2,0.1,0.5,0.1,0.7,0.1C61.9,112.7,62.8,112.1,63.2,111.1L63.2,111.1z M55.9,108.9
		c-0.1,0-0.2,0-0.2,0c-0.4,1.6-2,3.2-2,3.2s-1.6-1.6-2-3.2c-0.1,0-0.2,0-0.2,0c-1.6,0-3.4-0.9-3.4-0.9s1-2,2.4-2.9
		c-0.6-1.5-0.2-3.7-0.2-3.7s2.2,0.3,3.5,1.4c1.2-1.1,3.5-1.4,3.5-1.4s0.4,2.2-0.2,3.7c1.4,0.9,2.4,2.9,2.4,2.9
		S57.5,108.9,55.9,108.9z">
  </path>
  <circle class="st1" cx="53.7" cy="106.1" r="1.5">
  </circle>
  <path class="st1" d="M44.1,103.3L44.1,103.3l0.2,0l0.3-0.1l-0.2-0.2l-0.1-0.1l-0.1-0.1c-0.4-0.5-0.6-1.1-0.7-1.7
		c-1.1,0.3-2,0.8-2.1,0.8l-0.3,0.2l0.2,0.3c0,0.1,0.5,1,1.2,1.9C43,103.8,43.5,103.5,44.1,103.3L44.1,103.3z">
  </path>
  <path class="st1" d="M53.4,96.1L53.4,96.1l0.1,0.2l0.2,0.3l0.2-0.3l0-0.1l0.1-0.1c0.4-0.5,0.8-0.9,1.4-1.2c-0.6-1-1.3-1.7-1.4-1.8
		L53.7,93l-0.2,0.2c0,0.1-0.8,0.8-1.4,1.8C52.5,95.2,53,95.6,53.4,96.1z">
  </path>
  <path class="st1" d="M65.9,101.9c-0.1,0-1-0.5-2.1-0.8c-0.1,0.6-0.3,1.2-0.7,1.7l-0.1,0.1l-0.1,0.1l-0.2,0.2l0.3,0.1l0.1,0l0.1,0
		c0.6,0.2,1.1,0.5,1.5,0.9c0.7-0.9,1.2-1.8,1.2-1.9l0.2-0.3C66.2,102.1,65.9,101.9,65.9,101.9z">
  </path>
  <path class="st1" d="M61,114.2c-0.4,0-0.8-0.1-1.2-0.2l-0.1,0l-0.1-0.1l-0.3-0.2l0,0.3v0.2c0,0.6-0.1,1.2-0.4,1.7
		c1.1,0.4,2.1,0.6,2.2,0.6l0.3,0.1l0.1-0.3c0-0.1,0.2-1.1,0.1-2.2C61.4,114.2,61.2,114.2,61,114.2z">
  </path>
  <path class="st1" d="M48,114.4v-0.2l0.1-0.3l-0.3,0.2l-0.1,0.1l-0.1,0c-0.4,0.1-0.8,0.2-1.2,0.2c-0.2,0-0.4,0-0.6-0.1
		c-0.1,1.1,0.1,2.2,0.1,2.2l0.1,0.3l0.3-0.1c0.1,0,1.1-0.2,2.2-0.6C48.2,115.6,48,115,48,114.4z">
  </path>
  <path class="st1" d="M50.2,59.2c-0.3,0-0.5,0.4-0.5,1.1h0.6c0.3,0,0.4-0.1,0.4-0.4C50.6,59.5,50.5,59.2,50.2,59.2L50.2,59.2z">
  </path>
  <path class="st1" d="M36.3,58.1h-0.2c0,0.6,0,1.2,0,1.8v0.2c0,0.6,0,1.2,0,1.8h0.2c0.8,0,1.3-0.7,1.3-1.9S37.2,58.1,36.3,58.1
		L36.3,58.1z">
  </path>
  <path class="st1" d="M48.3,47H33.1v25.8h15.3c1.8,0,3.5,0.8,4.6,2.2V51.6C53,49.1,50.9,47,48.3,47z M40.3,57c0.4,0,0.7,0.3,0.7,0.6
		s-0.3,0.6-0.7,0.6s-0.7-0.3-0.7-0.6S39.9,57,40.3,57z M36.3,62.5h-2.1V62l0.5-0.1c0-0.6,0-1.2,0-1.8v-0.2c0-0.6,0-1.2,0-1.8
		l-0.5-0.1v-0.5h2.2c1.6,0,2.5,0.9,2.5,2.5S38,62.5,36.3,62.5L36.3,62.5z M41.3,62.5h-2V62l0.4-0.1c0-0.3,0-0.8,0-1.1v-0.3
		c0-0.4,0-0.6,0-0.9l-0.5-0.1v-0.4l1.6-0.5l0.2,0.1l0,1.1v1c0,0.3,0,0.7,0,1.1l0.4,0.1L41.3,62.5L41.3,62.5z M42.8,62.6
		c-0.5,0-0.9-0.1-1.3-0.3l0,0l0-1h0.7l0.1,0.7c0.2,0.1,0.3,0.1,0.5,0.1c0.4,0,0.6-0.1,0.6-0.4c0-0.2-0.1-0.3-0.6-0.5l-0.4-0.1
		c-0.6-0.2-0.9-0.6-0.9-1.1c0-0.8,0.6-1.2,1.6-1.2c0.4,0,0.8,0.1,1.2,0.3l0,0l-0.1,0.9h-0.7l-0.2-0.6c-0.1,0-0.2,0-0.4,0
		s-0.5,0-0.5,0.4c0,0.1,0,0.3,0.6,0.4l0.4,0.1c0.7,0.2,1,0.6,1,1.2C44.5,62.1,43.9,62.6,42.8,62.6L42.8,62.6z M48.2,59.9
		c-0.1,0.3-0.3,0.4-0.5,0.4c-0.2,0-0.6-0.1-0.6-0.7l0-0.3c0,0-0.1,0-0.1,0c-0.4,0-0.8,0.3-0.8,1.3c0,0.8,0.4,1.3,1,1.3
		c0.3,0,0.5-0.1,0.8-0.4l0,0l0.3,0.3l0,0c-0.3,0.6-0.8,0.9-1.5,0.9c-1.3,0-1.9-1-1.9-1.9c0-1.2,0.8-2,2-2
		C47.5,58.8,48.1,59.2,48.2,59.9L48.2,59.9L48.2,59.9L48.2,59.9z M50.6,61.8c0.3,0,0.6-0.1,0.8-0.4l0,0l0.3,0.3l0,0
		c-0.3,0.6-0.8,0.9-1.6,0.9c-1.1,0-1.9-0.8-1.9-1.9c0-1.3,1-1.9,1.9-1.9s1.6,0.6,1.6,1.6c0,0.2,0,0.3,0,0.4v0h-2.1
		C49.7,61.4,50.1,61.8,50.6,61.8L50.6,61.8z">
  </path>
  <path class="st1" d="M58.4,58.1h-0.2c0,0.6,0,1.2,0,1.8v0.2c0,0.6,0,1.2,0,1.8h0.2c0.8,0,1.3-0.7,1.3-1.9S59.2,58.1,58.4,58.1
		L58.4,58.1z">
  </path>
  <path class="st1" d="M63.3,59.2c-0.4,0-0.6,0.5-0.6,1.5c0,1.3,0.3,1.4,0.6,1.4c0.4,0,0.6-0.5,0.6-1.4S63.7,59.2,63.3,59.2z">
  </path>
  <path class="st1" d="M59,47c-2.5,0-4.6,2.1-4.6,4.6v23.3c1.1-1.3,2.8-2.2,4.6-2.2h15.3V47C74.2,47,59,47,59,47z M58.4,62.5h-2.1V62
		l0.5-0.1c0-0.6,0-1.2,0-1.8v-0.2c0-0.6,0-1.2,0-1.8l-0.5-0.1v-0.5h2.2c1.6,0,2.5,0.9,2.5,2.5S60.1,62.5,58.4,62.5L58.4,62.5z
		 M63.3,62.6c-1.2,0-1.9-0.8-1.9-2c0-1.1,0.8-1.9,1.9-1.9s1.9,0.8,1.9,1.9S64.4,62.6,63.3,62.6z M68.8,59.9
		c-0.1,0.3-0.3,0.4-0.6,0.4c-0.2,0-0.6-0.1-0.6-0.7l-0.1-0.3c0,0-0.1,0-0.1,0c-0.4,0-0.8,0.3-0.8,1.3c0,0.8,0.4,1.3,1,1.3
		c0.3,0,0.6-0.1,0.8-0.4l0,0l0.3,0.3l0,0c-0.3,0.6-0.8,0.9-1.6,0.9c-1.3,0-1.9-1-1.9-1.9c0-1.2,0.8-2,2-2
		C68.2,58.8,68.8,59.2,68.8,59.9L68.8,59.9L68.8,59.9L68.8,59.9z M71.3,61.8c0.3,0,0.6-0.1,0.8-0.4l0,0l0.3,0.3l0,0
		c-0.3,0.6-0.8,0.9-1.6,0.9c-1.1,0-1.9-0.8-1.9-1.9c0-1.3,1-1.9,1.9-1.9s1.6,0.6,1.6,1.6c0,0.2,0,0.3-0.1,0.4v0h-2.1
		C70.4,61.4,70.7,61.8,71.3,61.8L71.3,61.8z">
  </path>
  <path class="st1" d="M70.8,59.2c-0.3,0-0.5,0.4-0.5,1.1h0.6c0.3,0,0.4-0.1,0.4-0.4C71.3,59.5,71.1,59.2,70.8,59.2L70.8,59.2z">
  </path>
 </g>
</svg>